<svg xmlns="http://www.w3.org/2000/svg" viewBox="0 0 128 128"><path fill="#042520" d="M106.273 111.889a14.66 14.66 0 0 0-1.922-6.503q-1.676-2.376-3.991-.739 2.06.933 2.809 3.104a62 62 0 0 1 1.034 5.912 51.2 51.2 0 0 1-9.755 6.503q-14.871 1.5-28.379 7.686h-8.277a78 78 0 0 1-15.963-3.695 35 35 0 0 1-4.139-1.921q-2.254-6.7 3.843-9.903-2.86-1.019-4.581 1.625-1.818 3.463-1.33 7.391a2.7 2.7 0 0 1-1.331-.591q-.874-5.252 2.808-9.017a182 182 0 0 1-8.425-2.808 8.74 8.74 0 0 0-2.069 3.547q-.988 1.178-1.626-.295a72 72 0 0 1 1.774-3.991 23.5 23.5 0 0 1-5.026-3.843q-.624-.14-1.182.296a49 49 0 0 1-3.547 2.808q-1.085-.411-.74-1.478a63 63 0 0 1 3.991-3.252A11.3 11.3 0 0 1 18.18 97.7q.595-1.013-.591-.74a86 86 0 0 0-4.286 1.922q-.874.097-1.035-.739a2.48 2.48 0 0 1 1.182-1.182l3.252-1.626a10.86 10.86 0 0 1-2.07-5.173 53 53 0 0 0 2.513-9.608 160 160 0 0 1 1.33-11.972q-9.98-22.233-2.216-45.376 1.251-3.175 4.434-4.139 1.434.09 2.512 1.035A98.5 98.5 0 0 1 44.047 39.76q.396.258.887.295 12.9-3.479 26.162-3.843a79 79 0 0 1 7.538-12.415 367 367 0 0 1 11.972-12.86q3.483-2.322 6.356.74 10.014 15.561 10.79 34.143a44 44 0 0 1-.887 6.799 82.6 82.6 0 0 1 6.947 18.771 149 149 0 0 0 3.843 7.982 17.9 17.9 0 0 1 5.468-.444q.591.74 0 1.478-2.982.17-5.912.74a21.4 21.4 0 0 1-2.365 4.138 3.8 3.8 0 0 1 1.183 2.07q3.686.368 7.39.443l-.591 1.182q-3.556.075-7.095.444a14.7 14.7 0 0 1-3.547 5.468q3.042.781 5.912 2.07.64 1.106-.591 1.626a89 89 0 0 0-6.651-2.365 39.4 39.4 0 0 1-7.243 6.651q3.894 3.1 3.695 8.129a4.3 4.3 0 0 1-1.034.887" opacity=".956"/><path fill="#f8f9f9" d="M108.046 58.975q-.153 1.195-1.182 1.773a72 72 0 0 0-2.217-5.912 116 116 0 0 0-3.4-5.617 11.8 11.8 0 0 0 2.069 1.478q.696-.537.739-1.478a81.3 81.3 0 0 0-5.32-28.674q-.75-1.8-1.922-3.252v-.59q-.574-2.933-3.252-4.14-.638.097-1.182.444a28.4 28.4 0 0 0-4.582 5.173 180 180 0 0 1-9.312 18.476q-2.952.222-5.912.148A66.2 66.2 0 0 1 83.067 20.84a175 175 0 0 0 8.425-8.72q1.666-1.273 3.547-.296a28.4 28.4 0 0 1 5.173 8.424q7.504 15.933 5.617 33.405a25.6 25.6 0 0 1 2.217 5.32"/><path fill="#0a2925" d="M94.448 15.224a16.66 16.66 0 0 0-6.06 6.208 133 133 0 0 0-5.764 14.633 33 33 0 0 0 3.547-.887q6.119-1.005 2.66 4.286a86 86 0 0 1 5.617.74q.556 1.374-.296 2.66.38 1.044 1.478 1.33.413.526.296 1.182-3.977-.568-2.365-4.138a35 35 0 0 0-7.538 0q-.296-.295 0-.591 2.087-1.814 2.808-4.434-3.713.189-7.094 1.773-.54-.17-.591-.739a83.6 83.6 0 0 1 6.65-17.293 16.15 16.15 0 0 1 5.913-5.617q.775.111.739.887"/><path fill="#da799e" d="M94.448 15.224q1.41.375 2.365 1.478v.591a116.5 116.5 0 0 0 1.626 25.127 41 41 0 0 0 1.921 5.617q-.055.27-.295.296a31.4 31.4 0 0 1-4.139-2.957 1.44 1.44 0 0 0-.296-1.182q-1.098-.286-1.478-1.33.852-1.286.296-2.66a86 86 0 0 0-5.617-.74q3.459-5.29-2.66-4.286a33 33 0 0 1-3.547.887 133 133 0 0 1 5.764-14.633 16.66 16.66 0 0 1 6.06-6.208"/><path fill="#f7b1cc" d="M96.813 17.293a13.2 13.2 0 0 1 1.921 3.252 81.3 81.3 0 0 1 5.321 28.674q-.043.94-.739 1.478-1.125-.634-2.069-1.478-.608-.448-1.182-.886.24-.027.295-.296a41 41 0 0 1-1.921-5.617 116.5 116.5 0 0 1-1.626-25.127"/><path fill="#fdfefe" d="M42.125 41.83a166 166 0 0 0-12.86-13.6 293 293 0 0 1 7.982 19.807 25.7 25.7 0 0 1 6.947-3.547h.296a24.5 24.5 0 0 0 3.4 9.164q.462-.498.59-1.183.405-4.722.444-9.46 1.447-.435 2.956-.59a95.5 95.5 0 0 0 2.217 15.371q.298 1.56 1.035 2.956a5.6 5.6 0 0 0 .739-2.069 745 745 0 0 1 3.104-17.441q.295 0 .295-.296h3.843q-.074 2.517.148 5.026.02 2.01.739 3.843a81 81 0 0 0 3.547-8.869q27.12.247 33.109 26.605a19.7 19.7 0 0 1-6.208 4.287 1.3 1.3 0 0 0-.296 1.034 40 40 0 0 0 7.686-.59 29.8 29.8 0 0 1 0 8.276v.296a37 37 0 0 0-7.094.443q-1.697.784 0 1.774 3 1.305 6.208 1.921-3.516 10.244-13.007 15.52a67.4 67.4 0 0 1-17.737 6.504 204 204 0 0 1-13.894 2.069 84 84 0 0 1-20.988-1.183 47 47 0 0 1-5.026-1.625 3.3 3.3 0 0 1 1.774-1.479q.412-.526.296-1.182-.609-.07-1.183.148a23 23 0 0 0-2.365 1.921 25.4 25.4 0 0 1-5.616-2.956 12.9 12.9 0 0 1 5.32-1.626q.372-.449.296-1.034-3.801-.088-6.947 2.069-.177-.1-.148-.296a35 35 0 0 0 4.14-6.207q.294 0 .295-.296.487-.598.887-1.33l-.296-.296q-1.875-.203-3.547.443-2.16.15-4.287.592-1-.05-1.478-.887a9.1 9.1 0 0 1-1.33-3.547 101 101 0 0 0 1.773-5.913 24 24 0 0 0 7.982-1.478q.495-.541.148-1.182a96 96 0 0 1-6.504-6.208 21.4 21.4 0 0 1-.147-3.547q.813-8.718 6.06-15.668.34-.694-.148-1.182l1.774-3.252q1.07-.086.886-1.183-1.466.194-2.66-.59.849-.807 2.07-1.035a12 12 0 0 0 3.399-.74q.14-.624-.296-1.182l-1.626-1.035q2.345.12 4.73.148a66.9 66.9 0 0 0-10.346-21.727q-3.03-2.505-4.435 1.034.019.406.296.592-4.58 16.955-.296 33.995a3.36 3.36 0 0 1-1.773.591Q13.204 49.234 14.485 37.1a55 55 0 0 1 3.547-14.19q.795-1.238 1.922-2.216 1.353-.38 2.365.591a132 132 0 0 1 19.067 17.293q.752.975 1.33 2.07-.6.453-.591 1.182"/><path fill="#0e2a26" d="M27.049 51.88q-2.05.081-3.252-1.478-.048-.894.591-1.478a10.75 10.75 0 0 1 4.434-1.33 25 25 0 0 0-2.217-1.33q-.32-.715.148-1.331a48 48 0 0 1 5.32 0 115.5 115.5 0 0 0-7.537-16.702 60 60 0 0 0-2.513-3.104q-1.582-1.074-2.07.74-.313.4-.886.295-.276-.185-.296-.592 1.405-3.539 4.435-1.034a66.9 66.9 0 0 1 10.346 21.727q-2.385-.027-4.73-.148l1.626 1.035q.435.558.296 1.183-1.631.613-3.4.739-1.22.228-2.07 1.034 1.196.785 2.661.591.183 1.097-.886 1.183"/><path fill="#d6789c" d="M24.388 48.924q.897-4.117 1.626-8.277.92-5.661-2.365-10.347a27 27 0 0 0-3.695-4.434q.487-1.813 2.07-.739a60 60 0 0 1 2.512 3.104 115.5 115.5 0 0 1 7.538 16.702 48 48 0 0 0-5.321 0q-.467.615-.148 1.33 1.146.61 2.217 1.33a10.75 10.75 0 0 0-4.434 1.33"/><path fill="#f7b0cb" d="M19.954 25.866a27 27 0 0 1 3.695 4.434q3.285 4.686 2.365 10.347a205 205 0 0 1-1.626 8.277q-.639.585-.591 1.478a32 32 0 0 1-4.73 9.755h-.296q-4.285-17.04.296-33.995.573.105.887-.296"/><path fill="#88d4ee" d="M96.813 16.702a4.64 4.64 0 0 0-2.365-1.478q.036-.777-.739-.887a16.15 16.15 0 0 0-5.912 5.617 83.6 83.6 0 0 0-6.651 17.293q.05.568.59.74a18.8 18.8 0 0 1 7.095-1.775q-.72 2.622-2.808 4.435-.296.296 0 .59a35 35 0 0 1 7.538 0q-1.611 3.57 2.365 4.14a31.4 31.4 0 0 0 4.139 2.956q.574.438 1.182.886a116 116 0 0 1 3.4 5.617 72 72 0 0 1 2.217 5.912v.296a30.8 30.8 0 0 1-5.913 6.503h-.295q-5.99-26.358-33.109-26.605v-.295q.54-1.238 1.183-2.513 1.71-.078 3.251-.444a2.1 2.1 0 0 1 .592-.886q2.96.074 5.912-.148a180 180 0 0 0 9.312-18.476 28.4 28.4 0 0 1 4.582-5.173q.545-.346 1.182-.444 2.679 1.207 3.252 4.14"/><path fill="#89d5ef" d="M42.125 41.83q.866.504 1.773 0 .434 1.235.296 2.66a25.7 25.7 0 0 0-6.947 3.547 293 293 0 0 0-7.981-19.806 166 166 0 0 1 12.859 13.598"/><path fill="#375766" d="M71.982 37.69a17.6 17.6 0 0 1-3.252.444q-.642 1.275-1.183 2.513H63.41v-2.66a74 74 0 0 1 8.572-.297"/><path fill="#87d0ea" d="M62.226 38.282h.887v2.66H59.27v-2.365q1.447-.365 2.956-.295"/><path fill="#3a5868" d="M59.27 38.577v2.365q0 .296-.295.296-3.593.097-7.095.887.134-1.136-.296-2.07a133 133 0 0 1 7.686-1.478"/><path fill="#85d0ea" d="M51.584 40.055q.43.934.296 2.07v.295a16 16 0 0 0-2.956.591v-2.364a8.7 8.7 0 0 1 2.66-.592"/><path fill="#3b5a6a" d="M48.924 40.647v2.364q-2.25.652-4.434 1.479h-.296q.138-1.425-.296-2.66 2.438-.698 5.026-1.183"/><path fill="#a2aaaf" d="M62.226 38.282q.474-.414 1.183-.296v2.66h4.138v.296A81 81 0 0 1 64 49.811a10.8 10.8 0 0 1-.739-3.843 43 43 0 0 1-.148-5.026v-2.66z"/><path fill="#a4abaf" d="M58.975 41.238a745 745 0 0 0-3.104 17.441 5.6 5.6 0 0 1-.74 2.07q-.735-1.396-1.034-2.957A95.5 95.5 0 0 1 51.88 42.42v-.295q3.503-.79 7.095-.887"/><path fill="#a6adb1" d="M48.924 43.012a123 123 0 0 1-.444 9.46q-.128.684-.59 1.182a24.5 24.5 0 0 1-3.4-9.164 59 59 0 0 1 4.434-1.479"/><path fill="#d87a9e" d="M23.797 50.402q1.2 1.56 3.252 1.478l-1.774 3.252q-.83.159-1.33.887a67 67 0 0 0-3.991 7.39 30 30 0 0 1-.887-3.252 32 32 0 0 0 4.73-9.755"/><path fill="#9ea6aa" d="M108.046 58.975a35.6 35.6 0 0 1 3.548 10.937l-1.774.591h-.296a83 83 0 0 0-2.66-9.46v-.295q1.029-.578 1.182-1.773"/><path fill="#87cee8" d="M18.771 60.157h.296q.353 1.65.887 3.252a7.1 7.1 0 0 1-.887 2.66 22 22 0 0 1-2.07-5.32 3.36 3.36 0 0 0 1.774-.592"/><path fill="#3b596a" d="M106.864 61.044a83 83 0 0 1 2.66 9.46 55 55 0 0 1-7.686 1.773 59 59 0 0 0-.887-4.73 30.8 30.8 0 0 0 5.913-6.503"/><path fill="#a4abaf" d="M100.656 67.547h.295q.54 2.345.887 4.73-3.81.667-7.686.591-.075-.585.296-1.034a19.7 19.7 0 0 0 6.208-4.287"/><path fill="#f8f9f9" d="M111.594 69.912a84 84 0 0 0 3.251 7.095.84.84 0 0 1-.295.739 7 7 0 0 0-1.774.739h-.296a27.2 27.2 0 0 1-2.66-7.981z"/><path fill="#042520" d="M81.737 70.208q4.568-.236 6.651 3.843 2.852 5.763-.443 11.233-2.824 2.47-6.208.74-5.385-5.073-3.4-12.269 1.194-2.3 3.4-3.547"/><path fill="#88d4ee" d="M109.524 70.504h.296a27.2 27.2 0 0 0 2.66 7.981 43.3 43.3 0 0 1-10.642 2.07q.578-4.143 0-8.278a55 55 0 0 0 7.686-1.773"/><path fill="#f6f7f7" d="M82.92 72.868q3.986-.668 3.399 3.252-2.364 3.02-4.434-.296a2.73 2.73 0 0 1 0-1.773 5.8 5.8 0 0 0 1.034-1.183"/><path fill="#a2aaad" d="M19.363 71.982q-.074 1.78.147 3.547a96 96 0 0 0 6.504 6.208q.345.64-.148 1.182a24 24 0 0 1-7.982 1.478 134 134 0 0 0 1.479-12.416"/><path fill="#052621" d="M35.326 77.303q5.451-.1 6.65 5.32 1.43 5.3-2.216 9.312-3.699 1.892-6.06-1.626-2.474-4.643-1.183-9.755.798-2.208 2.809-3.252"/><path fill="#a3aaae" d="M114.845 77.007q1.05 1.09.887 2.66-.76.058-1.478.296-1.172-.285-1.478-1.478a7 7 0 0 1 1.774-.739.84.84 0 0 0 .295-.74"/><path fill="#3b5a6a" d="M112.48 78.485h.296q.305 1.193 1.478 1.478a26.2 26.2 0 0 0-9.164 3.547 1.44 1.44 0 0 0-.296 1.183 42.5 42.5 0 0 1 8.869-3.252 16.9 16.9 0 0 1-2.661 5.321h-.295a49 49 0 0 1-9.756-1.774q.584-2.037.887-4.138v-.296a43.3 43.3 0 0 0 10.642-2.069"/><path fill="#f5f6f6" d="M37.1 79.667q3.471-.445 2.808 2.957-2.15 2.473-3.843-.296-.424-1.712 1.034-2.66"/><path fill="#a7adb1" d="M101.838 80.85q-.303 2.1-.886 4.139a29.5 29.5 0 0 1-6.208-1.922q-1.697-.99 0-1.774a37 37 0 0 1 7.094-.443"/><path fill="#9aa3a7" d="M114.254 87.058a21 21 0 0 1-3.252-.296 16.9 16.9 0 0 0 2.661-5.32q.93-.326 1.773 0l-2.364 4.138q.587.738 1.182 1.478"/><path fill="#88d4ee" d="M100.952 84.988q4.769 1.38 9.755 1.774v1.478a74 74 0 0 0-4.434 1.183v1.182l4.138-.887a11.1 11.1 0 0 1-1.478 4.73q-1.927-.074-3.843.148-.573.573 0 1.034 1.386.435 2.956.296a4 4 0 0 0-.591 1.774 32.6 32.6 0 0 1-10.05 6.947 93 93 0 0 1-23.354 5.912 1.3 1.3 0 0 0-.296 1.035q7.263-1.436 1.183 2.069a71.6 71.6 0 0 0-11.234-.148q-6.413.751-12.71 1.33a19 19 0 0 0-2.366-1.33 55 55 0 0 0 6.208 0q.591-.591 0-1.182a74.7 74.7 0 0 1-24.831-4.435q-1.535-.836.295-1.625a47 47 0 0 0 5.026 1.625 84 84 0 0 0 20.988 1.183q6.982-.795 13.894-2.069a67.4 67.4 0 0 0 17.737-6.504q9.49-5.276 13.007-15.52"/><path fill="#0a2a26" d="M59.861 87.353a7.36 7.36 0 0 1-2.956 2.513q.242.318.591.444 2.806 2.208 6.208 1.034a6.4 6.4 0 0 0 1.774-2.217 1.44 1.44 0 0 1 1.183-.296q-.95 4.196-5.321 4.139a6.36 6.36 0 0 1-3.548-.887 6.6 6.6 0 0 0-1.33-.887 29 29 0 0 1-2.217 2.66q-4.065 2.238-6.947-1.477-.134-1.15 1.035-.74 4.459 3.802 7.094-1.477-2.637.014-3.843-2.217.014-.678.591-1.035 3.711-1.736 7.539-.444.214.42.147.887"/><path fill="#e9eded" d="M110.707 86.762h.295q1.612.273 3.252.296.4.314.296.887a23 23 0 0 0-3.843.295z"/><path fill="#89cbe0" d="M59.861 87.353a2.76 2.76 0 0 1-.739 1.774q-.892.53-1.626 1.183a1.27 1.27 0 0 1-.59-.444 7.36 7.36 0 0 0 2.955-2.513"/><path fill="#f1f4f4" d="M108.933 94.448a11.1 11.1 0 0 0 1.478-4.73q1.808-.76 3.843-.443a17 17 0 0 1-3.843 5.32q-.837.346-1.478-.147"/><path fill="#8bcde3" d="M57.792 92.083a3.8 3.8 0 0 0-1.478.148 5.4 5.4 0 0 1-2.07 1.626 29 29 0 0 0 2.218-2.66q.739.376 1.33.886"/><path fill="#abb2b5" d="M26.162 95.335q.062-.72-.592-1.035a9.6 9.6 0 0 0-2.364-.148q1.672-.645 3.547-.443l.296.296a8.6 8.6 0 0 1-.887 1.33"/><path fill="#a1a9ad" d="M25.866 95.63a35 35 0 0 1-4.139 6.208q-2.582-2.429-1.773-5.912a36 36 0 0 1 5.912-.296"/><path fill="#5e909b" d="M105.09 95.63a14.7 14.7 0 0 1 4.139.296q-.055.27-.296.296-.314-.4-.887-.296-1.57.14-2.956-.296"/><path fill="#d6dedf" d="M108.046 95.926q.573-.106.887.296a5.3 5.3 0 0 1-1.478 1.478 4 4 0 0 1 .591-1.774"/><path fill="#84cce4" d="M23.206 102.725a25.4 25.4 0 0 0 5.616 2.956q-.593 1.707-2.07.739a13.1 13.1 0 0 1-4.138-3.251q.242-.318.591-.444"/><path fill="#324747" d="M106.273 111.889a13 13 0 0 1-2.07 1.774 62 62 0 0 0-1.034-5.912q-.748-2.17-2.809-3.104 2.315-1.637 3.991.739a14.66 14.66 0 0 1 1.922 6.503" opacity=".987"/><path fill="#344949" d="M87.945 111.889q1.632-.074 3.251.148 1.183.886 0 1.774a110.3 110.3 0 0 1-23.649 10.05q-1.065.362-2.069-.147a82 82 0 0 1 9.755-8.721 34 34 0 0 1 4.73-1.774 42 42 0 0 0 7.982-1.33"/><path fill="#324847" d="M37.69 122.236q-1.215-.092-2.069-.887-.486-3.928 1.33-7.391 1.723-2.644 4.582-1.625-6.098 3.203-3.843 9.903" opacity=".977"/><path fill="#fbfcfc" d="M74.938 113.663a70.5 70.5 0 0 0-12.416 11.824 73.6 73.6 0 0 0-11.529-10.642q6.299-.579 12.711-1.33a71.6 71.6 0 0 1 11.234.148"/><path fill="#334949" d="M42.125 114.845a29 29 0 0 1 4.138.148q8.636 2.84 14.19 10.051a59.2 59.2 0 0 1-17.442-6.504 6.8 6.8 0 0 1-2.364-2.364 3.7 3.7 0 0 1 1.478-1.331"/><path fill="#344848" d="M94.448 120.166q-11.493 6.345-24.536 7.686H66.07q13.508-6.186 28.379-7.686" opacity=".97"/></svg>
