<svg xmlns="http://www.w3.org/2000/svg" viewBox="0 0 128 128"><circle cx="64" cy="64" r="64" fill="#f7931a"/><path fill="#fff" d="M92.224 54.882c1.274-8.517-5.21-13.095-14.078-16.15l2.876-11.537L74 25.445l-2.8 11.234c-1.847-.46-3.743-.895-5.628-1.325l2.82-11.307-7.019-1.75-2.878 11.533a231 231 0 0 1-4.485-1.054l.008-.036-9.686-2.419-1.868 7.501s5.21 1.195 5.101 1.268c2.844.71 3.359 2.593 3.273 4.085L47.56 56.318c.196.05.45.122.73.235q-.352-.09-.742-.184l-4.593 18.412c-.347.864-1.23 2.16-3.218 1.668.07.102-5.105-1.274-5.105-1.274l-3.487 8.04 9.14 2.278c1.7.426 3.367.872 5.007 1.292l-2.906 11.67 7.016 1.749 2.878-11.545c1.916.52 3.776 1 5.597 1.452l-2.868 11.491 7.024 1.75 2.906-11.648c11.977 2.267 20.983 1.353 24.773-9.479 3.055-8.72-.152-13.75-6.453-17.031 4.59-1.059 8.046-4.077 8.968-10.311zm-16.047 22.5c-2.17 8.721-16.856 4.007-21.617 2.825l3.857-15.46c4.76 1.188 20.028 3.54 17.76 12.635m2.172-22.627c-1.98 7.933-14.203 3.903-18.168 2.915l3.497-14.022c3.965.989 16.734 2.833 14.672 11.107z"/></svg>
