<svg xmlns="http://www.w3.org/2000/svg" viewBox="0 0 128 128"><path fill="#fff" d="M14.007 117.918c-15.297-14.189-16.195-38.093-2.005-53.39l48.645-52.44c14.19-15.298 38.094-16.196 53.391-2.006s16.194 38.094 2.004 53.39l-48.645 52.442c-14.19 15.297-38.092 16.194-53.39 2.004"/><path fill="#5fcb88" d="M12.002 64.528c-14.19 15.297-13.292 39.201 2.005 53.39s39.2 13.293 53.39-2.004L93.318 87.97 37.923 36.584zm14.04 14.734a1.343 1.343 0 1 0-2.086-1.692l-1.59 1.961a1.344 1.344 0 1 0 2.086 1.692zM22.113 86.9a1.344 1.344 0 0 0-2.64-.493c-.733 3.924-.464 7.826.682 11.333a1.342 1.342 0 0 0 2.484.199 1.34 1.34 0 0 0 .07-1.034c-1.003-3.066-1.248-6.511-.596-10.005m3.248 15.673a1.34 1.34 0 0 0-1.465-.322 1.34 1.34 0 0 0-.741.719 1.345 1.345 0 0 0 .277 1.474l2.225 2.292a1.343 1.343 0 1 0 1.928-1.87z"/><path fill="#629393" fill-opacity=".4" d="M1.962 88.418a34.6 34.6 0 0 0 9.612 15.334c14.073 13.055 36.064 12.229 49.12-1.845l42.706-46.04c13.055-14.072 12.229-36.063-1.844-49.118A34.7 34.7 0 0 0 91.217.11a37.62 37.62 0 0 1 22.821 9.973c15.296 14.19 16.194 38.094 2.004 53.39l-48.645 52.442c-14.19 15.297-38.093 16.194-53.39 2.004-8.498-7.883-12.552-18.763-12.045-29.5"/><path fill="#1d3934" fill-rule="evenodd" d="m89.818 83.349 22.039-23.759c12.046-12.986 11.283-33.277-1.702-45.322C97.169 2.222 76.878 2.985 64.833 15.97l-22.04 23.758zm26.224-19.876c14.19-15.297 13.292-39.201-2.004-53.39-15.297-14.19-39.201-13.294-53.391 2.004L34.726 40.031 90.12 91.417zM16.188 68.41 38.91 43.914l-4.185-3.882-22.724 24.497c-14.19 15.297-13.292 39.201 2.005 53.39s39.2 13.293 53.39-2.004L90.12 91.418l-4.185-3.883-22.724 24.497c-12.046 12.986-32.337 13.747-45.323 1.702s-13.745-32.338-1.7-45.324"/></svg>
