<svg xmlns="http://www.w3.org/2000/svg" viewBox="0 0 128 128"><circle cx="64" cy="64" r="64" fill="#bc8828"/><path fill="#e8d19e" d="M22.64 77.53c-.31-1.627-.334-3.244-.334-4.861 0-1.1-.231-2.145-.645-3.168-1.277-3.158-1.752-6.465-1.647-9.847.153-4.918 1.843-9.284 4.954-13.102.54-.663 1.054-1.345 1.31-2.169.176-.561.25-1.152.41-1.719 1.568-5.545 4.977-9.571 10.153-12.095 1.431-.698 2.936-1.248 4.414-1.852 1.063-.434 2.058-.984 2.874-1.789 1.786-1.757 3.957-2.887 6.194-3.938 2.553-1.2 5.257-1.686 8.043-1.848.921-.053 1.844-.15 2.765-.142.812.008 1.644.041 2.43.223 2.2.51 4.434.558 6.67.62 1.444.041 2.888.064 4.333.077 1.657.015 3.229.399 4.77.984 2.834 1.075 5.49 2.462 7.746 4.5.853.771 1.699 1.614 2.31 2.574 1 1.575 2.335 2.657 3.946 3.552 2.993 1.663 5.603 3.827 7.495 6.698 2.045 3.102 3.148 6.559 3.358 10.28q.02.355-.008.708c-.092 1.075.187 2.05.735 2.972 1.351 2.273 2.319 4.695 2.778 7.306.641 3.64.252 7.192-.955 10.67-1.003 2.888-2.48 5.53-4.255 8.01-.489.683-.778 1.41-.925 2.258-.474 2.737-1.079 5.454-2.601 7.844-1.87 2.938-4.206 5.453-7.2 7.27-2.088 1.266-4.36 2.167-6.741 2.76-.818.204-1.495.594-2.139 1.172-2.215 1.992-4.666 3.601-7.58 4.449-2.359.686-4.731 1.167-7.2 1.057a20 20 0 0 1-4.892-.812c-1.717-.514-3.425-.534-5.194-.306-3.724.481-7.398.204-10.957-1.074-1.98-.712-3.64-1.951-5.253-3.255-1.822-1.473-3.38-3.197-4.774-5.073-.914-1.23-2.03-2.235-3.382-2.975-5.187-2.84-8.38-7.273-10.206-12.775-.34-1.027-.535-2.101-.8-3.184m23.102 2.005c.02.013.04.027.068.088.649.777 1.466 1.415 1.928 2.35.34-.303.4-.527.132-.754-.672-.568-1.374-1.101-2.077-1.681-.02-.012-.04-.024-.065-.046l-.012.004s.021.002.026.04M42.58 51.22c.255-.34.45-.691.29-1.113l-.102-.021c-.077.385-.154.77-.255 1.157l-.005.05c.01-.017.02-.034.072-.073M28.792 39.028c.345-.418.7-.83 1.03-1.26.088-.114.095-.29.139-.437l-.14-.052a6 6 0 0 0-1.062 1.789l-.018.001s.013-.013.05-.041m56.099 5.918.012-.007s-.022.002-.005-.057c-.147-.613-.287-1.227-.45-1.836-.025-.09-.159-.213-.24-.211-.08.001-.184.129-.23.224-.195.409-.158.806.15 1.145.235.259.504.488.763.742m-4.674-11.27-.059-.026c.007.037.013.075.032.161.297.604.576 1.228 1.128 1.648.355.269.558.61.627 1.028.124.76.543 1.344 1.07 1.867.099.098.242.153.376.234.298-.942-1.51-3.698-3.174-4.913m1.34 47.225c.192-.059.381-.132.577-.174.767-.165 1.144-.623 1.262-1.409.31-2.052.898-4.038 1.783-5.913 1.129-2.39 2.345-4.738 3.54-7.097.165-.325.222-.598.096-.962-1.36-3.922-2.38-7.93-2.951-12.046-.135-.976-.467-1.814-1.28-2.471-2.654-2.146-5.026-4.59-7.352-7.078-.199-.213-.397-.447-.521-.707-.357-.745-.895-1.272-1.73-1.36-1.258-.13-2.523-.205-3.786-.285-2.034-.129-4.056-.309-6.04-.821a265 265 0 0 0-6.347-1.538 1.1 1.1 0 0 0-.763.129c-.86.563-1.7 1.157-2.525 1.771-2.004 1.493-4.032 2.95-6.337 3.954-1.072.467-2.177.862-3.276 1.265-.97.357-1.507 1.01-1.68 2.04-.3 1.797-.857 3.528-1.514 5.227-1.08 2.79-2.496 5.397-4.325 7.773-.155.202-.176.362-.064.603.452.974.908 1.948 1.303 2.946A40.3 40.3 0 0 1 42.25 75.69c.024.243.104.415.316.55.39.245.761.52 1.148.772a32.8 32.8 0 0 1 7.971 7.291c.532.675 1.134 1.298 1.735 1.915.155.158.432.285.65.28 1.03-.022 2.057-.106 3.085-.146 2.409-.094 4.811-.051 7.166.532 1.331.33 2.646.725 3.964 1.107.27.078.471.046.677-.141.342-.31.701-.6 1.05-.9 1.414-1.215 2.92-2.294 4.612-3.093.243-.115.53-.139.77-.198.187-.162.352-.363.564-.48 1.76-.965 3.633-1.659 5.597-2.28M47.12 30.216c-.59 0-1.182.01-1.773-.003-.257-.006-.363.079-.356.343.013.507.017 1.014-.002 1.52-.01.298.112.382.394.389 1.37.036 2.74.1 4.111.133.919.022.737.167.907-.741.099-.526.16-1.06.244-1.64zm-1.85 3.176c.119.552.24 1.104.352 1.657.054.267.194.417.476.425 1.345.036 2.69.077 4.035.103.072.001.212-.126.211-.192a19 19 0 0 0-.06-1.619c-.033-.352-.252-.585-.632-.598-1.391-.045-2.784-.081-4.175-.125-.224-.007-.261.107-.206.349m8.541-2.56c-.74-.152-1.484-.294-2.222-.457-.233-.052-.328.014-.353.24-.06.551-.114 1.103-.201 1.65-.051.321.045.48.369.542q1.932.368 3.86.759c.259.052.383-.036.41-.287.064-.597.124-1.195.194-1.792.025-.209-.087-.262-.259-.296-.58-.112-1.159-.232-1.798-.36m2.646 2.722c.14.575.555.79 1.099.9.654.133 1.298.319 1.942.5.256.073.497.198.792.317.257-.649.494-1.261.743-1.869.11-.269.062-.452-.229-.547q-1.815-.594-3.63-1.192c-.21-.07-.34.015-.431.196-.26.517-.392 1.058-.286 1.695m1.92 65.252-.735-.61c-.327-.27-.493-.286-.742.04-.392.513-.742 1.057-1.1 1.573.046.073.057.113.083.13 1.172.815 2.344 1.631 3.526 2.432.063.042.25-.005.313-.073q.434-.467.821-.971c.378-.496.374-.579-.124-.973-.656-.52-1.334-1.012-2.042-1.548M72.88 30.02c-.61-.465-.868-.454-1.396.095-.295.305-.562.636-.854.944-.137.145-.132.25.008.385.29.277.561.574.856.846.528.488 1.056.977 1.612 1.431.122.1.413.148.534.073.605-.379 1.18-.806 1.767-1.218a810 810 0 0 0-2.527-2.556m7.191 66.035c-.05-.66-.094-.757-.52-.81a199 199 0 0 0-3.703-.42c-.085-.01-.25.072-.262.134a36 36 0 0 0-.275 1.745c-.03.219.09.355.313.396.245.044.486.113.732.139 1.047.11 2.094.21 3.142.312.302.03.479-.107.506-.408.031-.34.048-.68.067-1.088m-27.166.912q1.016.96 2.035 1.92c.265.249.514.201.723-.072.179-.234.354-.473.503-.726.391-.66.385-.664-.134-1.211q-.084-.092-.17-.182c-.719-.734-1.433-1.472-2.165-2.194-.089-.088-.344-.159-.401-.106-.502.46-.976.949-1.483 1.453.368.376.713.728 1.092 1.118m28.469.535c.72-.029 1.443-.046 2.163-.091.4-.025.803-.07 1.194-.153.502-.106.695-.357.721-.867q.02-.442.001-.885c-.02-.5-.172-.636-.666-.575-1.302.162-2.602.339-3.905.499-.204.025-.258.107-.238.297q.068.633.114 1.269c.038.522.034.523.616.506m15.061-17.216.662-.423-1.182-1.473c-.145-.18-.318-.178-.505-.075q-1.476.81-2.953 1.617c-.343.187-.417.478-.284.81.135.339.299.668.48.984.266.469.34.498.807.242.984-.539 1.955-1.101 2.975-1.682m-56.9 5.724c-.08-.284-.15-.57-.24-.85-.092-.289-.3-.444-.61-.439-.331.006-.663.004-.992.03-.538.044-.767.285-.667.817.215 1.144.482 2.277.726 3.415.056.257.223.368.465.305.443-.116.891-.227 1.313-.4.499-.205.524-.293.422-.814-.13-.67-.27-1.337-.418-2.064m60.242-11.757 1.671 1.692c.79-1.255 1.545-2.448 2.291-3.646.029-.048.01-.182-.03-.21a52 52 0 0 0-1.791-1.14c-.059-.035-.253.036-.299.11-.462.751-.907 1.513-1.356 2.272-.172.291-.34.585-.487.922m-25.38-38.731c.473.664.959 1.318 1.41 1.996.188.28.377.32.647.164q.611-.358 1.225-.712c.33-.19.37-.447.215-.778a8.5 8.5 0 0 0-1.667-2.36c-.297-.302-.656-.362-1.038-.153-.269.148-.54.294-.793.467-.619.423-.615.429-.2 1.065zM26.48 49.351c.25.675.91.94 1.405 1.474l3.137-3.304c-.196-.206-.434-.467-.684-.716-.572-.569-.917-.614-1.526-.07-.712.634-1.375 1.324-2.04 2.008-.14.144-.197.366-.292.608m17.158-18.79c-1.088.274-2.179.54-3.264.825-.372.097-.623.339-.666.741a14 14 0 0 0-.079.987c-.014.434.082.517.5.43 1.052-.222 2.108-.434 3.153-.69 1.212-.297 1.42-.74.97-1.898-.103-.264-.26-.415-.614-.394m44.779 5.079c-.309-.326-.683-.37-1.074-.205-.258.11-.492.276-.739.414-.192.108-.253.25-.183.47.247.775.458 1.562.723 2.33.414 1.2.76 1.359 1.971.977.43-.135.615-.34.55-.78-.169-1.14-.528-2.22-1.248-3.206M41.738 92.386c-.018-.044-.032-.09-.053-.13-.417-.79-.83-1.583-1.256-2.368-.153-.281-.394-.386-.717-.272-.389.137-.783.258-1.174.39-.254.087-.308.248-.203.496.18.422.326.86.514 1.278.288.644.583 1.287.908 1.913.208.403.392.446.814.282q.33-.129.65-.28c.67-.315.77-.553.517-1.309m59.787-32.743c-.474-.27-.943-.548-1.423-.805-.29-.154-.497-.035-.62.256-.126.305-.244.614-.388.91-.41.849-.835 1.69-1.249 2.538-.065.135-.223.296.022.414.572.277 1.147.546 1.811.861a540 540 0 0 0 1.847-4.174M73.496 96.705c.304.048.608.091.91.145.232.041.322-.04.316-.278a42 42 0 0 1 0-1.627c.004-.196-.057-.302-.258-.347-1.165-.263-2.326-.538-3.491-.799-.358-.08-.474.023-.504.387-.03.363-.019.738-.109 1.087-.095.368.034.57.342.702.27.117.544.239.828.308.63.155 1.27.279 1.966.422m27.318-47.398.079-1.259c-.645.218-1.222.42-1.804.606-.307.098-.462.282-.493.606-.086.903-.19 1.805-.285 2.707-.027.265-.042.53-.068.858.699-.05 1.343-.113 1.988-.137.303-.011.407-.124.42-.419.041-.965.105-1.93.163-2.962M43.725 95.21c-.283-.363-.553-.737-.856-1.081-.09-.103-.31-.206-.413-.165-.673.262-1.331.564-2.035.87.564.789 1.057 1.494 1.57 2.184.251.34.52.673.816.975.287.291.54.289.841.014.279-.253.53-.538.784-.816.256-.28.278-.595.066-.906-.238-.352-.495-.69-.773-1.075M26.212 65.9c-.186.832-.1 1.067.496 1.351.634.303 1.038.229 1.366-.4.534-1.023.997-2.084 1.48-3.133.029-.062.003-.207-.045-.236-.56-.344-1.128-.674-1.768-1.05a880 880 0 0 0-1.529 3.469m73.843 9.776-.798-.89c-.13.102-.18.133-.22.174-.593.608-1.206 1.199-1.773 1.831-.93 1.037-.894 1.358.164 2.278.347.302.446.324.783.011.786-.73 1.552-1.484 2.324-2.23.114-.11.218-.23.353-.373zm-17.26 9.506c.184.008.378.057.551.017.897-.207 1.797-.412 2.68-.667 1.165-.337 1.242-.559.67-1.632-.354-.666-.586-.784-1.317-.575-.851.244-1.689.535-2.539.786-.354.104-.49.334-.427.662.09.46.228.91.382 1.409M30.877 45.178l-.632.442c.443.424.84.808 1.244 1.187.233.219.472.195.74.033 1.027-.625 2.063-1.236 3.095-1.853.095-.057.183-.125.32-.22-.483-.474-.931-.907-1.37-1.348-.204-.204-.39-.2-.626-.045-.904.6-1.818 1.185-2.77 1.804m5.697 37.39c.084.392.156.786.254 1.173.066.258.244.41.526.36.453-.081.903-.178 1.355-.265.212-.042.292-.168.276-.379-.03-.4-.03-.801-.078-1.198a24 24 0 0 0-.27-1.852c-.103-.524-.32-.669-.849-.643-.33.016-.66.053-.987.097-.467.062-.578.183-.523.654.078.666.191 1.328.296 2.054M87.792 41.3c.12.861.215 1.727.369 2.582.095.531.325.69.858.712.377.015.755.004 1.133-.004.3-.007.424-.17.38-.464q-.088-.575-.179-1.15c-.114-.733-.21-1.468-.35-2.196-.111-.575-.343-.696-.915-.535-.272.077-.536.183-.804.272-.35.115-.52.35-.492.783m3.61 41.48c.832-.345.858-.417.435-1.206l-.086-.154c-.518-.905-.532-.944-1.522-.588-.942.34-1.85.768-2.772 1.163-.272.117-.328.319-.177.572.126.213.245.432.39.631.448.616.632.685 1.35.444.783-.264 1.556-.558 2.383-.862M25.266 68.556c-.19.899-.422 1.792-.557 2.699-.096.643.132.889.76 1.079q.153.044.31.08c.536.124.716.052.872-.482.263-.905.515-1.816.71-2.737.18-.852.017-1.071-.804-1.352-.964-.33-.964-.33-1.291.713m69.544-2.433c.474-.773.97-1.533 1.416-2.322.367-.65.341-.665-.34-1.013-.137-.07-.273-.143-.413-.204-.587-.258-.935-.21-1.29.329-.503.766-.96 1.567-1.384 2.38-.283.54-.178.754.356 1.063q.108.061.218.118c.792.406.86.39 1.437-.351m-9.66 21.56c.882-.26 1.773-.497 2.641-.797.202-.07.433-.343.468-.552.11-.657-.515-1.348-1.177-1.298-1.228.092-2.37.52-3.493.998-.214.092-.304.282-.255.527.182.918.64 1.256 1.579 1.158a3 3 0 0 0 .237-.037m.096-53.553c.161.247.308.505.49.735.083.104.257.233.356.21a21 21 0 0 0 1.726-.489c.076-.025.17-.256.132-.323a189 189 0 0 0-1.846-3.173c-.123-.208-.324-.248-.518-.11-.441.312-.874.637-1.302.966-.239.183-.249.407-.081.651.34.496.677.994 1.043 1.533m12.358 29.446c-.296-.072-.486-.01-.58.327-.067.243-.222.468-.363.685q-.77 1.19-1.564 2.362c-.179.264-.139.482.102.638.365.237.752.444 1.14.644.058.03.213-.02.255-.08.788-1.133 1.566-2.274 2.346-3.413.168-.246.113-.465-.134-.598-.372-.2-.762-.368-1.202-.565m-27.298-35.66q-.817-.491-1.639-.976c-.213-.125-.413-.101-.556.113-.286.43-.57.862-.842 1.301-.142.23-.113.436.127.611.751.55 1.492 1.115 2.246 1.66.065.048.243.04.297-.013.56-.553 1.106-1.12 1.683-1.712-.448-.336-.86-.646-1.316-.984M37.534 43.958l2.359-1.03c-.366-.576-.708-1.108-1.043-1.644-.189-.302-.411-.367-.74-.196-.89.464-1.793.904-2.689 1.357-.175.088-.344.188-.548.3.16.224.292.416.43.603.797 1.08.933 1.12 2.231.61m27.739-8.204c.06-.154.13-.304.177-.462.129-.428.097-.54-.318-.715-.944-.402-1.901-.774-2.849-1.168-.294-.122-.473-.037-.58.247-.172.462-.35.922-.517 1.387-.093.262-.018.444.265.55.741.276 1.47.585 2.213.855 1.046.38 1.078.359 1.609-.694m29.912 25.714c-.106.174-.038.287.132.362.27.118.536.246.811.352.645.251.916.172 1.26-.436a23 23 0 0 0 .965-1.887c.177-.392.288-.819.385-1.24.063-.269-.072-.446-.383-.464-.21-.012-.42-.06-.628-.103-.682-.14-.834-.102-1.16.533-.478.932-.91 1.888-1.382 2.883M47.083 98.66l-1.41-1.125c-.206-.163-.435-.167-.614.009q-.563.556-1.08 1.154c-.168.195-.147.43.059.6q1.174.96 2.363 1.905c.238.189.47.143.64-.104.314-.456.623-.916.911-1.388.042-.069-.01-.25-.078-.321-.237-.246-.5-.466-.791-.73m50.242-42.208-.07.238c-.13.426-.076.56.35.67.34.09.694.14 1.045.183.39.047.71-.134.81-.493.26-.94.478-1.89.683-2.844.032-.145-.043-.387-.155-.475-.463-.363-1.023-.427-1.58-.325-.444.082-.486.51-.573.857-.178.708-.331 1.422-.51 2.19m-58.882 22.21c-.095-1.08-.197-2.16-.282-3.24-.02-.261-.126-.341-.378-.328-.377.019-.757.001-1.135.012-.543.016-.732.191-.711.74.024.624.09 1.246.156 1.867.058.544.14 1.085.216 1.67.668-.141 1.281-.262 1.888-.408.096-.023.163-.163.246-.314m2.921-42.58c.923-.149 1.847-.284 2.767-.45.817-.147.963-.417.707-1.214q-.044-.135-.093-.267c-.261-.707-.564-.9-1.304-.713-.79.2-1.571.441-2.342.705-.927.318-.987.515-.54 1.398.157.312.342.572.805.54M28.997 62.439c.295.123.584.262.887.358.1.032.297-.009.347-.084q.977-1.475 1.913-2.977c.057-.09.051-.312-.016-.37-.455-.4-.934-.773-1.446-1.187-.725 1.126-1.413 2.168-2.07 3.229-.359.577-.29.728.385 1.03M63.96 25.322l-.795 1.716c1.023.422 1.98.822 2.942 1.205.078.03.24-.018.294-.084.366-.446.712-.909 1.068-1.363q.3-.38-.13-.59c-.838-.405-1.67-.824-2.518-1.204-.48-.214-.524-.174-.861.32M29.965 64.671c-.164.34-.344.673-.488 1.022-.244.587-.495 1.174-.685 1.779-.146.468.044.706.53.804.76.153 1.136.017 1.535-.692.467-.833.87-1.7 1.308-2.55.094-.183.056-.315-.114-.416-.244-.144-.48-.305-.736-.425-1.02-.477-.77-.576-1.35.478M51.34 91.799c-.24-.245-.485-.485-.718-.735q-.242-.26-.49-.023c-.34.327-.665.67-1.017.984-.219.194-.2.341-.029.558.69.87 1.364 1.751 2.042 2.63.056.071.1.152.162.25.537-.537 1.006-1.019 1.49-1.484.177-.17.174-.288.015-.469-.484-.55-.95-1.114-1.455-1.711m37.077-43.282c.08.456.289.82.794.861.336.028.687.01 1.018-.053.452-.087.575-.227.539-.686a71 71 0 0 0-.323-3.055c-.01-.087-.176-.226-.266-.222a20 20 0 0 0-1.624.13c-.093.012-.242.164-.24.25.014.905.054 1.81.102 2.775m-60.8 22.529-.354 1.734c.44.09.85.183 1.264.256.652.116.831.006.991-.628.22-.866.42-1.738.636-2.606.085-.341-.029-.582-.35-.71a18 18 0 0 0-1.03-.374c-.485-.16-.523-.153-.666.352-.18.634-.322 1.277-.49 1.976m23.308-37.322c.044.564.077 1.13.143 1.69.013.113.138.286.235.304 1.115.202 2.235.383 3.355.555.085.013.246-.063.27-.133q.224-.632.393-1.28c.067-.252-.026-.43-.307-.495a531 531 0 0 1-3.859-.92c-.214-.051-.249.047-.23.28m-15.027 50.57c.022-.28.081-.562.058-.837-.06-.728-.169-1.45-.234-2.178-.094-1.061-.173-1.14-1.249-1.097l-.106.007c-.508.035-.73.202-.696.694.079 1.102.212 2.2.347 3.296a.68.68 0 0 0 .276.426c.343.23 1.3.05 1.604-.311m55.07-.683c-.787.285-1.573.574-2.363.851-.249.088-.321.238-.194.456q.356.609.742 1.198c.162.248.39.299.68.208a9.9 9.9 0 0 0 2.946-1.507c.39-.288.409-.432.206-.912-.202-.478-.47-.685-.873-.607-.368.07-.727.196-1.144.313M61.99 26.722c.18-.045.465-.035.52-.144.264-.511.474-1.052.683-1.59.088-.224-.006-.388-.254-.448-1.06-.26-2.127-.45-3.225-.435-.273.004-.413.128-.474.377-.108.447-.21.895-.332 1.338-.076.277.03.377.296.42.91.149 1.816.315 2.786.482m4.347 65.643c-.2-.086-.292.02-.322.196-.062.36-.115.72-.168 1.082-.067.458.121.775.544.96.423.183.84.38 1.267.55a10 10 0 0 0 1.17.406c.509.13.726-.02.845-.53.073-.31.099-.63.182-.936.088-.323-.001-.523-.317-.63-1.05-.36-2.098-.721-3.2-1.098m9.407 1.737c1.145.138 2.287.31 3.436.406.937.078.97-.014.802-.958-.107-.598-.408-.95-1.027-1.033-.538-.071-1.071-.173-1.607-.26l-1.826-.29c.068.729.131 1.404.222 2.135m-32.93-54.456c-.232-.01-.485-.083-.692-.016q-1.16.374-2.288.835c-.374.153-.436.386-.229.745.217.376.485.722.73 1.082.15.219.373.325.615.245a82 82 0 0 0 2.696-.948c.082-.03.183-.223.157-.3-.21-.597-.4-1.212-.99-1.643m5.413 61.006c-.154.251-.305.504-.465.751-.171.264-.143.438.176.567a34 34 0 0 1 1.617.718c.635.299 1.261.616 1.933.945.038-.123.104-.305.147-.492.072-.309.115-.625.194-.932.146-.566.114-.718-.405-1.013a24 24 0 0 0-1.796-.918c-.9-.413-.71-.538-1.4.374m42.545-61.656c.47.155.91.006 1.338-.162.069-.027.125-.214.107-.311-.071-.37-.176-.733-.267-1.099-.257-1.044-.637-2.063-.659-3.208-.557.147-1.1.299-1.647.43-.331.08-.411.258-.31.568.349 1.063.68 2.132 1.038 3.191.069.203.233.375.4.591m-10.47 47.723c-.333.12-.67.231-1 .36-.956.375-.969.105-.592 1.233.27.808.579.984 1.423.782a26 26 0 0 0 2.01-.573c1.04-.338 1.098-.533.532-1.482-.254-.425-.61-.67-1.11-.599-.408.057-.806.172-1.262.28M61.867 98.421c.077-.367-.076-.654-.352-.867-.494-.382-.988-.769-1.513-1.106-1.002-.643-1.322-.568-2.038.4q-.022.026-.043.056c-.25.362-.257.46.106.726 1.038.757 2.091 1.494 3.14 2.237.024.016.065.008.142.016.182-.464.366-.933.558-1.462M36.681 87.72c-.148-.594-.279-1.193-.448-1.78-.22-.759-.413-.861-1.186-.696-.092.02-.182.05-.271.08-.325.108-.492.318-.419.67.189.909.352 1.825.58 2.725.303 1.198.37 1.256 1.719 1.052.283-.043.378-.19.323-.466-.1-.508-.189-1.018-.298-1.585m56.477-43.645c-.034-.304-.06-.609-.104-.912q-.195-1.344-.408-2.686c-.047-.299-.199-.56-.521-.594a8 8 0 0 0-1.198-.014c-.22.012-.328.154-.259.398q.08.29.115.588c.126 1.016.256 2.032.36 3.05.034.322.149.452.484.43.412-.026.827.007 1.24-.015.102-.005.199-.12.29-.245M24.19 52.327c-.134.249-.28.492-.401.747-.264.559-.19.787.332 1.116q.105.066.212.129c.61.358.765.35 1.16-.238.56-.83 1.077-1.69 1.597-2.546.048-.079.035-.262-.026-.327-.335-.364-.694-.706-1.043-1.057-.2-.203-.357-.17-.505.067-.429.69-.865 1.377-1.326 2.109m36.634 49.909c-.083.231-.481.481-.044.698 1.026.507 2.071.972 3.11 1.454.206.096.378.034.481-.158a40 40 0 0 0 .622-1.225c.13-.264.044-.435-.23-.556q-1.409-.624-2.807-1.272c-.188-.086-.301-.043-.416.116-.221.306-.457.601-.716.943m41.122-48.295q-.189-.044-.378-.093c-.313-.083-.5.039-.583.345l-.875 3.238c-.076.285-.002.513.268.658.24.128.475.265.722.378.58.265.808.192.964-.424.24-.946.436-1.904.606-2.864.125-.704-.013-.9-.724-1.238m-17.27 39.127c-.222-.534-.592-.784-1.197-.681-.405.069-.823.07-1.235.102l-1.748.137c.068.585.141 1.12.188 1.657.02.232.121.299.337.295.72-.012 1.442 0 2.162-.022.423-.012.85-.042 1.267-.114.465-.08.592-.318.462-.764-.056-.192-.142-.374-.235-.61m17.914-24.349c-.092.317-.193.631-.272.95-.09.36.009.665.349.842.322.168.652.332.996.445.406.133.543.068.679-.327.215-.622.428-1.249.577-1.889.294-1.261.389-1.598-1.341-2.033q-.052-.01-.105-.018c-.279-.047-.449.071-.445.352.007.583-.177 1.11-.438 1.678M25.407 73.09l-1.08-.26c0 .264-.005.472.002.681.035 1.154.086 2.307.101 3.46.006.39.137.573.533.612.351.035.696.128 1.043.203.197.042.291-.023.288-.23-.02-1.176-.052-2.353-.052-3.53 0-.55-.227-.86-.835-.936M100.4 46.51c-.215-.794-.424-1.59-.65-2.38-.056-.196-.169-.387-.43-.312-.407.117-.813.24-1.212.379-.224.078-.334.25-.287.499q.267 1.421.53 2.843c.054.288.235.397.51.363.515-.063 1.03-.124 1.541-.215.078-.014.186-.195.177-.29-.027-.279-.105-.553-.179-.887M57.517 26.228c.214-.128.55-.209.62-.392.218-.56.334-1.16.502-1.788-.535 0-.982-.017-1.427.004-.708.033-1.417.066-2.12.15-.54.063-.738.322-.756.853-.01.294.01.59-.007.884-.013.244.08.336.325.331.934-.018 1.867-.024 2.863-.042M38.24 92.182c-.174-.335-.34-.673-.523-1.003-.488-.883-.49-.882-1.456-.636-.54.137-.649.289-.427.8.422.971.857 1.94 1.346 2.879.387.744.745.833 1.554.578.304-.095.444-.245.316-.567-.263-.667-.524-1.335-.81-2.05m-7.188-28.9c.416.217.83.438 1.249.651.248.127.433.067.6-.17.585-.829 1.187-1.644 1.78-2.465.04-.054.059-.12.1-.208-.469-.36-.931-.704-1.38-1.065-.247-.197-.422-.14-.58.1-.583.886-1.173 1.766-1.742 2.66-.075.117-.043.302-.027.496m58.555 32.582c.128-.062.258-.118.382-.185.414-.225.487-.386.344-.831-.083-.257-.197-.504-.296-.755-.11-.278-.29-.364-.586-.265-.76.254-1.53.48-2.29.734-.267.089-.52.22-.772.349-.204.104-.26.277-.206.506.06.25.108.507.124.763.038.597.142.725.71.561.858-.246 1.695-.566 2.59-.877m-53.933-62.27c-.195.152-.406.288-.584.458-.372.356-.373.626-.04 1.128.323.489.506.584.99.352a28 28 0 0 0 2.284-1.203c.73-.437.873-.981.58-1.788-.102-.28-.293-.397-.579-.314a3.2 3.2 0 0 0-.627.238c-.666.358-1.322.732-2.024 1.13m46.483-5.859c-.28.393-.569.781-.835 1.183-.057.085-.093.278-.044.326a56 56 0 0 0 2.084 1.957c.108.096.409.105.537.024a7 7 0 0 0 1.053-.822c.307-.29.315-.449.004-.746-.612-.586-1.257-1.138-1.892-1.7-.208-.184-.426-.357-.651-.545-.096.12-.162.2-.256.323m-25.4 68.802.28.235 1.575-1.368c-.283-.261-.52-.491-.767-.709-.576-.506-1.15-1.016-1.74-1.506-.275-.228-.62-.362-.955-.161-.387.232-.736.527-1.05.756zm12.862-72.24c-1.202-.544-2.403-1.09-3.609-1.626-.08-.035-.237-.029-.29.025-.415.422-.815.86-1.203 1.275.074.106.083.134.101.143 1.12.53 2.237 1.06 3.361 1.579.07.032.213-.01.275-.067.461-.42.91-.854 1.365-1.329m27.96 56.415c-.097-.219-.228-.09-.343-.027-.852.462-1.708.916-2.55 1.397-.345.198-.68.43-.979.694-.35.308-.328.62.005 1.099.302.435.455.509.912.254a55 55 0 0 0 2.833-1.677c.618-.395.637-.59.33-1.272zM76.74 38.918c.442.654.89 1.305 1.325 1.963.136.205.292.374.546.278.461-.175.92-.364 1.36-.588.27-.138.387-.416.217-.693-.527-.858-1.08-1.7-1.635-2.57l-2.046 1.244c.09.145.146.234.232.366m-44.1 10.988c.393-.365.394-.366.024-.751-.205-.212-.419-.416-.618-.633-.229-.247-.45-.254-.702-.03-.765.684-1.55 1.348-2.3 2.046-.613.57-.59.658.102 1.16.682.495.882.499 1.52-.046.655-.56 1.291-1.141 1.974-1.746m13.968 38.438c-.066.128-.223.313-.184.374a97 97 0 0 0 1.666 2.5c.136.198.35.22.534.095.52-.356 1.025-.732 1.547-1.11-.214-.307-.367-.544-.537-.77-.404-.536-.797-1.083-1.232-1.593-.285-.333-.542-.35-.916-.121-.291.178-.56.394-.878.625M38.14 74.159c-.005-1.078.003-2.156-.035-3.233-.005-.116-.267-.292-.428-.316-.275-.04-.565.007-.846.035-.539.055-.805.253-.83.786-.041.88-.003 1.763.008 2.644.003.217.162.274.346.26.576-.047 1.152-.1 1.785-.176m67.382-10.134c-.027-.34-.023-.685-.093-1.016-.034-.159-.186-.388-.319-.415-.58-.117-1.172-.172-1.808-.257 0 .9-.009 1.71.003 2.52.016 1.173.086 1.25 1.23 1.505.469.104.642.025.734-.453.116-.598.171-1.208.253-1.884m-14.69 6.185.513.596c.068-.064.116-.097.15-.141.555-.748 1.126-1.485 1.66-2.248.52-.743.462-.998-.26-1.555l-.057-.043c-.568-.419-.82-.41-1.252.14-.48.613-.907 1.266-1.381 1.883-.192.249-.222.428.019.658.212.202.385.446.608.71M36.021 47.688c.267-.152.541-.294.798-.462.075-.05.166-.21.139-.258-.247-.44-.495-.884-.797-1.286-.087-.115-.391-.189-.524-.127a11 11 0 0 0-3.016 2.09c-.07.066-.103.252-.06.336.278.548 1.159.88 1.718.62.579-.267 1.131-.591 1.742-.913M29.122 74.1c-.114-.126-.206-.31-.347-.365a4.6 4.6 0 0 0-.956-.25c-.368-.06-.519.065-.597.434a2 2 0 0 0-.042.42 539 539 0 0 0-.018 3.216c0 .1.028.198.049.334.57-.111 1.104-.202 1.63-.33.094-.023.205-.19.218-.3.049-.398.072-.799.079-1.199.01-.634 0-1.268-.016-1.96m4.254 4.374v1.199c.653-.127 1.228-.249 1.807-.346.272-.045.338-.184.32-.437-.056-.822-.09-1.645-.147-2.467-.069-.991-.292-1.148-1.256-.907-.5.125-.627.243-.66.771-.042.704-.044 1.41-.064 2.187m30.988 20.597c-.397-.182-.789-.376-1.192-.543-.271-.112-.54-.065-.652.233-.152.406-.295.823-.361 1.248-.027.173.108.48.255.551.922.448 1.868.847 2.806 1.26.249.11.357-.024.383-.247.047-.397.088-.795.113-1.194.02-.335-.135-.596-.417-.77-.29-.18-.593-.341-.935-.538M43.917 39.138c.038.675.25 1.297.664 1.825.118.15.41.283.586.247.807-.165 1.604-.387 2.399-.61.077-.022.183-.222.155-.29-.223-.54-.448-1.085-.737-1.593-.086-.152-.398-.3-.566-.263-.829.18-1.644.421-2.5.684m-5.422 57.24c.628 1.045 1.5 1.945 1.895 3.144.355-.128.745-.229 1.098-.404.601-.3.666-.529.3-1.084a31 31 0 0 0-1.465-2.082c-.79-1.012-.498-.954-1.662-.352-.478.247-.471.26-.166.778M51.38 25.094c-.333.12-.669.232-.998.362-.751.296-.877.49-.869 1.299.005.491.115.605.597.509a72 72 0 0 0 2.591-.574c1.014-.243 1.105-.376 1.06-1.404-.025-.608-.235-.792-.836-.653-.504.117-.995.293-1.545.461m-22.307 53.2c-.452.047-.907.079-1.356.145-.488.071-.579.212-.489.696q.2 1.076.41 2.15c.145.748.306.874 1.072.854q.072-.002.142-.006c.752-.035.983-.286.869-1.027-.123-.801-.285-1.598-.44-2.394-.026-.134-.109-.256-.208-.418M79.006 98.27c-.233-.035-.466-.081-.7-.105-.857-.087-1.714-.185-2.573-.24-.44-.028-.62.152-.716.576-.034.149-.054.3-.077.452-.039.263.076.444.328.508.308.08.62.161.935.188.951.08 1.904.172 2.856.182.55.005.74-.279.74-.826 0-.46-.096-.554-.793-.735m-15.772-7.074c-.333-.08-.664-.17-1-.236-.276-.054-.463.065-.516.35-.05.266-.1.533-.127.802-.035.334.083.65.388.775.848.35 1.71.673 2.583.953.168.054.492-.076.61-.226.415-.526.211-1.473-.38-1.777-.481-.248-1.002-.419-1.558-.641M90.809 52.88q-.045-1.29-.093-2.578c-.005-.15.022-.325-.216-.322-.484.007-.969.003-1.453.021-.258.01-.438.165-.43.426.026.832.046 1.668.139 2.494.025.222.27.548.47.597.512.124 1.055.12 1.588.166 0-.317 0-.528-.004-.804m-66.731 2.06-.285-.143c-.538-.265-.662-.238-.856.342-.288.859-.56 1.726-.782 2.604-.213.845-.17.87.692 1.096.674.176.835.11 1.074-.538.276-.753.5-1.524.786-2.272.145-.38.052-.635-.258-.85-.107-.074-.217-.143-.371-.24m45.64-28.277c.476.348.942.713 1.432 1.042.813.546 1.34.527 2.148-.037.331-.232.358-.323.05-.593-.627-.554-1.251-1.12-1.928-1.609-.992-.717-.779-.846-1.947.048-.524.401-.512.485-.01.932.072.062.145.122.255.217m27.24 16.119q.135.228.272.455c.164.267.404.362.699.267.404-.13.807-.269 1.199-.432.075-.03.163-.222.133-.285-.43-.889-.84-1.791-1.34-2.64-.294-.498-.711-.509-1.305-.2-.484.253-.638.568-.435 1.115.212.572.498 1.117.777 1.72M32.85 38.22c.523-.544 1.066-1.07 1.557-1.642.149-.172.26-.495.204-.7-.108-.396-.346-.758-.543-1.16-1.088.799-2.064 1.63-2.85 2.659-.104.135-.195.376-.145.516.172.478.41.933.663 1.485.41-.427.744-.775 1.114-1.158m42.654-13.722c-.14-.026-.278-.067-.418-.075-.505-.028-1.014-.092-1.515-.052-.43.035-.556.31-.427.709.138.426.405.775.806.942.583.243 1.187.464 1.803.595 1.06.226 1.33.035 1.668-.991.14-.427.063-.61-.381-.743-.486-.145-.984-.248-1.536-.385m11.616 5.488c-.37.286-.448.449-.223.837.547.949 1.126 1.88 1.712 2.805a.77.77 0 0 0 .444.32c.507.097.982-.093 1.56-.224-.8-1.255-1.537-2.447-2.313-3.612-.363-.545-.462-.534-1.046-.213-.031.017-.06.037-.134.087M35.513 56.864l-2.13 2.286 1.837 1.462 2.12-2.682c-.454-.37-.861-.724-1.298-1.038-.115-.083-.32-.04-.53-.028m55.804-9.73c.035.482.077.963.103 1.444.014.285.126.503.42.516.338.015.684-.005 1.016-.064.31-.056.508-.277.476-.608a155 155 0 0 0-.34-3.156c-.008-.072-.129-.192-.19-.188-.573.035-1.143.094-1.731.147.084.657.16 1.252.246 1.91M30.947 84.01q-.379-.66-.759-1.317c-.109-.19-.247-.262-.468-.166-.39.17-.786.324-1.18.482-.192.077-.254.212-.161.393q.712 1.398 1.439 2.789c.096.183.261.22.454.13q.58-.265 1.16-.525c.202-.09.247-.228.152-.427-.207-.436-.409-.875-.636-1.36m50.9-41.814c-.294-.338-.59-.673-.88-1.015-.17-.2-.358-.254-.59-.119l-1.196.688c-.206.118-.245.276-.1.465a434 434 0 0 0 1.708 2.205c.145.186.34.224.534.095q.57-.382 1.123-.79c.206-.152.213-.353.074-.56-.211-.311-.427-.62-.673-.97m-43.27 2.013q-.748.325-1.495.654c-.167.074-.298.19-.195.384.253.478.514.953.797 1.414.043.072.241.116.332.081.672-.26 1.352-.512 1.997-.83.752-.372.895-.836.588-1.607-.173-.433-.483-.602-.933-.473-.352.1-.694.236-1.091.377m54.574-6.978c.38 1.14 1.258 1.845 2.212 2.47.11.073.349.063.468-.009.42-.25.813-.545 1.257-.851-.8-.81-1.538-1.57-2.29-2.317-.22-.218-.486-.407-.824-.252-.4.184-.813.367-.823.959m-45.71 49.58c-.01-.165.043-.376-.04-.487-.512-.69-1.052-1.359-1.587-2.031-.146-.183-.334-.185-.498-.037-.358.323-.713.651-1.044 1-.076.081-.116.298-.063.381.53.819 1.082 1.622 1.677 2.504a92 92 0 0 0 1.554-1.33m51.79-1.616c-.058-.088-.096-.215-.178-.256-.316-.158-.65-.28-.97-.433-.24-.115-.405-.06-.531.161l-1.223 2.151c-.127.225-.092.437.08.617q.546.579 1.11 1.139c.186.183.368.142.492-.08q.137-.248.233-.514c.328-.91.65-1.82.987-2.785m-20.821.698c.049.67.106.709.753.514l.068-.021c.805-.276 1.612-.546 2.414-.83.295-.104.428-.305.331-.637a6 6 0 0 1-.158-.797c-.066-.433-.159-.562-.598-.503a7.8 7.8 0 0 0-1.579.37c-1.2.428-1.267.56-1.231 1.904m-3.722 6.149c-.111-.064-.216-.16-.336-.188q-1.24-.282-2.49-.535c-.29-.06-.476.114-.572.366-.134.351-.235.714-.366 1.067-.087.236-.015.342.226.395.645.143 1.284.315 1.93.449.439.09.885.144 1.33.195.201.022.431.01.481-.249.096-.5.147-1.003-.203-1.5m17.105.54c-.297.193-.605.372-.886.585-.101.078-.218.26-.192.358.149.547.34 1.083.529 1.662.646-.422 1.218-.775 1.768-1.16.443-.31.859-.66 1.286-.992.207-.161.249-.367.14-.597-.195-.412-.4-.82-.62-1.271-.694.484-1.339.935-2.025 1.416M55.764 35.667c-.076.65.035.927.539 1.062.899.24 1.808.445 2.72.63.163.034.435-.043.53-.167.602-.781.47-1.25-.278-1.573-.152-.066-.303-.135-.46-.183a74 74 0 0 0-1.8-.523c-.905-.246-.971-.204-1.251.754m12.407 67.056c.417.081.834.167 1.254.241.297.052.455-.09.46-.385.006-.401.01-.802-.007-1.203-.012-.279-.14-.519-.431-.584a88 88 0 0 0-2.536-.524c-.25-.048-.396.079-.424.35-.029.28-.086.558-.138.836-.08.424-.013.633.387.801.444.186.917.306 1.435.468M42.448 87.067c-.185-.681-.354-1.366-.559-2.041-.22-.725-.297-.762-1.062-.7l-.14.016c-.64.09-.811.294-.671.922.171.768.379 1.529.593 2.287.207.734.343.804 1.089.65l.103-.026c.853-.192.853-.192.647-1.108m10.15 5.176c.193.206.374.426.583.615.32.29.568.319.931.085.365-.235.706-.507 1.103-.797-.61-.752-1.182-1.483-1.78-2.192-.446-.525-.462-.513-1.095-.196-.19.095-.38.19-.563.298-.428.255-.49.458-.206.861.312.443.66.86 1.026 1.326M95.163 70.09c.208-.286.421-.567.62-.858.195-.283.122-.517-.176-.67-.283-.144-.582-.26-.863-.406-.245-.128-.415-.07-.575.142-.53.706-1.073 1.403-1.604 2.109-.204.27-.389.553-.627.895.388.152.723.284 1.058.414.386.149.726.067.995-.239.388-.442.761-.898 1.172-1.387m-34.99-46.792c.91.194 1.82.395 2.733.58.393.078.752-.025 1.047-.305.221-.21.45-.418.648-.65.264-.31.205-.48-.184-.621-.066-.024-.134-.05-.203-.06-.979-.15-1.957-.308-2.938-.442-.355-.048-.684.05-.905.366q-.214.302-.415.614c-.144.227-.103.402.217.518M101.5 52.824c.207.408.594.622 1.048.532.388-.076.366-.446.38-.711a50 50 0 0 0 .055-2.678c-.002-.723-.332-1.228-1.055-1.45-.354-.108-.497-.054-.541.31a6.5 6.5 0 0 0-.056 1.022c.037.974.099 1.948.169 2.975m-9.537.68c.256-.046.51-.11.767-.133.472-.04.595-.115.614-.589.037-.942.036-1.885.056-2.828.004-.197-.08-.271-.276-.268-.461.008-.923.013-1.384-.002-.246-.008-.33.079-.327.325.014.907.008 1.816.017 2.724.002.175.032.352.06.526.04.239.156.369.473.244m-53.556-18.39c-.652.36-1.315.7-1.95 1.087-.43.261-.45.502-.151.908.181.247.361.5.574.718.08.081.279.138.374.096a31 31 0 0 0 2.08-.987c.983-.525 1-.661.342-1.553-.49-.665-.49-.665-1.27-.269M33.76 57.756l1.304-1.452c-.478-.386-.918-.738-1.355-1.094q-.337-.277-.61.06-.843 1.02-1.681 2.045c-.216.265-.168.519.105.693.423.27.866.508 1.306.762zm39.117 41.34c1.148.276 1.347.228 1.418-1.167.002-.046.009-.11-.017-.137-.12-.13-.234-.327-.382-.36a65 65 0 0 0-3.129-.622c-.24-.041-.55 0-.75.126-.202.124-.176.817.006 1.033.131.156.314.303.503.369.758.265 1.528.497 2.351.759m3.728-68.673c-.569-.614-1.114-1.251-1.712-1.835-.753-.736-.582-.82-1.628-.112-.343.233-.387.425-.096.722.848.866 1.724 1.706 2.592 2.553.161.157.339.16.55.057.829-.408.887-.626.294-1.385M39.336 80.32c.119.98.245 1.96.354 2.942.032.295.176.429.46.402.423-.04.846-.085 1.264-.153.072-.012.185-.16.176-.232a103 103 0 0 0-.433-2.895c-.02-.122-.12-.29-.223-.33-.522-.198-1.058-.361-1.672-.563.03.33.05.548.074.829m48.906 13.263c.277-.1.565-.178.826-.31.111-.055.246-.23.234-.335-.128-1.05-.574-1.548-1.545-1.362-.693.133-1.369.354-2.052.536-.246.065-.382.242-.315.472.113.39.256.774.433 1.138.117.239.359.326.637.262.575-.132 1.15-.258 1.782-.4M101.9 77.738c-.321-.449-.491-.504-.916-.146q-1.11.936-2.159 1.941c-.642.616-.656.86-.236 1.648.189.354.303.401.59.142a86 86 0 0 0 2.642-2.458c.445-.438.418-.53.079-1.127m-63.95-8.776c-.199-.75-.394-1.5-.598-2.248-.07-.255-.224-.354-.506-.282-.284.073-.582.092-.872.144-.529.094-.624.197-.545.737.082.558.199 1.111.33 1.66.246 1.036.454 1.162 1.516.982.713-.122.778-.21.675-.993m27.997-31.74c.752.243 1.498.51 2.26.716.19.051.488-.029.637-.16.251-.221.432-.525.624-.807.142-.208.115-.429-.122-.538a95 95 0 0 0-2.618-1.16c-.262-.11-.497.002-.625.255-.18.358-.344.723-.5 1.09-.127.297-.034.504.344.603m2.49 53.039c-.368-.126-.733-.263-1.106-.37-.1-.028-.294 0-.328.062q-.318.609-.58 1.245c-.092.221.002.396.24.461.998.275 1.991.57 2.999.805.456.107.636-.061.74-.532.04-.18.052-.373.042-.558-.019-.338-.18-.557-.536-.65-.478-.126-.945-.297-1.47-.463m1.04 13.933c.157-.441.154-.466-.306-.569a60 60 0 0 0-2.293-.479c-.96-.178-1.069-.116-1.532.745-.055.104-.096.215-.146.322-.129.28-.053.444.261.505.72.14 1.435.306 2.156.433 1.239.218 1.269.196 1.86-.957m-38.57-63.737c.473-.625.234-1.162-.197-1.686-.31-.375-.498-.409-.777-.02-.418.584-.826 1.18-1.164 1.811a7.4 7.4 0 0 0-.64 1.633c-.125.486.265.77.73.56.272-.124.553-.3.74-.527.456-.552.858-1.147 1.307-1.771m20.388 46.57c-.11-.123-.215-.251-.33-.369-.614-.622-1.062-.632-1.724-.069-.256.218-.347.468-.16.744.452.672.913 1.342 1.412 1.981.111.143.42.258.586.21.528-.151 1.032-.386 1.6-.61a668 668 0 0 0-1.384-1.887m9.297-56.661c-.707-.234-1.41-.481-2.123-.696a8 8 0 0 0-1.141-.24c-.272-.04-.41.126-.44.393-.064.587.122.94.705 1.155.842.312 1.699.586 2.551.87.378.125.761.233 1.139.348.328-.888.123-1.439-.69-1.83M43.795 44.608c.726-.365.782-.465.708-1.263-.015-.164-.035-.328-.046-.493-.023-.324-.213-.508-.515-.43-.867.226-1.726.487-2.584.748-.221.068-.32.267-.257.482.168.572.364 1.136.564 1.75.736-.271 1.41-.52 2.13-.794m35.976-18.765c-.331-.122-.656-.267-.996-.36-.292-.08-.562-.015-.728.285-.344.626-.274 1.145.315 1.546.612.417 1.273.764 1.92 1.126.08.045.266.043.313-.013.404-.48.788-.979 1.2-1.5zm-25.17 4.419 1.344.234c.255-.946-.095-1.54-.996-1.7-.93-.164-1.868-.29-2.8-.447-.912-.152-.992.01-.921.95.018.246.123.366.384.41.979.166 1.953.358 2.988.553m19.348 72.358c.292-.521.231-1.068.104-1.613-.016-.068-.155-.158-.231-.153-.99.062-1.98.14-2.97.211-.188.013-.273.099-.268.292.01.365-.003.73.012 1.095.016.417.14.551.562.56.59.013 1.185.034 1.77-.023.336-.033.657-.214 1.02-.369m-24.49-18.154c-.369-.415-.733-.832-1.106-1.243-.64-.706-.85-.714-1.573-.077-.297.261-.372.488-.151.807.569.82 1.174 1.617 1.78 2.445.395-.234.743-.43 1.08-.644.68-.428.678-.432.16-1.058zM47.836 38.12c-.148.02-.304.034-.186.252.28.518.536 1.05.85 1.547.102.163.364.34.534.324.778-.076 1.533-.274 2.208-.692.225-.139.296-.35.21-.613-.278-.866-.887-1.264-1.78-1.132-.595.088-1.187.2-1.836.313M89.16 57.457c.125.123.239.331.38.35.404.057.82.05 1.23.042.247-.005.347-.168.324-.41-.087-.911-.159-1.825-.271-2.734-.02-.16-.2-.418-.322-.428-.554-.047-1.115-.02-1.67-.02.11 1.06.216 2.1.329 3.2M24.685 79.124c.245.896.47 1.798.742 2.686.202.66.43.77 1.115.652.093-.016.184-.045.277-.06.238-.037.312-.165.259-.4-.191-.849-.419-1.693-.545-2.553-.114-.778-.582-1.062-1.276-1.146l-.035-.005c-.474-.074-.614.05-.584.52.005.083.023.164.047.306m70.281-2.903.936 1.023c.878-.98 1.686-1.87 2.468-2.78.075-.088.05-.36-.032-.463-.212-.264-.484-.48-.728-.72-.186-.181-.344-.15-.508.035q-1.099 1.252-2.209 2.494c-.14.156-.107.264.073.411m-20.774 11.56c.226.014.474.095.673.03.77-.257 1.53-.55 2.286-.849.501-.198.706-.598.678-1.123a8 8 0 0 0-.06-.597c-.041-.31-.21-.446-.515-.32-.707.292-1.433.55-2.104.909-.73.389-1.037 1.064-.958 1.95m3.092-55.836c-.583.193-.868.594-.606 1.014.592.948 1.25 1.855 1.904 2.764.072.1.306.165.435.131.529-.138.903-.828.637-1.286-.454-.78-.969-1.53-1.518-2.247-.16-.21-.527-.261-.852-.376M41.063 52.708q.338-.66.68-1.319c.075-.145.137-.277-.072-.375-.34-.161-.675-.337-1.015-.5-.264-.128-.5-.063-.645.18-.38.636-.766 1.27-1.095 1.933-.094.188-.096.54.022.692.337.439.758.814 1.186 1.255zm3.733 29.606c.189.178.37.365.572.527.079.063.23.129.302.095.546-.262 1.08-.548 1.546-.79-.632-.67-1.212-1.356-1.865-1.964-.768-.716-1.099-.662-1.77.142-.29.349-.294.52.033.852.372.377.763.736 1.182 1.138M35.49 52.391l-1.655 1.895 1.682 1.438c.59-.742 1.163-1.455 1.725-2.175.143-.182.126-.399-.047-.544a12 12 0 0 0-.957-.716c-.243-.166-.492-.146-.748.102m-6.894 1.632c.142-.217.295-.428.425-.651.364-.625.331-.75-.274-1.124a7 7 0 0 0-.37-.21c-.306-.164-.606-.122-.781.166a69 69 0 0 0-1.498 2.598c-.052.095-.001.358.073.393a7 7 0 0 0 1.147.423c.08.023.243-.117.317-.219.32-.437.623-.888.96-1.376m53.47 45.659c.223-.025.452-.027.669-.077.7-.16 1.404-.31 2.087-.526.218-.07.42-.306.548-.516.212-.348.094-.562-.309-.543a148 148 0 0 0-3.786.246c-.42.031-.656.291-.736.698q-.054.26-.11.519c-.042.212.037.314.262.296.436-.033.873-.062 1.375-.097m-42.61-20.647h1.652c-.195-1.155-.377-2.23-.557-3.306-.09-.53-.596-.644-1.05-.612s-.356.45-.431.738c-.006.022-.005.047-.006.07-.006.932-.006 1.863-.021 2.795-.005.259.116.333.413.315m52.896-21.44c.212-.011.426-.008.635-.036.49-.066.567-.134.549-.635a20 20 0 0 0-.15-2.007c-.14-1.006-.282-1.078-1.27-.8-.518.146-.73.376-.686.917.055.678.173 1.352.282 2.025.05.313.257.495.64.535m-55.43-2.567c-.206.243-.42.479-.61.733-.056.074-.092.246-.05.294.434.478.885.94 1.326 1.4.117-.081.163-.102.192-.135.425-.49.864-.968 1.266-1.476.496-.627.473-.96-.041-1.565-.367-.432-.755-.497-1.204-.138-.31.248-.567.563-.88.887m57.622 22.948c.67-.464.683-.666.085-1.235l-.052-.048c-.335-.303-.522-.333-.925-.12-.229.12-.44.275-.669.395-.633.33-1.274.647-1.906.98-.09.048-.19.155-.208.249-.133.691.52 1.288 1.157 1.015.843-.361 1.651-.8 2.518-1.236m-59.212-6.04c-.038-.173-.034-.371-.124-.51-.08-.122-.267-.258-.399-.25-.485.028-1.273.671-1.318 1.145-.073.78-.058 1.57-.063 2.357-.002.257.177.35.414.3q.467-.099.927-.23c.315-.09.518-.304.53-.633.026-.705.028-1.41.033-2.18m67.037 3.928c-.297.51-.391 1.002.071 1.485.309.323.402.351.639-.023.634-1.005 1.244-2.025 1.854-3.045a1.8 1.8 0 0 0 .178-.496c.077-.325-.154-.735-.506-.883-.325-.136-.411.184-.523.348-.579.845-1.129 1.709-1.713 2.614M26.681 56.243l-.188-.1c-.686-.342-.934-.265-1.22.449a28 28 0 0 0-.681 1.893c-.304.949-.204 1.097.77 1.279.408.075.626.004.762-.385q.441-1.265.792-2.558c.042-.154-.122-.365-.235-.578m18.446 46.346c.383-.027.668-.228.886-.523.102-.137.174-.332-.056-.409-.701-.235-1.17-.782-1.717-1.225-.367-.297-.73-.602-1.122-.862-.395-.261-.806-.215-1.195.06-.39.274-.44.447-.07.742a81 81 0 0 0 2.69 2.019c.147.106.35.133.584.198m-6.044-53.043c-.227-.1-.445-.242-.683-.288-.183-.035-.463-.02-.575.094-.577.586-1.114 1.21-1.711 1.872.513.402.983.77 1.455 1.137.256.2.48.168.644-.116.462-.804.918-1.61 1.391-2.444-.202-.1-.338-.166-.521-.255m-3.308-11.998c-.477-.445-.64-.515-.962-.212a41 41 0 0 0-2.002 2.042c-.202.218-.394.54-.164.833.22.28.56.178.86.093.113-.032.236-.06.33-.125.662-.449 1.355-.862 1.963-1.375.567-.478.526-.66-.025-1.257m65.067 33.043c-.226-.148-.45-.3-.677-.445-.315-.2-.585-.134-.804.154-.32.422-.658.834-.95 1.276-.583.88-.54 1.132.244 1.853l.052.049c.229.23.448.242.639-.042.5-.742 1.009-1.48 1.483-2.239.089-.141.033-.372.013-.606m-34.95-37.734c-.13-.163-.228-.395-.398-.477a57 57 0 0 0-2.739-1.225c-.122-.051-.374.014-.467.115-.457.502-.368 1.103.239 1.405.769.384 1.558.735 2.362 1.037.87.327 1.096.127 1.003-.855m-3.924 3.727c-.303-.104-.602-.215-.908-.304-.084-.024-.244-.011-.273.04-.26.456-.497.925-.77 1.447.949.277 1.835.522 2.713.796.636.2 1.077-.056 1.443-.537.268-.352.24-.497-.167-.662-.657-.267-1.323-.511-2.038-.78m-40.119 23.2c-.089.808-.19 1.614-.263 2.423-.053.577.225.961.759 1.186.449.19.614.154.713-.327.156-.76.3-1.53.349-2.3.058-.91.04-.955-.974-1.31-.282-.1-.49-.045-.584.328M64.152 88.94q-.22-.067-.442-.132c-.808-.224-.922-.17-1.274.603-.228.502-.154.738.372.93q.966.35 1.956.624c.665.184.834.098 1.204-.48.309-.484.24-.78-.294-1.007-.477-.202-.978-.348-1.522-.538m30.932 2.882.344.364c.626-.8 1.232-1.55 1.804-2.325.085-.115.09-.402.004-.511-.337-.43-.724-.822-1.125-1.263-.426.658-.799 1.231-1.17 1.806-.634.983-.633.99.143 1.93m-8.397-52.254c-.338-.94-.659-1.886-1.02-2.817-.149-.38-.274-.396-.559-.094-.342.364-.688.655-1.28.384.055.124.064.174.093.205.568.609.803 1.373 1.03 2.145.066.224.147.45.261.653.189.336.706.448 1.182.28.349-.123.35-.402.293-.756M71.86 33.735l-1.74-1.666c-.187-.18-.375-.173-.491.052-.172.332-.34.674-.436 1.031-.04.149.06.399.181.516.5.486 1.026.943 1.551 1.401.661.578.787.568 1.4-.06l.05-.05c.183-.176.201-.374.049-.57-.166-.214-.352-.412-.564-.654m-23.483-5.493c-.78.017-1.562.023-2.343.056a2.5 2.5 0 0 0-.724.148c-.298.105-.368.392-.287.643.045.141.265.27.43.317.211.06.447.045.671.037 1.36-.05 2.72-.102 4.08-.168.144-.007.41-.133.405-.166a1.7 1.7 0 0 0-.223-.601c-.056-.087-.227-.128-.35-.14-.53-.051-1.061-.085-1.659-.126m56.732 31.711c-.233-.703-.457-1.409-.706-2.106-.05-.14-.194-.247-.294-.369-.109.114-.262.209-.319.344a6.2 6.2 0 0 0-.428 3.248c.02.15.184.367.321.402.36.094.742.134 1.116.141.318.006.511-.2.484-.525-.031-.361-.104-.72-.174-1.135M90.793 75.1c.92-.678 1.563-1.596 2.197-2.52.03-.044.033-.106.064-.218-.35-.084-.68-.16-1.007-.243-.432-.11-.813.004-1.099.324-.4.447-.78.916-1.138 1.397-.176.235-.334.54-.099.813.26.302.564.587 1.082.447m-8.072-30.73-1.187.955c.425.502.805.966 1.2 1.417.627.716.72.73 1.556.298.094-.048.183-.11.28-.149.265-.105.293-.275.156-.5-.384-.634-.753-1.277-1.156-1.9-.317-.491-.335-.48-.85-.121M45.547 93.61c-.304-.448-.6-.902-.92-1.337-.064-.087-.296-.175-.332-.14a13 13 0 0 0-.95 1.03c-.053.062-.033.249.024.328q.837 1.178 1.703 2.333c.127.17.29.157.454.001.455-.43.598-1.08.337-1.645-.084-.181-.19-.352-.316-.57M27.581 46.92c.27-.263.553-.516.81-.792.225-.24.446-.49.626-.764.188-.286.102-.728-.164-.935-.293-.229-.497.025-.667.194q-1.272 1.257-2.508 2.55c-.166.173-.325.406-.364.632-.035.2.062.457.183.633.038.056.384-.013.512-.119.528-.434 1.026-.905 1.572-1.398m58.156-3.647c.111.408.196.825.342 1.22.136.367.457.465.959.382.37-.06.388-.352.385-.618a12 12 0 0 0-.091-1.443 7.7 7.7 0 0 0-.282-1.341c-.128-.4-.398-.474-.94-.362-.481.1-.63.235-.594.674.037.479.138.953.22 1.488M64.7 30.389l.739.337c.165-.54.328-1.041.47-1.547.058-.208-.025-.336-.257-.417-.726-.252-1.44-.538-2.16-.809-.194-.073-.39-.14-.609-.22-.074.266-.14.491-.2.718-.188.716-.11.891.567 1.23.465.234.935.456 1.45.708M45.677 44c.585-.187 1.179-.351 1.75-.571.19-.073.427-.27.462-.444.095-.49.106-.997.123-1.498.002-.064-.178-.206-.244-.19q-1.1.276-2.19.595c-.272.08-.4.308-.38.576q.053.67.17 1.33c.015.083.165.141.31.202M33.3 88.333c-.21-.603-.414-1.206-.904-1.659-.238-.22-.52-.325-.813-.208-.455.18-.889.414-1.422.668.796.802 1.521 1.538 2.256 2.265.106.105.252.178.391.238.411.177.73-.051.673-.49-.032-.256-.11-.506-.18-.814m56.193 2.976c.017.492.324.828.66 1.123.1.087.373.106.485.032.717-.471 1.418-.97 2.108-1.482.09-.068.156-.306.107-.396-.202-.37-.491-.672-.936-.743-.66-.105-2.136.726-2.404 1.34-.009.02-.01.045-.02.126m4.771-49.35c-.039.893.137 1.734.645 2.483.316.467.668.542 1.156.265.143-.08.274-.183.407-.28.221-.163.29-.39.162-.623a56 56 0 0 0-1.26-2.2c-.139-.227-.365-.425-.681-.338-.31.086-.39.348-.429.693m-28.22 54.88c.883.295 1.762.606 2.655.87.154.046.445-.052.537-.18.258-.358.109-.993-.298-1.16-1.043-.43-2.11-.801-3.156-1.191-.459.87-.389 1.297.261 1.66m23.342-23.653c.391-.458.764-.932 1.18-1.367.276-.288.272-.499.014-.794-.354-.405-.661-.85-1.056-1.365-.426.725-.796 1.364-1.174 1.998-.296.497-.27.971.029 1.465.392.647.45.662 1.007.063M86.68 29.353c.698-.324.745-.517.163-1.012-.708-.602-1.451-1.165-2.184-1.74a1.7 1.7 0 0 0-.365-.213c-.279-.12-.728.001-.89.25-.173.263.029.462.18.62a89 89 0 0 0 1.94 1.957c.321.315.697.378 1.156.138m13.972 37.575c-.2.662-.421 1.319-.592 1.988-.078.306.042.583.371.717.387.159.768.136.948-.108a5.4 5.4 0 0 0 1.053-2.659.5.5 0 0 0-.201-.399c-.523-.32-1.259-.11-1.579.46m-26.698 36.8c-.906-.031-1.814-.105-2.719-.081-.796.021-1.06.284-1.284 1.03-.107.355-.022.543.353.562 1.092.054 2.184.008 3.183-.492.257-.129.434-.436.615-.685.04-.055-.059-.209-.148-.334M31.76 72.618c.054-.104.136-.202.159-.312q.282-1.366.536-2.738c.017-.096-.028-.248-.1-.31-.296-.252-1.21-.092-1.317.269a47 47 0 0 0-.754 2.934c-.063.278.114.503.432.454.341-.053.673-.168 1.044-.297m70.304-24.784c.593.164.722.064.612-.54a51 51 0 0 0-.522-2.561c-.181-.768-.467-.95-1.265-.936-.28.005-.384.098-.318.389.204.896.409 1.792.577 2.695.095.513.337.841.916.953M88.637 79.17c-.065.029-.128.063-.195.086-.569.197-1.146.375-1.706.594-.347.136-.437.4-.342.791.08.333.307.46.632.433.164-.013.335-.02.49-.07a79 79 0 0 0 2.116-.71c.266-.094.523-.22.774-.35.229-.117.269-.296.145-.532-.304-.584-.832-.775-1.427-.497-.15.07-.293.154-.487.255M57.423 21.84c-.52.1-1.053.159-1.56.306-.648.187-.986.717-1.312 1.36l3.838-.419c.507-.055.838-.335 1.054-.785.18-.375.126-.509-.287-.512-.555-.005-1.111.029-1.733.05M42.468 92.21c.124.073.254.215.373.207.452-.03 1.045-.801.892-1.221a19 19 0 0 0-.936-2.127c-.184-.359-.637-.395-1.112-.196-.371.156-.318.468-.264.754a6.8 6.8 0 0 0 1.047 2.583m47.46-31.164c.026.103.044.209.078.309.09.265.146.64.474.626.3-.011.63-.173.876-.36.145-.11.229-.406.209-.605a20 20 0 0 0-.298-1.914c-.087-.438-.317-.604-.772-.637a5 5 0 0 0-.532-.005c-.427.017-.53.138-.45.553.129.66.27 1.317.416 2.033m-7.005-27.883c-.164.135-.33.267-.491.405-.202.172-.229.362-.08.591q.692 1.066 1.373 2.14c.13.206.292.278.501.13.308-.218.615-.44.907-.678.053-.043.077-.201.04-.263-.438-.74-.871-1.483-1.345-2.2-.266-.401-.441-.404-.905-.125M30.558 77.087l.232-.088c.734-.272.864-.444.875-1.222.008-.519.016-1.04-.015-1.556-.05-.818-.089-.836-.887-.65-.575.132-.732.273-.757.855-.037.86-.026 1.722-.032 2.583 0 .076.023.152.041.262zM81.187 39.58c.14-.175.272-.358.423-.523.294-.322.326-.67.12-1.041-.316-.567-.617-1.143-.96-1.694-.492-.789-.56-.779-1.182-.095-.291.32-.377.65-.15 1.027.472.79.954 1.575 1.428 2.364.105.176.194.124.32-.038M58.89 89.924l-.45-.095c-.324-.069-.51.07-.618.374-.22.625-.1 1.068.5 1.365.46.228.964.383 1.463.515 1.012.269 1.113.174 1.152-.87.014-.394-.137-.667-.508-.795-.49-.169-.987-.32-1.539-.494M30.2 79.788c.086.366.15.74.264 1.097.134.416.34.47.731.263.474-.25.738-.618.683-1.167-.068-.679-.128-1.36-.228-2.034-.079-.531-.254-.603-.756-.377-.14.063-.277.133-.416.197-.314.146-.47.392-.437.735.04.41.098.817.159 1.286m24.47 22.352c-.175-.071-.347-.149-.525-.211-1.06-.372-1.367-.232-1.79.81-.207.511-.12.749.423.841.788.134 1.587.219 2.385.282.524.041.696-.23.531-.74-.158-.488-.532-.76-1.024-.982m40.354-45.835c-.044.3.09.47.381.535q.278.062.55.138.4.113.51-.283.406-1.447.81-2.896c.06-.212-.038-.337-.238-.402-.605-.195-1.189.04-1.387.635-.242.725-.414 1.473-.626 2.273M62.101 28.067c.09-.316.036-.573-.32-.666a7.8 7.8 0 0 0-2.774-.236c-.136.014-.342.15-.369.265-.138.588-.071.973.498 1.135.556.158 1.117.312 1.687.404 1.11.18.958.317 1.278-.902m26.603 60.291c.039-.209.162-.457.088-.614-.056-.12-.358-.14-.556-.173-.111-.018-.236.018-.349.05-.34.095-.675.214-1.02.297-.767.184-1.54.344-2.306.531-.188.046-.471.12-.52.25-.152.416.454 1.03.888.924.919-.223 1.839-.443 2.744-.713.352-.104.665-.337 1.031-.552M68.921 32.021c.195-.248.351-.53.063-.783a46 46 0 0 0-1.8-1.478c-.186-.147-.404-.104-.523.095-.265.44-.505.896-.744 1.351-.032.061-.005.153-.005.241.692.037 1.187.427 1.691.795.73.531.728.534 1.318-.22M40.298 71.58c-.008-.428-.236-.665-.644-.759-.149-.034-.29-.097-.439-.136-.357-.095-.48-.026-.452.343.062.82.14 1.639.266 2.45.042.273.186.6.393.76.223.174.593.285.866.238.319-.056.255-.44.236-.696-.054-.715-.14-1.427-.226-2.2m23.39 24.416c.225.07.446.157.676.205.214.044.36-.052.41-.282.12-.554-.022-.957-.521-1.232-.484-.266-.994-.49-1.503-.707-.379-.16-.77-.294-1.165-.414-.275-.084-.416.052-.446.338-.05.466.081.852.507 1.076.656.346 1.327.664 2.042 1.016m26.226-20.34c-.204-.141-.41-.279-.61-.422-.252-.181-.468-.142-.63.114-.47.746-.942 1.49-1.39 2.25-.075.13-.104.383-.028.478.08.098.324.127.477.093.945-.209 1.704-.734 2.322-1.462.39-.461.364-.611-.141-1.052m7.762-24.037c.072-.668.161-1.334.209-2.003.027-.383-.131-.502-.518-.486-.454.017-.808.24-.9.667-.185.86-.308 1.733-.434 2.604-.038.255.134.374.39.396.838.074 1.047-.079 1.206-.909.013-.07.026-.139.047-.27M76.455 87.916l-2.387.995c.18.113.241.173.314.195 1.14.34 2.306.505 3.495.515.256.002.4-.155.346-.381a17 17 0 0 0-.436-1.474c-.068-.202-.247-.228-.443-.158-.278.1-.558.192-.89.308m9.857-40.463c.017.412.019.826.063 1.235a.55.55 0 0 0 .224.368c.524.304 1.09.014 1.11-.586.032-.92.023-1.84.013-2.76-.001-.086-.131-.24-.205-.242a11 11 0 0 0-1.133.037c-.213.017-.286.138-.25.371.08.5.12 1.005.178 1.577M94.626 60.7l1.613-3.08c-.435 0-.759-.035-1.069.013-.194.03-.426.143-.542.294a7.8 7.8 0 0 0-1.307 2.648c-.037.135.096.39.226.486.403.294.65.202 1.08-.36M79.54 24.95c.673.345 1.34.702 2.022 1.03.274.133.573.224.87.296.288.07.736-.15.81-.386.11-.342-.2-.431-.392-.587a.5.5 0 0 0-.09-.058c-.864-.437-1.727-.88-2.597-1.307a1.7 1.7 0 0 0-.541-.158c-.33-.04-.542.175-.674.43-.139.268.113.396.282.536.082.067.177.118.31.203M31.57 42.325c-.51.36-1.05.687-1.521 1.092-.434.374-.474 1.02-.165 1.455.1-.048.211-.089.31-.149.948-.579 1.897-1.157 2.84-1.744.333-.207.345-.344.155-.775-.136-.31-.352-.452-.676-.323-.307.12-.599.278-.942.444m14 47.32c-.32.421-.7.89-.358 1.406.479.724 1.067 1.377 1.627 2.045.061.073.279.1.368.051.347-.193.588-.783.389-1.11-.5-.824-1.057-1.613-1.6-2.41-.103-.149-.253-.166-.426.018m2.625 8.901c.286-.069.717-.548.729-.822a.3.3 0 0 0-.06-.196c-.658-.778-1.32-1.552-2.015-2.366l-.578.765c-.525.701-.536.714.144 1.276.56.463 1.15.89 1.78 1.343M44.03 29.69c.344-.245.497-.612.338-.906-.184-.341-.506-.209-.76-.132q-1.561.474-3.103 1.004c-.25.086-.5.241-.684.428-.117.12-.114.357-.165.542.161.034.337.13.48.093a215 215 0 0 0 3.894-1.029m53.442 17.043c-.091-.414-.16-.834-.285-1.237-.044-.14-.212-.311-.351-.342-.551-.124-1.218.445-1.13 1.003.116.742.316 1.472.5 2.203.067.27.272.322.531.238.764-.246.921-.486.819-1.279-.023-.175-.05-.35-.084-.586M26.16 84.023c.402.719.794 1.443 1.21 2.153.098.166.262.306.42.423.29.215.602.116.865-.046.269-.165.134-.433.039-.636a46 46 0 0 0-1.01-2.022 1.4 1.4 0 0 0-.426-.463c-.314-.215-.679-.223-1.014-.06-.266.132-.152.384-.084.651m5.89-17.275c-.173.426-.375.842-.508 1.28-.113.372.037.531.408.568.447.045.812-.115 1.026-.492.365-.644.712-1.302 1.016-1.977.196-.434.064-.644-.387-.812-.355-.132-.64-.075-.872.26-.248.356-.441.75-.684 1.173m26.798 22.46c.574.137 1.146.287 1.724.406.911.188.913.179 1.346-.646.203-.386.148-.556-.285-.677a17 17 0 0 0-1.755-.419c-.891-.152-1.18.047-1.504.895-.073.19-.04.288.148.345.09.027.18.055.326.097M51.08 42.234c.464-.353.425-.86.409-1.354-.012-.366-.132-.484-.491-.393-.58.147-1.164.31-1.714.54-.212.09-.402.364-.482.595-.1.291-.087.624-.106.94-.015.242.132.367.357.304a46 46 0 0 0 2.027-.632m-13.987-1.481c.089-.058.18-.113.267-.174.448-.317.459-.619-.014-.893-.154-.09-.43-.09-.6-.017a61 61 0 0 0-2.706 1.244c-.426.209-.45.448-.194.986.186.391.484.228.725.113.833-.397 1.652-.82 2.522-1.26m68.482 28.176c-.199.702-.405 1.402-.595 2.105-.121.445-.143.89.15 1.285.212.287.48.302.609.024.483-1.04.869-2.121.938-3.27.019-.324-.189-.69-.375-.986-.149-.237-.364-.182-.479.085-.097.225-.156.467-.248.757m-76.01-10.405c.032-.076.066-.152.093-.23.137-.402.034-.739-.31-.905-.35-.17-.499.145-.644.344q-.677.931-1.292 1.904c-.167.264-.27.574-.371.874-.087.256-.095.532.187.685.273.148.495-.007.643-.216.566-.796 1.115-1.604 1.695-2.456m53.302-26.39c.002-.023.015-.056.005-.066-.666-.664-1.329-1.332-2.01-1.98-.079-.076-.28-.095-.393-.054-.577.213-.789.848-.397 1.316.436.521.94.988 1.424 1.468.199.196.427.18.635-.004.238-.21.472-.426.736-.68m5.093 41.589-.471-.65c-.132.153-.233.239-.295.347q-.546.95-1.078 1.91c-.304.549-.181 1.036.212 1.497.199.234.35.25.515-.016.384-.622.777-1.238 1.15-1.867.23-.384.233-.784-.033-1.221m-9.322 26.818c-.508.029-1.017.049-1.525.09-.624.05-1.25.098-1.87.185-.465.065-.528.194-.415.656.05.206.127.407.17.614.072.356.289.416.602.333.9-.237 1.752-.584 2.519-1.113.295-.203.559-.453.906-.738a6 6 0 0 0-.387-.027m-32.566 2.597c.093.106.166.263.283.31.897.36 1.797.714 2.709 1.034.27.095.587.126.872.094.22-.025.423-.194.633-.299-.142-.155-.256-.37-.433-.455a51 51 0 0 0-2.422-1.087c-.808-.338-.991-.285-1.642.403M94.615 89.16c.192-.325.402-.64.572-.977.254-.502.158-.669-.411-.743-.852-.11-1.618.122-2.306.62-.079.056-.135.142-.201.214l.045.077c.14-.037.28-.09.423-.106.106-.011.218.025.327.04-.023.11-.035.222-.073.326-.022.063-.08.117-.13.167-.184.19-.16.388-.002.569.714.814.974.812 1.603.028.044-.055.082-.115.153-.215M22.849 51.202c-.126.317-.282.627-.368.954a1.8 1.8 0 0 0-.035.76c.057.309.302.353.515.117.117-.13.215-.282.304-.434.5-.854 1-1.707 1.486-2.57a2.5 2.5 0 0 0 .241-.658c.063-.279.018-.583-.255-.712-.29-.138-.459.143-.582.34-.442.71-.858 1.435-1.306 2.203m28.792-28.11c-.359.152-.73.28-1.072.464a2.5 2.5 0 0 0-.628.503c-.087.094-.142.313-.09.41.048.087.27.136.4.114 1.11-.19 2.208-.448 3.2-1.001.306-.17.553-.462.794-.728.074-.082.09-.298.032-.39-.044-.07-.257-.082-.375-.05-.74.208-1.474.436-2.261.677m34.917 75.902a15.6 15.6 0 0 0 3.432-1.656c.312-.2.503-.47.492-.89-.146.03-.262.045-.371.08-.874.287-1.75.568-2.618.873a7 7 0 0 0-.96.448c-.32.17-.457.455-.458.817-.002.386.033.42.483.328M26.25 64.008c.097-.227.203-.451.288-.683q.222-.596.417-1.2c.065-.202.067-.447-.168-.503-.14-.033-.352.078-.478.187-.147.126-.258.308-.347.485q-.65 1.292-1.276 2.597c-.09.188-.14.401-.17.608-.04.27.07.5.325.608.264.11.398-.106.495-.287.308-.582.596-1.175.914-1.812m46.478-27.255c.43.532.857 1.067 1.292 1.595.089.107.202.2.318.28.266.18.547.127.833-.127.237-.212.15-.44.014-.636a86 86 0 0 0-1.361-1.896 1.7 1.7 0 0 0-.303-.298c-.313-.256-.564-.232-.83.07-.254.29-.253.507.037 1.012m3.438 66.25c-.26.079-.52.154-.778.236-.516.165-.743.544-.797 1.059-.026.255.056.405.33.348 1.13-.235 2.218-.583 3.128-1.329.145-.12.282-.31.317-.488a.74.74 0 0 0-.135-.544c-.051-.064-.324.01-.477.07-.516.199-1.023.419-1.588.648m6.366-60.997c.133.15.257.31.4.448.392.376.718.357.972-.11.093-.172.087-.482-.009-.653-.426-.759-.899-1.491-1.36-2.23-.046-.074-.132-.123-.243-.223-.153.21-.29.395-.423.583-.346.49-.316.962.065 1.422.195.236.377.483.598.763M48.51 95.114c.494.398.976.813 1.492 1.181.115.083.449.068.501-.015.094-.15.142-.455.05-.572a67 67 0 0 0-2.068-2.504c-.065-.075-.285-.105-.375-.054-.402.225-.524.871-.243 1.238.186.242.404.461.643.726m26.896-71.289c.532.11 1.061.237 1.597.325.287.048.596.078.877.022.171-.033.355-.22.436-.386.032-.067-.175-.287-.31-.388a1.2 1.2 0 0 0-.46-.179q-1.42-.296-2.844-.576c-.371-.074-.633.095-.844.388-.202.282-.169.41.176.494.435.107.876.194 1.372.3M22.738 67.883c.272.274.364.012.396-.169.135-.75.3-1.503.339-2.261.044-.863-.322-1.208-1.186-1.315-.356-.043-.493.053-.437.397.183 1.127.378 2.254.888 3.348M39.075 38.68c-.26.2-.54.377-.766.61-.086.087-.105.333-.043.444.06.105.29.21.403.177 1.095-.322 2.182-.67 3.267-1.024.074-.024.165-.155.16-.231-.02-.41-.602-.82-1.007-.69-.662.21-1.313.457-2.014.714m25.516-.187c-.253.338-.236.442.162.58.513.178 1.046.297 1.553.488.696.262 1.21.054 1.642-.506.222-.29.21-.383-.133-.494-.562-.182-1.136-.331-1.685-.545-.634-.245-1.125-.126-1.538.477M88.014 51.85c-.026-.293-.037-.588-.083-.878-.066-.419-.234-.785-.592-1.05-.398-.293-.647-.224-.652.257-.008.833.05 1.668.106 2.5.028.414.31.64.694.755.34.101.472.04.502-.314.033-.398.02-.8.025-1.27M38.471 68.014c.076.404.145.81.23 1.213.13.61.471.886 1.088.912q.35.016.308-.316a4 4 0 0 0-.114-.588c-.2-.7-.373-1.412-.635-2.089-.108-.28-.374-.551-.638-.71-.337-.203-.542-.018-.476.376.064.383.148.762.237 1.202m4.254 14.657c.168.66.33 1.322.507 1.98.058.214.221.359.416.167.46-.451.891-.933 1.358-1.427-.73-.584-1.4-1.306-2.254-1.79l-.104.067c.022.313.043.627.077 1.002m13.03 19.175c.672.439 1.335.89 2.02 1.306.179.109.425.124.644.144.1.01.21-.071.315-.111-.044-.114-.058-.26-.138-.336a10 10 0 0 0-.884-.763c-.785-.586-1.588-1.15-2.375-1.735-.257-.19-.472-.072-.621.1-.065.075-.014.341.074.441.287.326.616.616.966.954M76.155 90.64c-.087.036-.2.05-.255.114-.112.127-.25.275-.263.425-.007.075.227.236.364.25a78 78 0 0 0 3.315.304c.398.026.515-.165.488-.562-.023-.33-.243-.465-.518-.475-1.024-.037-2.05-.048-3.131-.056m-44.69-34.539c.364-.475.754-.934 1.086-1.431.22-.33.13-.528-.245-.64-.368-.109-.584-.28-.501-.703.012-.063-.1-.152-.156-.228-.063.073-.142.138-.184.222-.029.056-.021.141-.005.208.097.411-.042.771-.26 1.1-.28.422-.593.82-.876 1.24-.137.202-.296.42-.337.649-.03.168.078.403.202.537.055.059.343-.012.454-.107.285-.244.53-.535.821-.846m38.035-21.428c-.753-.69-1.654-1.141-2.594-1.666-.11.371-.192.675-.292.972-.089.262-.004.433.24.539.768.332 1.53.678 2.309.985.178.07.41.005.618.003-.053-.228-.103-.457-.161-.683-.011-.042-.056-.075-.12-.15m31.395 6.88c-.239-.378-.447-.782-.728-1.126-.248-.303-.562-.562-.881-.794-.114-.083-.33-.026-.498-.033.002.155-.047.336.015.462.366.75.727 1.505 1.149 2.224.372.637.82.765 1.627.556-.222-.422-.439-.834-.684-1.29m-8.492 20.688c-.204.345-.423.682-.61 1.036-.204.385-.4.778-.553 1.185-.047.126.014.352.108.46.144.161.363.158.544.006.108-.09.231-.179.303-.295q.76-1.232 1.495-2.479c.102-.173.18-.422-.056-.528-.166-.074-.432-.083-.582.003-.238.136-.415.376-.649.612m-4.296-7.575c-.108-.178-.177-.416-.334-.517a1.14 1.14 0 0 0-.68-.151c-.066.006-.165.373-.134.555.141.848.314 1.69.499 2.53.035.16.142.353.276.432.177.106.416.157.62.138.063-.006.154-.326.134-.49-.103-.817-.238-1.63-.381-2.497m3.133 31.765c-.474.262-.957.508-1.416.791-.245.151-.48.402-.31.693.06.101.435.093.631.03 1.314-.424 2.501-1.096 3.607-1.913.093-.068.12-.225.177-.34-.127-.034-.253-.083-.383-.094a.7.7 0 0 0-.274.058c-.662.25-1.322.503-2.032.775M35.44 32.874c.757-.39 1.516-.773 2.268-1.172a5 5 0 0 0 .806-.505c.29-.236.31-.558.163-.904-.06.01-.11.008-.148.03-1.28.71-2.563 1.418-3.835 2.143-.144.082-.25.25-.34.398-.049.077-.069.226-.024.29.04.06.197.091.278.064.268-.09.525-.21.832-.344m-1.69 31.769c.803.275.99.221 1.433-.487.238-.379.45-.775.648-1.176.076-.153.15-.361.105-.506-.066-.205-.209-.434-.386-.538-.108-.063-.416.035-.51.156a48 48 0 0 0-1.471 2.031c-.13.188-.116.384.18.52m17.552 33.212c.65.635 1.289 1.283 1.957 1.899.208.192.497.509.793.232.272-.255-.012-.555-.166-.785a7.8 7.8 0 0 0-2.152-2.131 1.8 1.8 0 0 0-.542-.25.4.4 0 0 0-.336.107c-.055.06-.048.233 0 .317.117.203.274.382.446.61m20.152-59.24c.252-.121.532-.206.752-.37.328-.248.322-.515-.022-.736a10.5 10.5 0 0 0-1.272-.682c-.302-.14-.583-.054-.763.243a14 14 0 0 0-.524.918c-.157.311-.099.437.238.556.501.178 1.014.197 1.59.07M30.427 89.909c.16.14.315.285.481.416.237.186.514.318.77.087.275-.248.035-.51-.117-.68a77 77 0 0 0-2.085-2.203.8.8 0 0 0-.428-.231c-.168-.022-.348.055-.523.089.035.138.03.308.112.408.575.701 1.167 1.388 1.79 2.114m27.547-62.706c-.135-.109-.265-.303-.407-.311-.902-.055-1.794.038-2.65.337-.17.06-.304.224-.454.34.153.096.296.246.462.28.936.186 1.878.345 2.818.512.202.036.281-.057.272-.254-.013-.281-.019-.563-.041-.904m-6.411 72.093c-.442-.44-.865-.908-1.482-1.113-.411-.137-.736.05-.942.518-.163.371-.105.599.329.79.742.325 1.506.601 2.268.878.152.056.336.024.505.032l.088-.115c-.244-.318-.488-.636-.766-.99M24.578 68.438c.092-.474.199-.946.264-1.424.015-.109-.097-.315-.186-.338-.13-.033-.346.013-.428.108-.123.144-.19.353-.232.545a177 177 0 0 0-.71 3.39c-.047.24-.162.584.175.67.33.084.418-.269.484-.5.226-.792.418-1.594.633-2.451m17.835-19.343c.099-.4.224-.794.289-1.198.072-.45-.177-.615-.598-.419-.512.239-.872.64-1.142 1.122-.498.891-.36 1.242.605 1.588l.033.013c.184.086.326.038.408-.145.134-.3.259-.605.405-.961m43.274 32.064c-.032-.1-.042-.215-.1-.294-.211-.284-1.632-.366-1.9-.134-.244.211-.514.394-.763.6-.172.14-.367.276-.477.46-.076.127-.074.353-.01.491.036.08.28.126.405.092.797-.22 1.593-.45 2.375-.718.184-.064.311-.29.47-.497m-12.572 5.62c-.843.474-1.694.936-2.526 1.429-.305.18-.27.31.063.443.83.33 2.086.01 2.668-.674.23-.272.299-.582.252-.925-.032-.237-.137-.378-.457-.273m7.57 15.559c.193-.189.403-.364.576-.569.348-.411.292-.583-.21-.732a8 8 0 0 0-.341-.094c-.675-.168-1.132-.004-1.45.613a2.7 2.7 0 0 0-.27 1.002c-.036.413.193.574.582.41.375-.158.717-.396 1.113-.63m-3.796-61.929c-.33-.4-.648-.81-.994-1.194-.148-.163-.35-.31-.594-.14-.242.17-.218.4-.12.632.33.793.795 1.497 1.416 2.093a.76.76 0 0 0 .364.205c.16.028.379.04.488-.047.082-.066.088-.32.031-.45-.16-.363-.37-.706-.59-1.099m29.197 20.894c.197.466.254 1.023.844 1.306.02-.142.052-.233.042-.318a322 322 0 0 0-.426-3.395.43.43 0 0 0-.155-.256 3 3 0 0 0-.509-.326c-.115-.06-.252-.076-.379-.112-.033.125-.118.263-.092.375.208.893.437 1.781.675 2.726M30.511 54.3c.075-.16.19-.313.215-.48.034-.228 0-.465-.006-.699-.22.075-.487.095-.654.234-.706.59-1.208 1.35-1.622 2.161-.086.17-.033.41-.044.617.208-.043.428-.057.62-.138.156-.066.3-.194.41-.327.362-.433.704-.88 1.08-1.368m14.922-27.76c-.364.281-.78.509-.996.974q.637-.163 1.203-.458c.96-.502 1.91-1.025 2.865-1.54.43-.23.57-.735.281-1.234zm5.994 77.85c-.098.163-.297.35-.266.484.03.128.296.205.461.299a.3.3 0 0 0 .138.028c1.086.001 2.171.01 3.256-.006.181-.003.36-.111.54-.17l.006-.141c-.211-.075-.416-.181-.634-.22a54 54 0 0 0-2.626-.415c-.267-.033-.551.071-.875.141m26.412-76.35c-.475-.068-.611.054-.558.521a.9.9 0 0 0 .12.363c.326.524.772.92 1.346 1.153.517.21.922-.036 1.003-.585.047-.322-.108-.569-.366-.709-.484-.264-.992-.485-1.545-.742M24.37 63.535c.382-.759.782-1.509 1.14-2.278.317-.677.293-.694-.425-.923-.696-.222-.932-.068-1.009.66a1 1 0 0 0-.008.142q.041 1.22.09 2.439c.001.048.036.096.07.182.057-.084.089-.131.142-.222m78.023 2.012c.063-.137.174-.27.181-.41.039-.807.056-1.616.071-2.424.002-.091-.058-.183-.094-.286-.073.039-.114.047-.131.072-.606.907-1.031 1.897-1.347 2.937-.065.214.084.304.243.292a7.5 7.5 0 0 0 1.077-.181m-67.342 4.259c-.022-.838-.053-1.675-.413-2.551-.105.17-.174.251-.21.345-.217.583-.45 1.162-.63 1.756-.095.31-.127.648-.126.973.001.396.174.497.545.386.135-.04.27-.101.408-.11.258-.015.343-.17.375-.387.017-.116.03-.233.05-.412M56.004 87.71c-.25.28-.515.249-.822.078-.252-.14-.552-.294-.813-.046-.149.142.116.535.55.651.597.16 1.218.239 1.834.316.655.083 1.058-.286 1.348-.826.124-.23.033-.362-.191-.35-.62.033-1.237.1-1.906.177m34.971-21.23c.095-.215.237-.424.269-.648a.68.68 0 0 0-.175-.509c-.062-.061-.359.003-.452.102a7.8 7.8 0 0 0-1.581 2.411c-.093.227-.089.47.167.623.257.154.42-.03.538-.192.416-.571.807-1.16 1.234-1.786M43.34 86.598c.213 1.186.63 2.3 1.197 3.462.17-.32.293-.57.43-.81.235-.41.225-.817-.032-1.203a30 30 0 0 0-1.04-1.47c-.128-.168-.323-.284-.565-.49 0 .228 0 .34.01.51M32.405 52.156c.598-.553 1.2-1.102 1.789-1.663.07-.068.135-.257.098-.299-.082-.093-.241-.19-.349-.172a1.5 1.5 0 0 0-.617.239c-.488.352-.969.718-1.418 1.117-.297.264-.551.582-.79.901-.073.097-.088.364-.027.405.11.077.328.104.446.044.292-.149.553-.358.868-.572m40.15 38.615c.664.087 1.326.192 1.992.249.222.019.499-.036.532-.351.033-.323-.204-.427-.458-.481-.461-.1-.922-.204-1.389-.265a15 15 0 0 0-1.514-.113c-.125-.003-.253.129-.38.199.08.13.13.315.247.377.288.154.607.252.97.385M89.15 60.343c-.166-.515-.309-1.039-.51-1.54-.086-.213-.268-.414-.455-.556-.204-.154-.388-.054-.437.203-.021.112-.012.235.006.35a8.1 8.1 0 0 0 .877 2.594c.06.113.125.256.227.306a.73.73 0 0 0 .45.052c.056-.012.115-.219.096-.323-.061-.347-.157-.687-.254-1.086M69.892 99.85c.039-.328-.114-.581-.404-.671a39 39 0 0 0-2.283-.618c-.105-.025-.317.057-.35.142a.6.6 0 0 0 .025.457c.07.135.218.272.361.32q1.101.372 2.219.691c.196.056.377-.025.432-.32M38.08 59.644c.034-.113.106-.23.094-.337-.018-.176-.09-.345-.14-.517-.147.052-.343.06-.435.163a31 31 0 0 0-1.508 1.775c-.227.293-.112.53.24.8.265.204.485.123.638-.105.379-.566.73-1.15 1.111-1.78m47.49 30.845c-.335.071-.673.132-1.004.216-.252.064-.315.214-.17.449.2.322.455.509.852.408.503-.128 1.008-.248 1.507-.392.282-.08.565-.18.822-.317.092-.05.183-.263.149-.352-.136-.35-.718-.522-1.068-.378-.335.137-.686.239-1.088.366M52.918 41.511l.762-.284-.058.496.12.032c.049-.13.14-.26.14-.39-.004-.538 0-1.081-.069-1.613-.058-.439-.336-.533-.712-.278-.172.116-.36.265-.441.445a8.5 8.5 0 0 0-.517 1.41c-.104.413.02.483.429.323.098-.04.196-.081.346-.14m-21.384 42.05c.3.527.569 1.083 1.14 1.402a1 1 0 0 0 .018-.469c-.052-.253-.133-.5-.18-.754-.12-.625-.218-1.253-.341-1.876-.085-.43-.202-.468-.572-.22-.186.125-.36.267-.552.384-.169.103-.18.216-.092.38.192.365.372.736.58 1.152m30.721 21.66c.27.014.542.053.81.031.105-.009.199-.156.298-.24-.09-.094-.163-.231-.273-.275-.58-.228-1.173-.428-1.757-.647-.431-.161-.852-.352-1.287-.499-.246-.083-.525-.066-.64.216-.117.287.148.417.34.493.81.321 1.631.611 2.51.921M22.078 55.459c.1-.375.211-.747.297-1.124.062-.274.07-.598-.252-.672-.113-.026-.372.25-.447.436-.44 1.102-.63 2.262-.697 3.441-.01.178.07.362.107.543l.153.007c.427-.805.5-1.735.839-2.631m61.324 36.218c.19-.043.334-.112.287-.356-.07-.354-.299-.657-.567-.634-.777.067-1.552.157-2.326.258-.206.026-.387.143-.365.4.02.241.156.39.4.428.15.023.305.052.456.044.685-.037 1.37-.087 2.115-.14M78.28 44.261c.175.051.376.064.519.162.28.192.523.44.794.65.174.134.371.239.558.357l.102-.09c-.055-.158-.077-.339-.17-.47-.55-.78-1.118-1.55-1.68-2.323-.168-.23-.358-.08-.496.01-.1.066-.206.26-.176.356.14.462.326.909.549 1.348m27.93 22.15c.116.434.071.95.63 1.223.04-.139.097-.237.092-.331a172 172 0 0 0-.224-3.588c-.01-.13-.171-.248-.261-.372-.081.134-.17.263-.239.402a.55.55 0 0 0-.045.242c.011.788.026 1.575.047 2.425M43.72 37.359c-.187.03-.381.034-.558.094-.218.073-.536.055-.55.394-.01.244.407.615.682.634a.9.9 0 0 0 .315-.027 76 76 0 0 0 2.03-.614c.166-.054.31-.177.463-.268l-.032-.111c-.748-.233-1.518-.167-2.35-.102M68.547 40.1l.419.07c.61.094 1.224.146 1.818-.06.169-.059.297-.231.444-.352-.138-.126-.257-.312-.42-.365-.4-.13-.82-.208-1.235-.29-.508-.1-.924.06-1.257.46-.273.33-.255.402.23.537M37.135 62.927c-.017.869.293 1.633.767 2.339.232.344.572.458.995.401-.007-.076.002-.138-.019-.187-.382-.897-.762-1.795-1.161-2.684-.054-.118-.212-.19-.322-.284a3 3 0 0 0-.26.415m54.931 32.62c-.27.262-.555.511-.802.793-.082.093-.066.271-.095.41.142-.007.328.042.422-.03q1.503-1.142 2.978-2.32c.11-.088.151-.258.224-.39l-.107-.098c-.923.428-1.759 1.004-2.62 1.636m7.417-30.145c-.656.919-1.316 1.834-1.96 2.76-.065.094-.033.255-.046.384.15-.023.307-.028.449-.077.08-.027.148-.116.203-.192q.956-1.33 1.899-2.67a.9.9 0 0 0 .134-.359c.014-.08-.009-.21-.064-.248-.051-.034-.183.002-.249.05-.122.088-.223.207-.366.352m-26.805-41.99c.247-.094.495-.258.425-.52-.034-.126-.36-.175-.555-.255-.03-.013-.07-.007-.106-.007q-1.329-.005-2.659-.006c-.059 0-.117.031-.236.064.314.248.556.51.854.657.304.15.662.25.999.256.406.007.815-.108 1.278-.189M54.582 39.758l.121.693c.557-.589 1.062-1.093 1.529-1.631.21-.241.136-.47-.171-.534-.397-.082-.811-.099-1.218-.103-.247-.002-.382.172-.365.427.025.363.06.726.104 1.148m-18.113 8.435c-.574.324-1.153.64-1.718.977-.101.061-.23.254-.2.316.064.134.21.25.349.318.09.044.237.02.343-.019a6.9 6.9 0 0 0 2.232-1.333c.068-.06.142-.211.113-.262-.05-.084-.185-.177-.275-.169-.267.025-.529.098-.844.172m27.485 49.941c.502.237 1 .483 1.51.704.112.049.338.059.38-.003.074-.107.106-.32.045-.425-.113-.194-.275-.406-.47-.499-.757-.358-1.534-.674-2.305-1.003-.2-.085-.283.052-.265.202.018.14.087.308.192.394.272.223.575.408.913.63m17.07-15.287c.201-.137.425-.253.597-.421a.48.48 0 0 0 .103-.403c-.018-.066-.255-.139-.363-.107a29 29 0 0 0-2.008.656c-.245.092-.467.277-.66.46-.1.096-.115.28-.168.424.143.02.3.085.428.049.678-.198 1.349-.42 2.07-.658M64.324 105.93c1.18.334 2.38.492 3.607.406.122-.009.238-.09.357-.138l.003-.125c-.212-.074-.42-.179-.638-.218-.965-.174-1.932-.33-2.9-.487a.9.9 0 0 0-.317.008c-.351.074-.402.254-.112.554m6.37-15.861c.3-.386.261-.578-.175-.74a7 7 0 0 0-.95-.288c-.39-.084-.79-.162-1.187-.173-.157-.005-.32.179-.48.277.109.124.193.31.33.362.55.212 1.11.402 1.679.56.229.064.487.025.782.002m14.002-11.071c-.012.057-.037.116-.032.172.011.142-.01.354.068.406.094.06.317.034.417-.042.275-.212.56-.436.758-.714.442-.62.24-1.318-.49-1.733-.341.58-.522 1.218-.721 1.91m-8.529 5.664c.481-.275.965-.544 1.44-.829.079-.047.115-.164.171-.248-.085-.053-.17-.147-.257-.15a9 9 0 0 0-.95.014c-.083.005-.171.069-.243.124-.289.226-.563.473-.86.687-.257.185-.546.325-.805.509-.099.07-.152.205-.269.372.7.067 1.195-.26 1.773-.48m-42.93-32.1c-.15.179-.355.337-.43.543-.053.141.027.39.136.512.08.088.355.12.455.051a4.6 4.6 0 0 0 1.467-1.59c.064-.116.028-.286.037-.431-.143.006-.32-.04-.425.027-.413.266-.803.567-1.24.888m-1.11-18.036c-.54.568-1.17 1.063-1.5 1.812a.7.7 0 0 0 .379-.11A12.7 12.7 0 0 0 33.6 33.88c.081-.098.06-.281.087-.425-.149.02-.337-.008-.438.072-.378.302-.727.639-1.123.998m.319 56.908a8.8 8.8 0 0 0 2.46 1.57c-.397-.869-.895-1.638-1.768-2.08a.8.8 0 0 0-.405-.096c-.151.015-.338.069-.425.174-.051.063.063.259.138.432m10.818-12.976c-.216-.142-.423-.3-.65-.423-.234-.126-.431-.035-.397.231a18 18 0 0 0 .31 1.656c.05.225.24.27.406.116.35-.324.678-.668 1.038-1.027zm53.958-9.163c-.22-.251-.394-.046-.535.082a9.7 9.7 0 0 0-1.92 2.427c-.062.11-.073.247-.107.371l.08.055c.132-.086.292-.148.393-.261q.963-1.076 1.898-2.177c.1-.119.133-.296.19-.497m-61.381-4.572c-.123.267-.265.527-.362.802-.122.347.021.533.389.494.326-.035.648-.117.97-.187.303-.066.366-.27.272-.535-.075-.21-.15-.425-.26-.616-.126-.216-.293-.407-.441-.61l-.505.547c-.016.017-.025.04-.063.105m3.114-7.665c-.171.295-.382.576-.494.892-.046.13.077.383.201.49.074.063.366.002.447-.096.526-.63.951-1.322 1.166-2.122.026-.1-.024-.222-.038-.333-.117.029-.274.02-.345.093-.316.332-.608.687-.937 1.075M52.39 38.932c.512-.084.927-.34 1.248-.737.196-.24.15-.478-.133-.508-.578-.062-1.166-.046-1.748-.028-.067.002-.209.258-.175.337.157.376.333.757.809.936m2.556 51.82c.403.318.801.643 1.217.943.07.05.216-.005.327-.012-.017-.097-.005-.216-.057-.289-.583-.804-1.24-1.54-2.083-2.083-.126-.081-.317-.063-.478-.09l-.072.143c.37.45.74.901 1.145 1.388m32.403-20.22c-.04.241-.091.482-.11.726-.006.073.061.178.126.222.036.023.168-.032.206-.087.438-.639.879-1.277 1.293-1.932.148-.235.044-.458-.192-.6-.229-.136-.407-.004-.51.169-.282.473-.534.963-.813 1.501m-4.7 18.519c-.723.216-1.439.45-2.09.866.899.154 1.786.227 2.663.02.329-.078.27-.402.24-.659-.03-.26-.22-.31-.441-.29-.105.009-.21.032-.372.063m13.559-52.824c-.226-.111-.287-.024-.22.19.026.089.079.171.13.25.465.702.989 1.352 1.694 1.83.228.153.482.304.823.057-.692-.896-1.456-1.678-2.427-2.327M85.44 49.436c.007-.412.026-.824.02-1.236a3 3 0 0 0-.085-.765c-.024-.087-.264-.211-.325-.177-.284.16-.555.352-.795.571-.067.061-.068.29-.007.38.308.457.645.896.982 1.334.017.021.133-.034.21-.108m-31.763 38.76c-.453-.836-.976-1.62-1.71-2.238-.098-.082-.27-.077-.408-.112.014.13-.018.294.049.386a82 82 0 0 0 1.691 2.225c.069.087.236.097.357.144.012-.119.025-.237.02-.405m12.528-.028c-.553-.119-1.104-.245-1.66-.349-.154-.029-.322.012-.484.02l-.027.124c.116.085.22.2.35.252.557.22 1.118.435 1.686.628.266.09.548.156.827.175.133.01.277-.115.416-.18-.076-.115-.125-.282-.231-.337-.26-.133-.547-.214-.877-.334M92.3 75.386c.583-.675 1.172-1.346 1.745-2.03.1-.12.133-.295.197-.445l-.096-.075c-.125.07-.278.114-.372.213a75 75 0 0 0-1.882 2.048c-.105.12-.1.335-.147.506.172-.062.343-.124.555-.217M40.332 47.312c.167-.11.345-.207.5-.331.207-.169.262-.377.045-.693-.744.337-1.496.665-2.234 1.022-.123.06-.187.24-.279.364.16.042.338.15.478.114.488-.124.963-.297 1.49-.476m16.547 57.97c.284-.003.57.021.85-.014.42-.052.843-.118 1.25-.228.266-.07.279-.224.08-.364-.492-.345-1.917-.281-2.377.121-.097.085-.14.23-.206.347.113.046.226.091.403.138M23.676 73.579c-.046-.474.047-.972-.265-1.41-.3 1.545-.236 3.091-.076 4.642.283-1.041.283-2.108.341-3.232M98.38 89.593l-.074.478.118.034c.156-.285.34-.558.463-.856q.466-1.124.879-2.269c.09-.253.146-.541-.135-.898-.431 1.204-.835 2.33-1.25 3.51M58.15 93.225c-.404-.322-.765-.711-1.315-.9.158.747 2.066 2.49 2.687 2.44-.335-.628-.86-1.047-1.372-1.54m-16.402-39.34c.167-.5.347-.999.335-1.55-.35.469-.655.952-.916 1.458a10 10 0 0 0-.517 1.23c-.037.104.053.254.086.383.116-.06.287-.09.34-.185.236-.417.438-.854.672-1.335m4.8-26.255c.49-.069.978-.145 1.47-.203.522-.061.68-.237.637-.753-.027-.338-.166-.45-.46-.289-.705.388-1.39.812-2.084 1.221l.038.077c.114-.014.23-.028.398-.053m-2.627 8.665c-.747.14-1.51.223-2.198.601.158.06.308.072.455.058.692-.066 1.384-.142 2.076-.21.327-.031.66-.033.982-.089.107-.019.19-.166.285-.254-.102-.063-.205-.181-.306-.18-.41.002-.821.042-1.294.075m3.733.393c.81.043 1.618.076 2.486-.218-.708-.43-3.214-.423-3.618.023.391.069.73.128 1.132.195m40.808 53.007c-.046.12-.164.286-.122.352a.52.52 0 0 0 .366.21c.675.019 1.218-.315 1.724-.714.083-.066.12-.188.179-.284-.111-.046-.223-.134-.334-.133-.64.006-1.225.213-1.813.57m-28.116 4.533c.243-.205.248-.66-.033-.953-.525-.548-1.252-.654-1.948-.841.393.465.803.9 1.24 1.308.202.19.455.324.741.486m35.649-9.496c.743-.48 1.505-.938 2.055-1.661a12.6 12.6 0 0 0-3.475 2.26c.523-.053.942-.33 1.42-.6M43.32 45.468c-.44.242-.882.477-1.312.735-.067.04-.074.181-.109.276.094.032.195.106.28.091.78-.138 1.472-.485 2.105-.949.067-.05.093-.21.07-.303-.013-.048-.184-.094-.27-.076-.241.05-.475.134-.764.226m28.99-5.09c.715.004 1.44.077 2.119-.302a.95.95 0 0 0-.446-.247 10 10 0 0 0-1.151-.172c-.225-.016-.481.004-.676.1-.165.083-.261.3-.388.458.16.052.32.104.542.163m32.168 15.727c.248.567.468 1.156 1.082 1.517.158-.732-.742-2.501-1.417-2.76.114.435.213.813.335 1.243m-14.463 7.214c-.22-.273-.426-.56-.67-.809-.074-.075-.254-.047-.385-.066-.009.11-.057.235-.02.328.209.535.436 1.063.66 1.592.037.085.086.165.124.239.457-.391.52-.702.291-1.284m11.336-.375c.272-.677.548-1.353.811-2.034.049-.126.042-.273.061-.41l-.124-.028c-.695 1.178-1.25 2.412-1.497 3.774.446-.311.502-.828.749-1.302M47.305 44.616l.193-.416c-.092-.031-.207-.115-.272-.086-.588.265-1.172.538-1.742.839-.105.055-.138.248-.205.377.151.035.301.092.453.098a.7.7 0 0 0 .337-.097c.402-.22.798-.453 1.236-.715m9.044 44.813-.87-.226c.346.594.624 1.11 1.13 1.445.266.176.444.09.525-.214.152-.57-.077-.883-.785-1.005m-3.5-52.41 1.591.184c-.487-.573-3.027-.928-3.536-.46.186.072.338.169.498.185.458.047.92.061 1.446.091m42.383 36.485c-.181.076-.474.018-.474.322 0 .25-.093.378-.324.473-.188.077-.26.522-.12.662.2.197.359.01.474-.114q.48-.517.917-1.071c.138-.176.23-.388.342-.584l-.084-.088a32 32 0 0 1-.731.4m-2.95-13.7c.266-.447.538-.891.789-1.346.026-.048-.046-.207-.11-.24-.493-.244-.944.017-.966.56-.01.245.005.493.045.733.017.109.123.203.242.293m.456-25.633c.535.385 1.067.774 1.609 1.15.142.098.31.169.478.219.066.02.182-.03.232-.087.03-.034 0-.162-.044-.212a1.3 1.3 0 0 0-.32-.274q-.995-.57-1.999-1.124c-.086-.048-.192-.061-.288-.09q-.036.043-.07.087zm4.332 37.966c.348-.472.709-.934 1.036-1.419.136-.202.177-.45-.051-.715-.599.746-1.141 1.484-1.465 2.354l.088.075c.119-.086.238-.173.392-.295m-76.002-6.608.591 1.958.145-.045a24 24 0 0 0-1.083-4.074c-.047.73.167 1.413.347 2.16m64.296 9.166-.062.327c.087-.045.127-.052.145-.076.567-.743 1.052-1.531 1.334-2.428.033-.105.005-.23.005-.346l-.11-.025c-.635.723-.956 1.615-1.312 2.548M76.65 27.769c-.23-.333-.52-.461-.835-.324-.095.04-.206.205-.194.3.039.316.797.95 1.231 1.001-.063-.326-.12-.627-.202-.977m-52.987 51.46q.36 1.237.723 2.473l.137-.04a18 18 0 0 0-.956-3.656q-.095.088-.084.16c.05.337.109.672.18 1.064m-3.008-17.335.066.865.115-.004c.126-1.373.177-2.748-.02-4.124-.23 1.058-.157 2.127-.161 3.263m50.33 44.45c.477-.065.969-.074 1.392-.366-1.012-.069-2.02-.144-2.992.196l.005.172c.51 0 1.02 0 1.595-.002M81.19 46.886c.333.274.633.607 1.134.692-.213-.704-1.27-1.647-1.777-1.598.056.4.368.612.643.906m12.778.87.13.922c.287-.84.122-2.878-.213-3.203-.018.066-.047.12-.044.172.037.683.078 1.364.127 2.11M72.362 85.965l-.678.56c.713.105 2.106-.826 2.11-1.335-.304 0-.572.144-1.432.775M60.71 95.702l-.678-.311c.286.667 1.616 1.533 2.257 1.48-.428-.556-.99-.839-1.58-1.169m33.75-55.46c-.092-.513-.454-.81-.856-1.086-.025.526.025 1.023.27 1.477.047.088.179.187.265.181.088-.005.188-.121.245-.213.052-.084.055-.2.076-.358M49.305 82.998l-.233-.153-.077.087c.485.606.961 1.218 1.46 1.812.092.11.273.148.413.22l.096-.13c-.392-.726-1.034-1.243-1.659-1.837m12.936 4.73h1.036c-.366-.433-1.907-.628-2.473-.281.458.091.916.183 1.437.28m30.531-52.672-.39-.198-.077.054c.066.241.123.485.201.722.183.546.42.606.864.236.151-.127.17-.253.016-.376-.184-.145-.38-.273-.614-.438m3.881 56.708c-.356.423-.772.809-.933 1.398.497-.118 1.496-1.351 1.53-1.917-.217.184-.39.332-.597.519m3.573-7.625v.734l.118.006c.121-.703.251-1.406.355-2.112.024-.16-.044-.336-.069-.504l-.123.007c-.28.566-.285 1.182-.281 1.869M71.882 99.784c-.35-.03-.699-.07-1.049-.083-.07-.003-.153.085-.208.15-.013.016.049.137.098.157.577.243 1.167.215 1.759.123l.026-.108a53 53 0 0 0-.626-.24m-31.718-51.08.52-.565-.077-.104c-.388.127-.783.236-1.158.392-.107.044-.157.224-.233.341.142.062.289.179.427.17.164-.01.32-.13.52-.234m58.679 35.49c.195-.025.485.018.565-.09.136-.189.186-.471.19-.715.001-.213-.214-.217-.342-.112a3.4 3.4 0 0 0-.552.578c-.04.054.054.207.139.34m-7.199-7.685c.066-.332-.105-.324-.31-.195-.489.31-.717.821-.996 1.296.495-.282 1.004-.536 1.306-1.101m3.694 9.762-.474.586c.33.145.551.073.735-.117.207-.216.322-.468.237-.864-.193.15-.328.254-.498.395m-.036-37.319-.026-1.466-.178-.008c-.068.46-.167.917-.195 1.379-.018.285.116.322.399.095m7.84 7.63-.071.828.132.01a4.85 4.85 0 0 0 .323-1.911l-.127-.028c-.084.346-.168.692-.257 1.1m-71.07-15.746.115-.439c-.143.072-.34.107-.42.223-.227.33-.406.692-.604 1.04l.107.073c.256-.286.513-.571.801-.897m-4.706 2.47c-.03.05-.07.097-.086.152-.054.197-.273.452-.001.568.103.043.354-.248.53-.395.03-.023.04-.09.032-.132-.025-.13-.063-.257-.096-.386-.116.05-.232.1-.38.193m22.275.536.894-.489-.065-.117c-.572.126-1.108.329-1.579.678l.042.121c.219-.057.438-.114.708-.193M83.586 49.1l.567.535c-.16-.612-.715-1.222-1.182-1.301.224.282.402.506.615.766M55.771 37.345H55.4a3.3 3.3 0 0 0 1.814.434l.03-.136c-.472-.098-.944-.195-1.473-.298M32.65 77.271v1.912h.113c0-.548.005-1.095-.005-1.643a.5.5 0 0 0-.108-.269M52.79 27.44c-.03.03-.092.075-.087.086.136.26.84.331 1.052.092-.265-.273-.588-.241-.965-.178M28.36 56.8c-.169.013-.344.001-.503.048-.06.018-.125.178-.107.256.018.08.124.175.209.197.23.057.46-.197.4-.5m74.175 1.876-.05.6.107.012c.192-.405.314-.825.323-1.27l-.135-.04a44 44 0 0 0-.245.698m-7.423-8.026c.202-.346.156-.597-.161-.877-.229.327-.176.76.16.877m-1.061.558v1.162l.111-.004v-1.92l-.11-.002zm-37.045 52.384c-.12-.088-.231-.202-.366-.252-.068-.025-.199.047-.265.111-.043.041-.054.195-.021.219.115.085.254.179.388.184.091.003.188-.135.264-.262m16.238-64.628.184-.272c-.143-.09-.278-.206-.434-.256-.055-.018-.243.149-.23.19.033.115.13.22.223.306.043.04.134.027.257.032M32.764 74.65v-1.062l-.123.002v1.326l.063.006c.017-.073.035-.146.06-.272m34.137-42.206c.166-.33-.118-.396-.312-.494-.055-.028-.158.037-.239.06.109.145.212.296.331.433.028.032.111.015.22.001M51.33 43.34c.11-.088.313-.182.308-.263-.009-.149-.141-.29-.222-.435l-.179.057c.018.202.036.403.093.641m-11.463-5.922-.536.35c.47.052.847-.136 1.045-.494-.181.048-.32.086-.51.144M98.964 69.06c.112-.132.237-.255.324-.402.023-.037-.077-.147-.12-.224-.111.093-.265.166-.32.284-.041.09.042.238.116.342M94.8 51.752c-.346-.092-.254.19-.248.33.005.101.129.196.2.293.073-.115.171-.224.208-.35.018-.062-.08-.157-.16-.273M32.893 82.42l.056.116.07-.01v-1.154l-.131-.004c0 .333 0 .666.005 1.052M47.69 45.008c.298.058.502-.077.74-.365-.382-.04-.624.006-.74.365m54.954 33.268c-.062.063-.182.132-.176.188.025.223.124.409.48.456-.107-.242-.187-.425-.304-.644M99.35 58.144c.023.064.027.158.073.188.08.051.184.077.28.082.027.002.102-.128.085-.154-.077-.123-.18-.23-.273-.344-.054.06-.108.118-.165.228M78.264 104.19c.022-.079.078-.17.057-.235-.014-.043-.156-.086-.212-.063a.57.57 0 0 0-.247.208c-.028.043.03.142.05.215.105-.031.21-.063.352-.125M35.486 50.569c-.056.04-.138.068-.164.122-.052.107-.072.228-.105.344.075.016.19.07.217.041a1 1 0 0 0 .196-.33c.015-.042-.06-.116-.144-.177m48.27-18.402-.333-.231c-.033.055-.108.136-.092.161.077.124.178.233.27.347.052-.074.105-.148.154-.277M41.822 78.04l-.077-.18-.066.01v.86l.106.005c.014-.213.028-.426.037-.695m48.956-13.8c-.274.091-.379.27-.27.648.1-.203.198-.406.27-.648M33.159 84.782c.236-.134.252-.313-.02-.645 0 .256 0 .43.02.645m.318 2.01c.202-.195.203-.393.059-.593l-.128.004c.012.186.023.373.069.59M93.713 43.7v.47l.154.002c.012-.163.027-.325.028-.487 0-.01-.107-.022-.182.015M58.05 38.064l.43-.025-.007-.162h-.49a.32.32 0 0 0 .067.187m1.848.5.544.07-.004-.206a2.3 2.3 0 0 0-.54.137"/></svg>
