<svg xmlns="http://www.w3.org/2000/svg" viewBox="0 0 128 128" xmlns:xlink="http://www.w3.org/1999/xlink"><path fill="url(#a)" d="M128 64c0-35.346-28.654-64-64-64S0 28.654 0 64s28.654 64 64 64 64-28.654 64-64"/><path fill="url(#b)" d="M68.452 35.06h-8.904V16.975h8.904z"/><path fill="url(#c)" d="M68.452 93.496h-8.904v18.087h8.904z"/><path fill="url(#d)" d="M45.913 89.183v-8.627H35.339v8.627z"/><path fill="#4affc6" d="M80.835 39.513v8.626H45.913v11.965h44.522v29.079H45.913v-8.627h35.896V68.73H37.287V39.513z"/><path fill="url(#e)" d="M80.696 48.14v-8.627h12.521v8.626z"/><defs><linearGradient id="a" x1="64" x2="64" y1="0" y2="128" gradientUnits="userSpaceOnUse"><stop stop-color="#063124"/><stop offset="1" stop-color="#002b1e"/></linearGradient><linearGradient id="b" x1="64" x2="64" y1="35.061" y2="16.974" gradientUnits="userSpaceOnUse"><stop stop-color="#4affc6"/><stop offset=".971" stop-color="#4affc6" stop-opacity="0"/></linearGradient><linearGradient id="c" x1="64" x2="64" y1="93.496" y2="111.583" gradientUnits="userSpaceOnUse"><stop stop-color="#4affc6"/><stop offset=".971" stop-color="#4affc6" stop-opacity="0"/></linearGradient><linearGradient id="d" x1="45.913" x2="35.339" y1="84.87" y2="84.87" gradientUnits="userSpaceOnUse"><stop offset=".113" stop-color="#4affc6"/><stop offset="1" stop-color="#4affc6" stop-opacity="0"/></linearGradient><linearGradient id="e" x1="80.696" x2="93.217" y1="43.826" y2="43.826" gradientUnits="userSpaceOnUse"><stop offset=".113" stop-color="#4affc6"/><stop offset="1" stop-color="#4affc6" stop-opacity="0"/></linearGradient></defs></svg>
