<svg xmlns="http://www.w3.org/2000/svg" viewBox="0 0 128 128"><path fill="#162f29" d="M128 64c0-35.346-28.654-64-64-64S0 28.654 0 64s28.654 64 64 64 64-28.654 64-64"/><path fill="#fff" d="M113 64.262q0 .746-.021 1.491H89.146v-1.086H66.207c0-.227.007-.454.007-.674s0-.454-.007-.675h22.939V62.24h23.811q.043 1.011.043 2.022m-47.197-4.89 22.449-2.76.135 1.079 23.705-2.918a50 50 0 0 0-.802-3.442l-23.336 2.875.135 1.078-22.556 2.776q.151.658.27 1.327zm-1.171-4.343 21.455-5.359.262 1.051 22.769-5.685a52 52 0 0 0-1.512-3.244l-22.1 5.522.261 1.05-21.632 5.409q.264.626.496 1.263zm-1.902-4.067 20.057-7.573.383 1.015 21.221-8.013a46 46 0 0 0-2.179-2.938L81.928 41.11l.383 1.015-20.298 7.665c.248.383.49.773.717 1.171M60.097 47.2l17.714-9.233.497.965 19.59-10.213a50 50 0 0 0-2.805-2.505l-18.41 9.596.497.965-18.013 9.39c.312.34.624.68.923 1.035zm-4.273-4.06 16.04-10.198.582.916 17.7-11.257a49 49 0 0 0-3.42-1.987L70.565 30.89l.582.915-16.501 10.49c.404.27.794.554 1.185.845zm-3.79-2.37 13.442-11.022.689.838 15.138-12.42a49 49 0 0 0-3.939-1.314L63.936 27.868l.688.837-13.932 11.427q.681.298 1.342.639m-5.018-1.951 10.618-10.57.76.766 13.49-13.406a51 51 0 0 0-4.45-.532L55.93 26.526l.76.767L45.476 38.45q.776.157 1.54.369m-5.87-.887 8.468-10.263.837.688L61.474 15a50 50 0 0 0-4.954.483l-8.78 10.639.838.688-9.17 11.114a29 29 0 0 1 1.739 0zm-5.074.305 6.523-10.093.908.59 7.885-12.208a49 49 0 0 0-5.28 1.696l-5.55 8.596.908.589-7.225 11.185a26 26 0 0 1 1.831-.362zm-5.635 1.568 4.691-8.793.95.51L42.29 19.89a49 49 0 0 0-5.741 3.293l-3.57 6.686.957.51-5.521 10.349q.987-.503 2.016-.916zM26.39 41.87l1.995-5.664 1.021.363 3.876-11.001a50 50 0 0 0-5.522 5.103l-1.668 4.734 1.022.362-2.611 7.41a26 26 0 0 1 1.88-1.3zm-4.975 4.053.88-4.117 1.058.228 1.774-8.29a49.6 49.6 0 0 0-4.933 7.608l.788.171-1.618 6.813a26 26 0 0 1 2.051-2.413m-3.654 4.812v-5.45c-1.32 3.484-2.258 7.82-2.761 12.072a26 26 0 0 1 2.76-6.622M15.036 70.77a49 49 0 0 0 2.69 10.454V77.2a26 26 0 0 1-2.69-6.43m4.5 9.12 1.412 6.586-.788.17a49 49 0 0 0 4.933 7.609l-1.775-8.29-1.057.228-.894-4.167a25 25 0 0 1-1.831-2.143zm4.918 4.897 2.626 7.453-1.022.361 1.668 4.734a50 50 0 0 0 5.522 5.103l-3.875-11-1.023.361-2-5.692a29 29 0 0 1-1.889-1.306zm3.918 2.463 5.536 10.376-.958.511 3.57 6.686a49 49 0 0 0 5.741 3.293l-6.21-11.633-.958.512-4.705-8.815a26 26 0 0 1-2.023-.923zm5.827 2.143 7.232 11.2-.908.589 5.55 8.595a49 49 0 0 0 5.28 1.696l-7.885-12.207-.909.589-6.53-10.107q-.925-.149-1.838-.362zm5.167.682 9.17 11.114-.838.688 8.78 10.639c1.624.242 3.278.405 4.953.483L50.41 99.636l-.837.688-8.468-10.263c-.304.015-.617.015-.93.015-.269 0-.546 0-.815-.015zm6.082-.526 11.207 11.15-.76.767L67.4 112.915q2.236-.168 4.45-.533L58.365 98.969l-.766.773-10.61-10.56a27 27 0 0 1-1.541.368m5.224-1.667 13.918 11.42-.689.837 13.428 11.015a50 50 0 0 0 3.94-1.313l-15.146-12.42-.689.837-13.428-11.015q-.66.34-1.342.639zm3.946-2.172 16.48 10.483-.582.915 16.16 10.277a49 49 0 0 0 3.422-1.987L72.397 94.142l-.582.916-16.019-10.185a28 28 0 0 1-1.185.845zm4.542-3.861 17.992 9.376-.497.964 18.41 9.596q1.45-1.2 2.804-2.505L78.28 89.068l-.498.965-17.693-9.22q-.444.533-.923 1.037zm2.846-3.634 20.27 7.658-.383 1.015 20.284 7.658a53 53 0 0 0 2.179-2.938l-21.221-8.013-.384 1.015-20.028-7.566q-.342.595-.717 1.171m2.123-3.974 21.596 5.393-.262 1.05 22.101 5.522a48 48 0 0 0 1.519-3.243L86.315 77.28l-.263 1.05-21.427-5.35q-.238.635-.496 1.263m1.404-4.287 22.52 2.768-.135 1.079 23.336 2.874a51 51 0 0 0 .803-3.442l-23.705-2.917-.136 1.078-22.413-2.76a27 27 0 0 1-.27 1.327z"/></svg>
