<svg xmlns="http://www.w3.org/2000/svg" viewBox="0 0 128 128"><path fill="#111827" stroke="#e5e7eb" stroke-width="4" d="M64 2c34.242 0 62 27.758 62 62s-27.758 62-62 62S2 98.242 2 64 29.758 2 64 2Z"/><path fill="#fff" d="M92.921 32.728c0 5.324-13.017 9.64-29.073 9.64s-29.074-4.316-29.074-9.64 13.017-9.64 29.074-9.64c16.056 0 29.073 4.316 29.073 9.64m19.383 52.379c0-6.562-11.863-12.205-28.865-14.7l-.44.089c-5.734 1.122-12.247 1.757-19.151 1.757-7.082 0-13.752-.668-19.592-1.846-17.002 2.495-28.864 8.138-28.864 14.7 0 8.873 21.694 16.066 48.456 16.066 26.761 0 48.456-7.193 48.456-16.067m-9.691-28.92c0-5.678-11.102-10.495-26.501-12.197l-.397.063c-3.665.572-7.671.887-11.867.887-4.348 0-8.492-.338-12.264-.95-15.399 1.701-26.5 6.52-26.5 12.197 0 7.099 17.355 12.854 38.764 12.854s38.765-5.755 38.765-12.854"/></svg>
