<svg xmlns="http://www.w3.org/2000/svg" fill="none" viewBox="0 0 1440 426" xmlns:xlink="http://www.w3.org/1999/xlink"><g filter="url(#a)"><path fill="url(#b)" fill-opacity=".3" d="M720 846.352c380.71 0 689.33-188.567 689.33-421.176S1100.71 4 720 4C339.295 4 30.672 192.567 30.672 425.176S339.295 846.352 720 846.352"/></g><path fill="#04171bff" d="M399.365 290.068c41.536 0 80.748 14.628 110.744 39.146 0 0 18.777-8.25 37.681-12.81s41.309-7.526 41.309-7.526c-44.932-54.93-112.772-89.918-188.675-89.918s-148.654 35.793-193.586 90.723c0 0 22.405 2.966 41.309 7.526s37.681 12.81 37.681 12.81c29.996-24.518 72.001-39.951 113.537-39.951m-40.388 85.793c10.839-8.151 24.682-10.524 40.388-10.524 15.707 0 27.043 2.715 39.536 10.524l14.846-12.237c-13.136-8.882-29.942-15.366-54.389-15.366-23.77 0-37.015 3.529-53.777 15.366 0 0 8.223 6.335 13.396 12.237"/><path fill="#04171bff" d="M399.358 311.319c39.543 0 58.057 8.455 87.537 24.275-9.578 5.411-13.42 8.849-18.28 13.042-19.603-9.802-47.757-17.344-69.25-17.344-26.894 0-48.023 7.476-69.461 20.368 0 0-9.485-7.022-18.355-11.247 23.878-18.564 47.428-29.094 87.809-29.094m428.068-21.251c41.536 0 80.748 14.628 110.744 39.146 0 0 18.777-8.25 37.681-12.81s41.309-7.526 41.309-7.526c-44.932-54.93-112.771-89.918-188.674-89.918S679.832 254.753 634.9 309.683c0 0 22.405 2.966 41.309 7.526s37.681 12.81 37.681 12.81c29.996-24.518 72.001-39.951 113.536-39.951m-40.387 85.793c10.838-8.151 24.681-10.524 40.387-10.524 15.707 0 27.044 2.715 39.536 10.524l14.847-12.237c-13.137-8.882-29.942-15.366-54.389-15.366-23.771 0-37.015 3.529-53.777 15.366 0 0 8.222 6.335 13.396 12.237"/><path fill="#04171bff" d="M827.42 313.319c39.542 0 58.057 8.455 87.536 24.275-9.577 5.411-13.42 8.849-18.28 13.042-19.602-9.802-47.757-17.344-69.25-17.344-26.894 0-48.022 7.476-69.46 20.368 0 0-9.485-7.022-18.355-11.247 23.877-18.564 47.428-29.094 87.809-29.094m428.07-23.251c41.54 0 80.75 14.628 110.74 39.146 0 0 18.78-8.25 37.68-12.81 18.91-4.56 41.31-7.526 41.31-7.526-44.93-54.93-112.77-89.918-188.67-89.918s-148.65 35.793-193.59 90.723c0 0 22.41 2.966 41.31 7.526 18.91 4.56 37.68 12.81 37.68 12.81 30-24.518 72-39.951 113.54-39.951m-40.39 85.793c10.84-8.151 24.68-10.524 40.39-10.524s27.04 2.715 39.54 10.524l14.84-12.237c-13.13-8.882-29.94-15.366-54.39-15.366-23.77 0-37.01 3.529-53.77 15.366 0 0 8.22 6.335 13.39 12.237"/><path fill="#04171bff" d="M1255.48 313.319c39.55 0 58.06 8.455 87.54 24.275-9.58 5.411-13.42 8.849-18.28 13.042-19.6-9.802-47.76-17.344-69.25-17.344-26.89 0-48.02 7.476-69.46 20.368 0 0-9.49-7.022-18.36-11.247 23.88-18.564 47.43-29.094 87.81-29.094"/><path fill="#04171bff" fill-rule="evenodd" d="M1469.52 416.802c-57.63 0-106.11 30.835-134.57 76.342 4.33 2.913 17.68 9.011 17.68 9.011 25.12-39.269 66.82-65.688 116.89-65.699z" clip-rule="evenodd"/><path fill="#04171bff" fill-rule="evenodd" d="M1469.52 394.279v-68.555c-90.54 0-167.07 43.638-210.44 116.048 0 0 12.79 11.722 27.46 22.886s29.38 18.948 29.38 18.948c30.05-55.099 86.42-89.326 153.6-89.327" clip-rule="evenodd"/><path fill="#04171bff" d="M1415.35 260.994c16.98-8.82 34.3-14.09 54.17-14.09v13.011c-15.69 0-29.14 4.219-42.73 10.42z"/><path fill="#04171bff" fill-rule="evenodd" d="M1469.52 208.528c-34.01 0-63.25 10.743-89.35 28.905l18.04 11.656c21.49-13.229 44.32-20.906 71.31-20.907zm.01-94.038c-78.5 0-147.66 34.947-193.16 91.825 0 0 22.69 1.772 40.09 5.484s41.77 14.039 41.77 14.039c30.6-25.174 68.58-40.29 111.3-40.29z" clip-rule="evenodd"/><path fill="#04171bff" d="M613.399 114.49c-78.499 0-147.659 34.947-193.152 91.825 0 0 22.688 1.772 40.09 5.484s41.766 14.039 41.766 14.039c30.601-25.174 68.582-40.29 111.3-40.29s76.933 15.921 107.533 41.096c0 0 24.364-10.328 41.767-14.04 17.402-3.711 41.222-5.483 41.222-5.483-45.494-56.879-112.027-92.631-190.526-92.631"/><path fill="#04171bff" d="M613.399 208.528c-34.019 0-63.251 10.743-89.354 28.905l18.043 11.656c21.491-13.229 44.314-20.906 71.311-20.907 26.547 0 47.733 8.201 69.039 21.001l16.911-12.103c-25.784-17.381-52.996-28.552-85.95-28.552"/><path fill="#04171bff" d="M559.223 260.994c16.986-8.82 34.305-14.09 54.174-14.09 19.996 0 35.071 5.991 51.913 14.751l-10.375 9.443c-13.912-6.658-24.994-11.156-41.536-11.156-15.687 0-29.143 4.192-42.736 10.393zM185.337 114.49c-78.498 0-147.658 34.947-193.152 91.825 0 0 22.689 1.772 40.091 5.484s41.766 14.039 41.766 14.039c30.6-25.174 68.577-40.28 111.295-40.28s76.937 15.911 107.538 41.086c0 0 24.364-10.328 41.766-14.04s41.222-5.483 41.222-5.483c-45.493-56.879-112.027-92.631-190.526-92.631"/><path fill="#04171bff" d="M185.337 208.555c-34.018 0-63.25 10.716-89.353 28.878l18.043 11.656c21.49-13.229 44.314-20.906 71.31-20.907 26.547 0 47.733 8.201 69.04 21.001l16.91-12.103c-25.783-17.381-52.995-28.525-85.95-28.525"/><path fill="#04171bff" d="M131.162 260.994c16.986-8.82 34.307-14.066 54.175-14.066 19.997 0 35.069 5.967 51.911 14.727l-10.375 9.443c-13.912-6.658-24.996-11.183-41.539-11.183-15.686 0-29.14 4.219-42.733 10.42zm54.171 64.73c-90.543 0-167.072 43.638-210.442 116.048 0 0 12.794 11.722 27.464 22.886s29.38 18.948 29.38 18.948c30.05-55.099 86.419-89.326 153.599-89.327 68.29.004 122.295 32.715 151.877 89.319 0 0 18.297-10.633 32.126-21.697 13.83-11.063 24.785-20.129 24.785-20.129-44.427-66.15-123.91-116.048-208.789-116.048"/><path fill="#04171bff" d="M185.337 416.835c-57.634 0-106.112 30.802-134.578 76.309 4.335 2.913 17.681 9.011 17.681 9.011 25.123-39.269 66.824-65.678 116.897-65.689 49.967 0 90.451 26.997 115.609 66.117 0 0 11.675-5.641 17.51-8.951-28.597-44.858-75.977-76.797-133.119-76.797m428.069-91.102c-90.544 0-167.084 43.629-210.453 116.039 0 0 12.794 11.722 27.463 22.886s29.381 18.948 29.381 18.948c30.049-55.099 86.429-89.304 153.609-89.305 68.29.004 122.285 32.693 151.867 89.297 0 0 18.297-10.633 32.126-21.697s24.785-20.129 24.785-20.129c-44.428-66.15-123.899-116.039-208.778-116.039"/><path fill="#04171bff" d="M613.399 416.835c-57.634 0-106.113 30.802-134.579 76.309 4.335 2.913 17.682 9.011 17.682 9.011 25.122-39.269 66.824-65.678 116.897-65.689 49.967 0 90.45 26.997 115.609 66.117 0 0 11.675-5.641 17.509-8.951-28.596-44.858-75.977-76.797-133.118-76.797m428.061-91.111c-90.548 0-167.077 43.638-210.446 116.048 0 0 12.794 11.722 27.464 22.886s29.38 18.948 29.38 18.948c30.049-55.099 86.429-89.304 153.612-89.305 68.29.004 122.28 32.693 151.87 89.297 0 0 18.29-10.633 32.12-21.697s24.79-20.129 24.79-20.129c-44.43-66.15-123.91-116.048-208.79-116.048"/><path fill="#04171bff" d="M1041.46 416.835c-57.637 0-106.112 30.802-134.579 76.309 4.336 2.913 17.682 9.011 17.682 9.011 25.123-39.269 66.821-65.688 116.897-65.699 49.97 0 90.45 27.007 115.61 66.127 0 0 11.68-5.641 17.51-8.951-28.6-44.858-75.98-76.797-133.12-76.797m-54.175-155.841c16.985-8.82 34.305-14.066 54.175-14.066 20 0 35.07 5.967 51.91 14.727l-10.37 9.443c-13.91-6.658-25-11.183-41.54-11.183-15.69 0-29.14 4.219-42.735 10.42z"/><path fill="#04171bff" d="M1041.46 208.528c-34.02 0-63.25 10.743-89.354 28.905l18.044 11.656c21.49-13.229 44.32-20.887 71.31-20.888 26.55 0 47.74 8.182 69.04 20.982l16.91-12.103c-25.78-17.381-52.99-28.552-85.95-28.552"/><path fill="#04171bff" d="M1041.46 114.49c-78.504 0-147.658 34.947-193.152 91.825 0 0 22.689 1.772 40.091 5.484s41.766 14.039 41.766 14.039c30.601-25.174 68.571-40.28 111.295-40.28 42.72 0 76.94 15.911 107.54 41.086 0 0 24.36-10.328 41.77-14.04 17.4-3.711 41.22-5.483 41.22-5.483-45.5-56.879-112.03-92.631-190.53-92.631M-28.696 290.068c41.536 0 80.748 14.628 110.743 39.146 0 0 18.777-8.25 37.681-12.81s41.309-7.526 41.309-7.526c-44.932-54.93-112.771-89.918-188.674-89.918zm-.007 23.251c39.543 0 58.057 8.455 87.537 24.275-9.578 5.411-13.42 8.849-18.28 13.042-19.603-9.802-47.758-17.344-69.25-17.344zm.007 52.018c15.706 0 27.043 2.715 39.536 10.524l14.846-12.237c-13.136-8.882-29.942-15.366-54.39-15.366z"/><defs><radialGradient id="b" cx="0" cy="0" r="1" gradientTransform="matrix(0 421.176 -689.328 0 720 425.176)" gradientUnits="userSpaceOnUse"><stop stop-color="#00b2bf"/><stop offset="1" stop-color="#071c8d" stop-opacity="0"/></radialGradient><filter id="a" width="1386.66" height="850.352" x="26.672" y="0" color-interpolation-filters="sRGB" filterUnits="userSpaceOnUse"><feFlood flood-opacity="0" result="BackgroundImageFix"/><feBlend in="SourceGraphic" in2="BackgroundImageFix" result="shape"/><feGaussianBlur result="effect1" stdDeviation="2"/></filter></defs></svg>
