<svg xmlns="http://www.w3.org/2000/svg" viewBox="0 0 128 128"><circle cx="64" cy="64" r="64" fill="#173132"/><path fill="#e2f6a1" d="M81.603 30.106c5.51-.212 11.053 2.092 15.411 5.346 4.135 3.037 7.152 7.508 8.272 12.529 1.389 6.003.423 12.365-1.35 18.182-1.805 5.828-4.48 11.425-7.539 16.692-6.17-3.597-12.388-7.12-18.548-10.74-3.504 6.09-7.702 12.08-12.758 16.983-4.115 3.936-9.053 7.353-14.688 8.602-4.547 1.036-9.305.44-13.552-1.44-5.043-2.231-9.667-5.834-12.215-10.816-2.787-5.267-3.014-11.44-2.012-17.21 1.389-7.978 4.973-15.815 8.995-22.8 6.157 3.616 12.39 7.116 18.54 10.745 1.655-2.778 3.338-5.532 5.252-8.144 3.737-5.196 8.304-10.3 13.721-13.779 3.77-2.41 7.956-4.026 12.471-4.15m-9.923 11.94c-2.547-.042-4.925 1.068-6.966 2.508-1.648 1.203-3.175 2.585-4.49 4.143-2.707 3.066-4.941 6.461-6.954 10.013-2.336 4.135-4.46 8.657-5.484 13.313-.567 2.646-.759 5.721.188 8.3 1.562 4.317 6.654 6.941 11.07 5.572 3.827-1.127 7.158-4.285 9.634-7.306 3.13-3.83 5.763-8.093 7.936-12.535 1.744-3.462 3.217-7.19 3.853-11.026.47-2.884.397-6.017-1.162-8.58-1.552-2.605-4.604-4.33-7.625-4.403"/></svg>
