<svg xmlns="http://www.w3.org/2000/svg" viewBox="0 0 128 128"><circle cx="64" cy="64" r="64" fill="#0e0c15"/><path fill="#4afc38" d="M50.465 35.75c-11.057-3.165-23.576 6.681-27.961 21.99-4.386 15.308 1.023 30.28 12.08 33.445 11.056 3.163 23.575-6.682 27.961-21.992 4.385-15.307-1.024-30.28-12.08-33.444m-1.863 14.379a5.757 5.757 0 0 1-6.217 5.261 5.756 5.756 0 1 1 .951-11.472 5.756 5.756 0 0 1 5.266 6.21m41.793-2.418c-8.635-2.469-18.409 5.218-21.832 17.17s.798 23.644 9.433 26.112c8.634 2.47 18.408-5.218 21.831-17.17s-.798-23.644-9.432-26.112m-1.272 13.836a5.757 5.757 0 0 1-6.217 5.261 5.755 5.755 0 1 1 .951-11.472 5.755 5.755 0 0 1 5.266 6.21"/></svg>
