<svg xmlns="http://www.w3.org/2000/svg" viewBox="0 0 128 128"><path fill="#18a2f7" d="m115.418 98.776-45.413 22.08-5.112-1.677V69.43l1.504-14.813 49.021-20.682h7.819v48.91l-1.804 10.062z"/><path fill="#5dbcff" d="M3.571 91.083V35.315l4.231-1.38L44.37 48.29l18.737 10.215v60.737l-3.928 2.208L7.802 97.709z"/><path fill="#1fb1f5" d="m51.697 6.704 11.539-1.941 48.279 18.03 5.77 8.043-54.05 22.745-49.797-20.248-2.126-6.657z"/><path fill="#3f8cff" fill-opacity=".74" d="M63.1 68.465 5.954 94.915l53.517 25.346h10.884l51.097-25.347z"/><path fill="#f5fefe" d="m116.667 21.971-47.27-20.52a17.56 17.56 0 0 0-14.22.104L10.314 21.813A17.52 17.52 0 0 0 0 37.81l.029 13.861L.008 90.13a17.52 17.52 0 0 0 10.322 15.976l45.11 20.343a17.55 17.55 0 0 0 14.216.099l47.2-20.496a17.52 17.52 0 0 0 10.549-16.127l-.187-51.95a17.53 17.53 0 0 0-10.551-16.004m-47.208-11.73 37.939 16.465c1.83.796 1.763 3.411-.106 4.111L70.528 44.572a22.32 22.32 0 0 1-15.918-.106L19.293 30.711c-1.833-.713-1.9-3.276-.11-4.087l36.055-16.28a17.56 17.56 0 0 1 14.221-.104M11.075 36.135l33.241 12.946a22.26 22.26 0 0 1 14.19 20.725l.023 45.782c0 1.611-1.663 2.686-3.135 2.022l-37.017-16.69A17.52 17.52 0 0 1 8.054 84.943l.018-33.277-.028-13.46a2.22 2.22 0 0 1 3.026-2.07zm55.5 79.607-.023-45.662A22.26 22.26 0 0 1 81.02 49.227l35.151-13.151c1.449-.542 2.995.524 3.001 2.068l.166 46.52a17.52 17.52 0 0 1-10.549 16.129l-39.11 16.982a2.22 2.22 0 0 1-3.103-2.032"/></svg>
