<svg xmlns="http://www.w3.org/2000/svg" viewBox="0 0 128 128"><circle cx="64" cy="64" r="64" fill="#caeae5"/><path d="M113.327 56.747v10.21c0 1.977-.66 2.636-2.639 2.307h-5.606c-1.979 0-4.617.988-5.936 2.964-5.277 6.258-10.883 12.187-16.49 18.116-1.648 1.647-3.627 2.635-5.936 2.635-7.255 0-7.915-.33-7.915-7.576V71.57c0-1.976-.66-2.635-2.308-2.305q-3.462 0-5.936 2.964l-15.83 17.786c-2.638 2.965-7.915 4.282-11.542 2.965-1.65-.659-2.639-1.976-2.639-3.953V72.228c0-5.6 0-2.635-2.968-2.635H16.37c-1.979 0-2.309-.659-2.309-2.306V54.441c0-5.599 4.287-9.88 9.894-9.88h7.255c1.979 0 2.309.658 2.309 2.305v17.457c0 5.929 0 2.306.989 2.964 1.319.989 2.308.66 3.298-.659 4.287-4.94 9.234-9.551 13.191-14.821 5.277-6.259 11.873-7.576 19.457-6.917 1.32 0 .99 1.317.99 1.976v18.775c0 .987.66 1.976 1.649 2.305.989 0 1.978 0 2.638-.988 4.617-5.27 9.234-10.21 13.851-15.48 3.957-4.283 8.574-6.588 14.181-6.259h6.925c1.319 0 1.979.33 1.979 1.976v10.87z"/></svg>
