<svg xmlns="http://www.w3.org/2000/svg" viewBox="0 0 128 128"><circle cx="64" cy="64" r="64" fill="#00f99b"/><path d="M87.4 33.068H66.573c-16.622 0-30.097 13.474-30.097 30.096v7.897a.367.367 0 0 0 .367.367h4.2a.367.367 0 0 0 .367-.367v-7.897c0-13.897 11.266-25.162 25.163-25.162h28.108a.354.354 0 0 0 .307-.541c-1.6-2.546-3.996-4.391-7.583-4.393z"/><path d="M97.664 45.213a.366.366 0 0 0-.36-.303h-30.73c-10.354 0-18.748 8.394-18.748 18.748v7.404a.37.37 0 0 0 .367.367h3.098a1.47 1.47 0 0 0 1.469-1.469v-6.302c0-7.63 6.185-13.815 13.815-13.815h31.193c.21 0 .377-.175.365-.385a39 39 0 0 0-.47-4.245M40.6 94.93h20.825c16.622 0 30.097-13.474 30.097-30.096v-7.897a.366.366 0 0 0-.367-.367h-4.2a.367.367 0 0 0-.367.367v7.897c0 13.897-11.266 25.163-25.162 25.163H33.319a.354.354 0 0 0-.307.54c1.6 2.546 3.995 4.391 7.583 4.393z"/><path d="M30.337 82.786c.03.175.182.303.36.303h30.729c10.354 0 18.748-8.394 18.748-18.749v-7.404a.365.365 0 0 0-.367-.367H76.71a1.47 1.47 0 0 0-1.469 1.469v6.302c0 7.63-6.185 13.815-13.814 13.815H30.232a.365.365 0 0 0-.365.385c.069 1.19.203 2.669.47 4.246"/></svg>
