<svg xmlns="http://www.w3.org/2000/svg" viewBox="0 0 128 128" xmlns:xlink="http://www.w3.org/1999/xlink"><path fill="url(#_sol-a)" d="m127.331 96.884-21.13 22.561a4.92 4.92 0 0 1-3.578 1.555H2.454a2.453 2.453 0 0 1-2.414-2.855c.08-.469.293-.904.615-1.254l21.104-22.56a4.9 4.9 0 0 1 3.578-1.555h100.169a2.45 2.45 0 0 1 2.285 1.45 2.425 2.425 0 0 1-.46 2.658m-21.13-45.446a4.96 4.96 0 0 0-3.578-1.555H2.454a2.46 2.46 0 0 0-2.25 1.468 2.44 2.44 0 0 0 .451 2.64L21.76 76.569a4.96 4.96 0 0 0 3.578 1.555h100.169a2.454 2.454 0 0 0 2.403-2.858 2.44 2.44 0 0 0-.614-1.25zM2.454 35.23h100.169a4.93 4.93 0 0 0 3.578-1.555l21.13-22.566a2.438 2.438 0 0 0-1.825-4.108H25.336a4.93 4.93 0 0 0-3.577 1.554L.655 31.122a2.442 2.442 0 0 0 1.8 4.108"/><defs><linearGradient id="_sol-a" x1="10.804" x2="115.344" y1="123.724" y2="5.369" gradientUnits="userSpaceOnUse"><stop offset=".08" stop-color="#9945ff"/><stop offset=".3" stop-color="#8752f3"/><stop offset=".5" stop-color="#5497d5"/><stop offset=".6" stop-color="#43b4ca"/><stop offset=".72" stop-color="#28e0b9"/><stop offset=".97" stop-color="#19fb9b"/></linearGradient></defs></svg>
