<svg xmlns="http://www.w3.org/2000/svg" viewBox="0 0 128 128"><circle cx="64" cy="64" r="64" fill="#072723"/><circle cx="64" cy="64" r="62" fill="none" stroke="#75cdb8" stroke-width="4"/><circle cx="64" cy="64" r="54" fill="none" stroke="#4a8e7e" stroke-width="3"/><path fill="#97fce4" d="M103.744 64.159c.071 6.407-1.269 12.53-3.902 18.38-3.759 8.329-12.771 15.14-21.001 7.89-6.712-5.909-7.957-17.905-18.013-19.661C47.523 69.154 47.203 84.59 38.51 86.335c-9.688 1.97-12.901-14.333-12.76-21.738.143-7.404 2.112-17.81 10.531-17.81 9.688 0 10.34 14.678 22.638 13.883 12.179-.83 12.392-16.102 20.349-22.64 6.866-5.648 14.941-1.507 18.985 5.292 3.747 6.289 5.396 13.67 5.479 20.837z"/></svg>
