<svg xmlns="http://www.w3.org/2000/svg" viewBox="0 0 132 19"><style>@media (prefers-color-scheme:dark){.color{fill:#fcfcfc}}</style><g class="color"><path d="M4.473 4.481a7.3 7.3 0 0 1 5.145-2.105h7.994a1.18 1.18 0 0 0 1.174-1.188C18.786.533 18.26 0 17.612 0H9.618a9.6 9.6 0 0 0-6.782 2.78C1.007 4.578 0 6.965 0 9.5s1.007 4.921 2.836 6.72A9.6 9.6 0 0 0 9.618 19h7.994a1.18 1.18 0 0 0 1.174-1.187 1.18 1.18 0 0 0-1.174-1.188H9.618a7.3 7.3 0 0 1-5.145-2.105c-1.37-1.35-2.125-3.132-2.125-5.019s.754-3.67 2.125-5.019M59.804.004c-.624.04-1.096.593-1.096 1.225v11.195c0 .931-1.113 1.396-1.764.738L44.275.349a1.17 1.17 0 0 0-1.53-.115 1.22 1.22 0 0 0-.475.982v16.556c0 .632.47 1.185 1.096 1.225a1.18 1.18 0 0 0 1.252-1.184V6.577c0-.931 1.114-1.397 1.765-.74l12.67 12.814a1.166 1.166 0 0 0 1.419.187c.372-.217.585-.633.585-1.067V1.188A1.18 1.18 0 0 0 59.804.004m49.348 0c-.624.04-1.097.593-1.097 1.225v11.195c0 .931-1.113 1.396-1.764.738L93.641.367a1.19 1.19 0 0 0-1.023-.354c-.591.093-1 .6-1 1.176V17.77c0 .632.47 1.185 1.096 1.225a1.18 1.18 0 0 0 1.252-1.184V6.577c0-.931 1.113-1.397 1.764-.739l12.67 12.813a1.166 1.166 0 0 0 1.419.187c.372-.217.585-.633.585-1.067V1.19a1.18 1.18 0 0 0-1.252-1.185M80.677-.452H64.28c-.625 0-1.171.476-1.211 1.108a1.18 1.18 0 0 0 1.171 1.267h6.4a.65.65 0 0 1 .645.653V17.32c0 .632.471 1.184 1.096 1.225a1.18 1.18 0 0 0 1.253-1.185V2.576a.65.65 0 0 1 .645-.653h6.36c.624 0 1.17-.476 1.21-1.109a1.18 1.18 0 0 0-1.17-1.266zm5.02.452a1.18 1.18 0 0 0-1.174 1.187v16.625a1.18 1.18 0 0 0 1.174 1.187 1.18 1.18 0 0 0 1.174-1.187V1.188A1.18 1.18 0 0 0 85.697.001zM30.525 0C28.02 0 25.66 1.019 23.88 2.868a9.83 9.83 0 0 0-2.747 6.86v8.083A1.18 1.18 0 0 0 22.307 19a1.18 1.18 0 0 0 1.174-1.187V9.726c0-1.96.738-3.808 2.081-5.203 1.334-1.386 3.097-2.15 4.963-2.15s3.629.763 4.963 2.15a7.46 7.46 0 0 1 2.082 5.203v8.084A1.18 1.18 0 0 0 38.743 19a1.18 1.18 0 0 0 1.174-1.187V9.726a9.83 9.83 0 0 0-2.746-6.859C35.39 1.02 33.03 0 30.525 0"/><path d="M30.53 9.5a1.18 1.18 0 0 0-1.175 1.187v7.124A1.18 1.18 0 0 0 30.53 19a1.18 1.18 0 0 0 1.174-1.187v-7.125A1.18 1.18 0 0 0 30.53 9.5m98.262-6.632C127.012 1.02 124.652 0 122.146 0c-2.505 0-4.866 1.019-6.645 2.868a9.83 9.83 0 0 0-2.747 6.86v8.083A1.18 1.18 0 0 0 113.928 19a1.18 1.18 0 0 0 1.174-1.187V9.726c0-1.96.738-3.808 2.081-5.203 1.334-1.386 3.097-2.15 4.963-2.15s3.629.763 4.963 2.15a7.46 7.46 0 0 1 2.082 5.203v8.084a1.18 1.18 0 0 0 1.174 1.19 1.18 1.18 0 0 0 1.174-1.187V9.726a9.83 9.83 0 0 0-2.747-6.859"/><path d="M122.147 9.5a1.18 1.18 0 0 0-1.174 1.187v7.124A1.18 1.18 0 0 0 122.147 19a1.18 1.18 0 0 0 1.173-1.187v-7.125a1.18 1.18 0 0 0-1.173-1.187"/></g></svg>
