<svg xmlns="http://www.w3.org/2000/svg" viewBox="0 0 220 42"><style>@media (prefers-color-scheme:dark){.color{fill:#fff}}</style><path d="M53.346 22.62c0 5.227 3.287 8.69 8.319 8.69 4.328 0 7.548-2.63 8.051-6.459H65.59c-.436 1.798-1.879 2.796-3.925 2.796-2.617 0-4.227-1.93-4.227-5.026s1.745-5.06 4.361-5.06c1.946 0 3.321.965 3.79 2.83h4.094c-.437-3.962-3.523-6.459-8.051-6.459-4.898 0-8.286 3.595-8.286 8.689m18.444-.001c0 5.127 3.723 8.656 8.855 8.656s8.856-3.529 8.856-8.655c0-5.127-3.723-8.656-8.856-8.656-5.132 0-8.856 3.529-8.856 8.656m4.092 0c0-2.995 1.945-5.026 4.763-5.026s4.764 2.03 4.764 5.027c0 2.996-1.946 5.026-4.764 5.026s-4.763-2.03-4.763-5.026m23.674 8.687c2.516 0 4.663-1.099 5.669-2.996l.269 2.563h3.757V6.11h-4.059v10.42c-1.04-1.632-3.086-2.597-5.401-2.597-4.999 0-8.018 3.662-8.018 8.788 0 5.094 2.986 8.589 7.783 8.589m.906-3.729c-2.852 0-4.596-2.063-4.596-4.993s1.744-5.027 4.596-5.027c2.851 0 4.696 2.064 4.696 5.027s-1.845 4.993-4.696 4.993m20.468 3.729c4.327 0 7.346-2.165 8.05-5.76h-3.79c-.47 1.565-1.946 2.43-4.193 2.43-2.718 0-4.261-1.465-4.563-4.36l12.479-.034v-1.232c0-5.126-3.153-8.422-8.118-8.422-4.864 0-8.252 3.562-8.252 8.722 0 5.093 3.455 8.655 8.387 8.655m-.101-14.049c2.449 0 4.025 1.498 4.025 3.762h-8.319c.403-2.464 1.878-3.762 4.294-3.762m29.676 8.99v-3.73h-2.986V6.543h-5.401l-11.103 15.979v3.728h12.445v4.627h4.059V26.25zm-14.928-3.73 7.883-11.384V22.52zm28.697-8.155a7.3 7.3 0 0 0-1.811-.233c-2.214 0-3.791 1.098-4.495 2.73l-.235-2.397h-3.858v16.411h4.093v-7.989c0-3.196 1.845-4.76 4.797-4.76h1.509zM173.9 31.31c4.327 0 7.347-2.165 8.051-5.76h-3.791c-.469 1.565-1.945 2.43-4.193 2.43-2.717 0-4.26-1.465-4.562-4.36l12.479-.034v-1.232c0-5.126-3.153-8.422-8.118-8.422-4.864 0-8.252 3.562-8.252 8.722 0 5.093 3.455 8.655 8.386 8.655m-.101-14.049c2.449 0 4.026 1.498 4.026 3.762h-8.319c.402-2.464 1.878-3.762 4.293-3.762m15.453 13.616v-8.855c0-2.663 1.543-4.394 4.059-4.394 2.113 0 3.488 1.332 3.488 4.095v9.154h4.093v-10.12c0-4.26-2.146-6.824-6.306-6.824-2.248 0-4.261.966-5.301 2.63l-.335-2.13h-3.791v16.444zm20.592.434c2.584 0 4.831-1.166 5.536-2.864l.303 2.43h3.588V20.89c0-4.561-2.751-6.958-7.212-6.958-4.495 0-7.447 2.33-7.447 5.892h3.488c0-1.73 1.343-2.73 3.757-2.73 2.079 0 3.422.9 3.422 3.13v.366l-4.964.366c-3.926.3-6.139 2.197-6.139 5.227 0 3.095 2.147 5.126 5.668 5.126m1.343-3.063c-1.846 0-2.852-.733-2.852-2.23 0-1.332.973-2.165 3.522-2.398l3.455-.266v.866c0 2.53-1.609 4.028-4.125 4.028" class="color"/><path fill="#4d26bc" d="M43.678 25.02 41.23 13.594a2 2 0 0 0-.092-.298c-.347-1.188-.813-1.445-1.44-1.945-.58-.432-.83-.595-.83-.595s-1.588 3.595-2.02 3.936c-4.247 3.348-11.362 8.564-13.1 9.505l-.033.017a4.24 4.24 0 0 1-1.886.59V42a8.8 8.8 0 0 0 4.212-1.192c1.92-1.047 7.03-5.068 13.017-9.834l2.347-1.866c1.56-1.233 2.309-2.457 2.292-3.748a2 2 0 0 0-.02-.34"/><path fill="#2c0e83" d="M20.296 24.426 6.77 14.585a1.7 1.7 0 0 1-.299-.317 1.8 1.8 0 0 0-.286-.91 1.84 1.84 0 0 0-.712-.642l.087-1.96s-.283.183-.927.568c-.81.481-1.419.833-1.836 2.724l-.314 1.548-1.966 9.725q-.041.206-.036.416c.046 1.758 1.573 2.99 1.922 3.248L17.83 40.712a6.58 6.58 0 0 0 4 1.288V24.886a2.32 2.32 0 0 1-1.533-.46"/><path fill="#7547f5" d="M40.283 11.485a1 1 0 0 1-.077-.06C39.72 11.021 30.16 4.567 24.503.757A4.4 4.4 0 0 0 21.953 0a4.4 4.4 0 0 0-2.521.843l-.692.514c-1.2.887-3.43 2.528-6.118 4.409-3.082 2.159-5.918 4.037-8.44 5.527-1.072.631-2.062 2.34.643 4.423C5.11 15.927 19.34 26.3 19.34 26.3c1.633 1.182 3.566 1.077 5.485-.017 1.867-1.013 8.477-5.876 12.646-9.122l1.059-.828q.146-.116.274-.23c1.781-1.447 3.275-3.4 1.479-4.619"/></svg>
