<svg xmlns="http://www.w3.org/2000/svg" viewBox="0 0 143 26"><style>@media (prefers-color-scheme:dark){.color{fill:#fcfcfc}}</style><path d="M11.113 9.64v1.3C9.951 9.845 8.291 9.234 6.397 9.234 2.51 9.235 0 11.708 0 15.53s2.51 6.255 6.397 6.255c1.83 0 3.546-.631 4.716-1.704-.016 2.117-1.409 3.146-4.25 3.146-1.612 0-3.122-.41-4.256-1.15l-.384-.251-1.203 2.49.292.194C2.603 25.389 4.984 26 7.105 26c3.474 0 7.186-1.656 7.186-6.296V9.64zm0 7.311c-.951 1.433-2.25 2.102-4.089 2.102-2.506 0-3.886-1.251-3.886-3.523 0-2.271 1.38-3.542 3.886-3.542 1.838 0 3.138.672 4.09 2.105zM24.94 9.417v2.874h-.404c-2.413 0-4.17 1.017-4.838 2.786v6.47H16.52V9.64h3.178v1.66c1.105-1.183 2.85-1.883 4.838-1.883zm7.528-.202c-4.51 0-7.308 2.453-7.308 6.396s2.798 6.357 7.308 6.357 7.307-2.434 7.307-6.357-2.801-6.396-7.307-6.396m0 9.96c-2.612 0-4.17-1.333-4.17-3.564s1.559-3.603 4.17-3.603 4.19 1.348 4.19 3.603-1.567 3.563-4.19 3.563m15.285-9.959c-4.51 0-7.312 2.453-7.312 6.396s2.802 6.357 7.312 6.357 7.308-2.434 7.308-6.357-2.802-6.396-7.308-6.396m0 9.96c-2.611 0-4.17-1.333-4.17-3.564s1.559-3.603 4.17-3.603 4.19 1.348 4.19 3.603-1.566 3.563-4.19 3.563m30.973-4.413v6.786h-3.138v-6.644c0-1.948-.894-2.895-2.732-2.895-1.648 0-2.883.814-3.664 2.421v5.049l.024 2.069h-3.162v-6.644c0-1.948-.895-2.895-2.733-2.895-1.62 0-2.838.79-3.623 2.344v7.195h-3.182V9.64h3.182v1.327c1.048-1.1 2.59-1.732 4.332-1.732 2.125 0 3.7.89 4.526 2.534 1.037-1.583 2.879-2.534 5.008-2.534 3.231 0 5.162 2.069 5.162 5.526m5.358-9.008h-3.158v15.794h3.158zM99.36 20.94c-.319-.564-.453-1.146-.453-1.948v-4.028c0-3.64-2.42-5.73-6.643-5.73-2.057 0-4.247.551-5.713 1.438l-.328.198 1.227 2.308.364-.21c1.247-.733 2.482-1.061 4.004-1.061 2.636 0 3.846.895 3.907 2.899-1.117-.903-2.704-1.421-4.433-1.421-2.972 0-5.972 1.324-5.972 4.27 0 2.948 3 4.296 5.972 4.296 1.785 0 3.421-.554 4.543-1.514q.122.475.372.907l.117.203h3.377zm-7.623-1.503c-.769 0-3.279-.125-3.279-1.781s2.51-1.761 3.28-1.761c1.113 0 3.097.227 4.032 1.712v.118c-.984 1.546-3.138 1.712-4.033 1.712m14.967-3.113-2.514 2.052v3.17h-3.182V5.758h3.182v9.263l6.328-5.376h4.154z" class="color"/><path d="M114.752 21.547h-3.753l-4.296-5.223h3.822zm5.912-12.332c-4.457 0-7.226 2.453-7.226 6.396s2.834 6.357 7.388 6.357c2.709 0 4.713-.66 6.304-2.085l.308-.276-1.928-2.068-.295.263c-1.219 1.077-2.417 1.498-4.267 1.498-1.749 0-3.867-.498-4.312-2.778h10.838l.093-.275c.061-.174.085-.36.085-.656 0-3.992-2.611-6.376-6.988-6.376m-3.846 4.817c.534-1.388 1.887-2.145 3.866-2.145s3.175.716 3.721 2.13zm22.628-10.854 3.179 7.251V0h-10.434zm0 10.429 3.179 7.255V10.43h-10.434zM129.013 3.178l3.178 7.251V0h-10.429z" class="color"/></svg>
