<svg xmlns="http://www.w3.org/2000/svg" viewBox="0 0 168 23"><style>@media (prefers-color-scheme:dark){.color{fill:#fff}}</style><path d="M63.901 2.566h3.46V17.5h-3.46v-6h-6.388v6h-3.46V2.566h3.46V8.3H63.9zm13.575 4.4h3.593l-6.521 15.067h-3.594l1.997-4.667-4.126-10.4h3.593l1.198 3.334 1.198 3.466 1.198-3.466 1.331-3.334zM89.054 6.7c.932 0 1.863.266 2.662.666s1.331 1.067 1.73 2c.399.8.665 1.734.665 2.8 0 1.067-.266 2-.665 2.8s-1.065 1.467-1.73 2c-.799.4-1.597.667-2.662.667s-2.395-.4-3.194-1.2v5.6h-3.327V6.966h2.928l.266 1.2c.932-.933 1.996-1.466 3.46-1.466zm-.798 8.133c.798 0 1.33-.267 1.863-.667.532-.533.665-1.2.665-2s-.266-1.466-.665-1.866c-.533-.534-1.065-.8-1.863-.8-.799 0-1.331.266-1.864.8-.399.533-.665 1.2-.665 1.866s.266 1.467.665 1.867c.533.533 1.065.8 1.864.8M101.032 6.7c1.198 0 2.129.266 2.928.666a4.2 4.2 0 0 1 1.863 1.867c.399.8.665 1.733.665 2.8v1.2h-7.719c0 .533.4.933.932 1.333.532.267 1.065.534 1.863.534.799 0 1.065 0 1.597-.267.533-.133.932-.4 1.331-.667l1.73 1.867c-.532.533-1.331.933-2.129 1.333-.799.267-1.73.4-2.662.4s-2.262-.266-3.194-.666-1.597-1.067-2.129-1.867c-.533-.8-.666-1.733-.666-2.933s.266-2 .666-2.934a7.1 7.1 0 0 1 1.996-2c.798-.533 1.863-.666 2.928-.666m.133 2.666c-.666 0-1.198.134-1.597.534s-.666.8-.666 1.466h4.658c0-.666-.266-1.066-.665-1.466s-.932-.534-1.597-.534zM114.473 6.7c.533 0 .932 0 1.464.266q.8.2 1.198.8l-1.464 2.4-.798-.4c-.267-.133-.533 0-.799 0-.665 0-1.331.267-1.73.667s-.665 1.067-.665 2V17.5h-3.328V6.966h2.928l.267 1.334q.998-1.6 2.794-1.6zm4.126-4.134h3.46V14.3h7.453v3.2h-11.046V2.566zM136.166 6.7c1.198 0 2.13.266 2.928.666a4.2 4.2 0 0 1 1.863 1.867c.4.8.666 1.733.666 2.8v1.2h-7.719c0 .533.399.933.931 1.333.533.267 1.065.534 1.864.534.798 0 1.064 0 1.597-.267.532-.133.931-.4 1.331-.667l1.73 1.867c-.533.533-1.331.933-2.13 1.333-.798.267-1.73.4-2.661.4-.932 0-2.263-.266-3.194-.666-.932-.4-1.598-1.067-2.13-1.867s-.665-1.733-.665-2.933.266-2 .665-2.934a7.1 7.1 0 0 1 1.996-2c.799-.533 1.864-.666 2.928-.666m0 2.666c-.665 0-1.197.134-1.597.534s-.665.8-.665 1.466h4.658c0-.666-.266-1.066-.666-1.466-.399-.4-.931-.534-1.597-.534zM150.007 6.7c1.331 0 2.396.4 3.061 1.333q1.198 1.2 1.198 3.6v6h-3.327V11.9c0-.667-.133-1.2-.533-1.6-.399-.4-.798-.534-1.464-.534s-1.197.267-1.597.667-.532 1.067-.532 1.733v5.6h-3.327V7.233h2.928l.266 1.2c.399-.533.932-.8 1.464-1.067s1.198-.4 1.863-.4zm17.7-4.134V17.5h-2.927l-.267-1.2c-.931.933-1.996 1.466-3.46 1.466s-1.863-.266-2.661-.666c-.799-.534-1.331-1.067-1.731-2a6.2 6.2 0 0 1-.665-2.8c0-1.067.266-2 .665-2.8.4-.8 1.065-1.467 1.731-2 .798-.534 1.597-.667 2.661-.667s2.396.4 3.194 1.2V2.7h3.327zm-5.855 12.267c.798 0 1.331-.267 1.863-.667.532-.533.665-1.2.665-2s-.266-1.466-.665-1.866c-.532-.534-1.065-.8-1.863-.8-.799 0-1.331.266-1.863.8-.4.533-.666 1.2-.666 1.866s.266 1.467.666 1.867c.532.533 1.064.8 1.863.8M40.212 5.367V9.5c0 .8-.266 1.067-1.065.934h-2.262c-.799 0-1.863.4-2.396 1.2-2.13 2.533-4.391 4.933-6.654 7.333-.665.667-1.464 1.067-2.396 1.067-2.927 0-3.193-.134-3.193-3.067v-5.6c0-.8-.267-1.067-.932-.933q-1.398 0-2.396 1.2l-6.388 7.2c-1.064 1.2-3.194 1.733-4.658 1.2-.665-.267-1.064-.8-1.064-1.6v-6.8c0-2.267 0-1.067-1.198-1.067H1.085c-.799 0-.932-.267-.932-.933v-5.2c0-2.267 1.73-4 3.993-4h2.928c.798 0 .931.266.931.933v7.067c0 2.4 0 .933.4 1.2.532.4.931.266 1.33-.267 1.73-2 3.727-3.867 5.324-6C17.189.834 19.849.3 22.91.567c.532 0 .4.533.4.8v7.6c0 .4.265.8.665.933.399 0 .798 0 1.064-.4 1.863-2.133 3.727-4.133 5.59-6.266C32.227 1.5 34.09.567 36.353.7h2.794c.533 0 .799.134.799.8v4.4z" class="color"/></svg>
