<svg xmlns="http://www.w3.org/2000/svg" viewBox="0 0 124 30"><style>@media (prefers-color-scheme:dark){.color{fill:#fff}}</style><path d="M25 5.974c.7 0 1.329.43 1.581 1.084l3.929 10.17L34.413 7.06a1.69 1.69 0 0 1 1.582-1.087h.518c1.193 0 2.013 1.2 1.578 2.312l-8.015 20.5a1.7 1.7 0 0 1-1.58 1.078h-.725c-.96 0-1.629-.955-1.3-1.857l2.044-5.625-5.722-14.075a1.695 1.695 0 0 1 1.57-2.333zm23.439-.46q2.374 0 4.135 1.133T55.3 9.756q.98 1.96.98 4.487 0 2.481-.965 4.457-.949 1.975-2.664 3.124-1.716 1.148-3.997 1.148-2.343 0-3.951-1.037v6.233c0 .937-.76 1.696-1.696 1.696h-.805c-.937 0-1.696-.76-1.696-1.696V7.67c0-.936.76-1.695 1.696-1.695h.284c.697 0 1.296.42 1.557 1.023q.207-.175.43-.334 1.608-1.149 3.966-1.149m12.824.46c.936 0 1.695.758 1.696 1.695v6.115q0 .566.061 1.454.061.873.383 1.762a3.4 3.4 0 0 0 1.041 1.485q.736.597 2.068.597.536 0 1.148-.168.612-.169 1.149-.643.535-.49.873-1.424.102-.277.176-.604.054-.242.176-.448V7.669c0-.937.759-1.695 1.696-1.695h.805c.936 0 1.695.758 1.695 1.695v13.148c0 .937-.76 1.696-1.695 1.696h-.285c-.936 0-1.695-.76-1.695-1.696v-.012q-.577.645-1.333 1.141-1.592 1.057-4.028 1.057-1.944 0-3.17-.658-1.224-.66-1.913-1.67a7.1 7.1 0 0 1-.966-2.098 11 11 0 0 1-.352-2.006q-.06-.904-.06-1.317V7.669c0-.937.758-1.695 1.695-1.695zM4.271.46c.936 0 1.695.759 1.695 1.695V7.83c0 .936.76 1.696 1.696 1.696h6.471c.937 0 1.696-.76 1.696-1.696V2.156c0-.936.759-1.695 1.695-1.695h.774c.937 0 1.696.759 1.696 1.695v18.662c0 .936-.76 1.695-1.696 1.695h-.774a1.695 1.695 0 0 1-1.695-1.695v-5.706c0-.937-.76-1.695-1.696-1.695H7.662c-.936 0-1.696.758-1.696 1.695v5.706c0 .936-.76 1.695-1.695 1.695h-.774a1.695 1.695 0 0 1-1.696-1.695V2.156A1.695 1.695 0 0 1 3.497.461zm109.426 0c.937 0 1.696.759 1.696 1.695v.774c0 .937-.759 1.696-1.696 1.696h-5.919c-.937 0-1.696.76-1.696 1.696v1.387c0 .936.759 1.695 1.696 1.695h4.082c.936 0 1.695.76 1.695 1.696v.774c0 .936-.759 1.696-1.695 1.696h-4.082c-.937 0-1.696.759-1.696 1.695v5.553c0 .936-.76 1.695-1.696 1.695h-.774a1.696 1.696 0 0 1-1.696-1.695V2.156c0-.936.76-1.695 1.696-1.695zM86.105 5.943c.854-.07 1.501.674 1.501 1.531v.765c0 .806-.805 1.42-1.608 1.486a4.5 4.5 0 0 0-1.638.414 3.7 3.7 0 0 0-2.007 2.22 5.2 5.2 0 0 0-.26 1.7v6.758c0 .937-.76 1.696-1.696 1.696h-.805c-.936 0-1.696-.76-1.696-1.696V7.67c0-.936.76-1.695 1.696-1.695h.958c.564 0 1.022.457 1.022 1.022v1.638a6 6 0 0 1 .46-.7q.536-.705 1.317-1.164a5.1 5.1 0 0 1 1.301-.567q.705-.215 1.455-.26m12.008 0c.855-.07 1.502.674 1.502 1.531v.765c0 .806-.806 1.42-1.608 1.486a4.5 4.5 0 0 0-1.639.414 3.7 3.7 0 0 0-2.006 2.22q-.26.752-.26 1.7v6.758c0 .937-.76 1.696-1.696 1.696H91.6c-.937 0-1.696-.76-1.696-1.696V7.67c0-.936.76-1.695 1.696-1.695h.958c.564 0 1.022.457 1.022 1.022v1.638q.206-.367.459-.7.537-.705 1.318-1.164a5.1 5.1 0 0 1 1.301-.567q.705-.215 1.454-.26m22.208.03c.937 0 1.696.76 1.696 1.696v13.148c0 .936-.759 1.695-1.696 1.695h-.774a1.695 1.695 0 0 1-1.695-1.695V7.669c0-.937.759-1.696 1.695-1.696zM47.827 9.22q-1.303 0-2.113.628-.797.628-1.165 1.761-.367 1.134-.367 2.634t.367 2.634 1.195 1.762q.841.627 2.236.627 1.348 0 2.205-.674.858-.673 1.271-1.807.414-1.148.414-2.542 0-1.379-.43-2.511-.428-1.149-1.331-1.823-.889-.689-2.282-.689M120.32 0c.937 0 1.696.76 1.696 1.696v.284c0 .936-.759 1.696-1.696 1.696h-.774c-.936 0-1.695-.76-1.695-1.696v-.284c0-.937.759-1.696 1.695-1.696z" class="color"/></svg>
