<svg xmlns="http://www.w3.org/2000/svg" viewBox="0 0 175 163"><path fill="#0c8a97" d="M123.469 5.236c-4.61 13.06-7.97 24.08-4.85 38.1 5.06 22.73 23.24 27 31.09 45.91 4 9.62 4.79 20.12 1.62 30.1-.28.89-2.62 6.62-2.94 6.81-.87.52-3.08-.56-4.37 1.39-1.37 2.08.74 2.96.38 4.34-.26 1.02-5.46 5.47-6.41 4.83-.86-2.23-1.32-6.41-4.68-5.39-4.13 1.25.79 7.99.13 8.9-7.95 3.12-16.96 2.67-24.93-.03 1.43-5.03-3.67-9.99-5.06-3.45-.39.02-.77.04-1.16-.08-2.22-.72-7.65-6.93-10.33-8.18 2.17-2.85 4.63-5.43 6.4-8.58s6.84-13.87 2.09-15.89c-5.2-2.21-5.92 6.75-7.4 10.07-.94 2.11-2.17 3.87-3.59 5.66-1.77.17-.57-.42-.54-1.28.05-1.4.51-7.38.18-8.08-.71-1.51-3.24-1.59-4.44-.68-2.17 1.64-2.12 13.19 3.3 11.54-1.47 1.62-6.96 7.17-8.81 7.45-1.3.2-2.24-6.47-5.68-3.7-2.99 2.42 1.47 5.32-.86 6.65-1.33.76-7.66 1.93-9.42 2.08-1.6.13-11.67.09-12.24-.49.95-3.65 1.62-7.84-3.8-6.05-.92.73-.87 2.77-1.19 3.82-.19.62.37.83-.74.72-1.66-.18-5.69-2.31-7.28-3.23-9.46-5.44-15.66-14.31-16.41-25.41.46-2.06 6.85-3.21 6.94-7.1s-3.7-2.9-5.51-.75c.45-3.53 2.9-7.36 4.78-10.46 10.45-17.2 22.01-27.26 23.21-49.29.56-10.26-1.97-20.21-3.5-30.25 25.32-.19 50.68 0 76 0zm-63.64 29.08c-.73.2-1.78 1.41-1.88 2.2-.07.55.9 7.23 1.13 7.86.76 2.08 4.4 1.99 4.87-.4s-.08-10.74-4.12-9.66m50 5.01c-3.97.59-2.26 11.14-.02 11.82 1.57.48 3.33.07 3.65-1.68.13-.71-.37-6.42-.53-7.45-.24-1.55-1.41-2.95-3.11-2.69zm-12.98 12.79c2.38-2.37-1.49-4.69-2.31-6.19-.97-1.77-.99-6.19-4.57-4.44-4.51 2.2 3.13 14.36 6.88 10.63m-11-3.25c-.94-.94-2.9-.69-3.86.15-1.44 1.26-2.75 14.02 2.65 11.65l1.11-1.4c-.16-2.08 1.29-9.21.1-10.4m-27.05 20.2c1.92-1.87 6.4-12.04 1.81-12.74-3.29-.5-3.27 4.2-4.12 6.19s-3.27 4-2.26 6.22c.95 2.08 3.14 1.73 4.57.34zm60-12.25c-3.86 1.36 3.03 10.63 5.96 10.92 2.17.22 3.73-1.73 2.64-3.67-.27-.49-5.27-6.63-5.65-6.87-.88-.54-1.98-.73-2.95-.39zm-23.95 19.3c1.6-1.6-.94-5.29-.92-7.64.02-2.67 3.15-5.54-1.63-6.64-4.98.98-4.04 12.37-1.03 14.34.99.65 2.73.78 3.58-.07zm-50.02-1.29c-1.79.52-2.54 5.28-4.36 7.16-1.27 1.31-4.93 2.42-4.29 4.77 1.59 5.88 9.58-2.31 10.88-5.18 1.14-2.52 2-7.97-2.23-6.75m65.99.51c-2.09.63-1.15 3.88-1.4 5.61-.45 3.14-3.13 4.57-3.38 6.15-.39 2.5 2.21 3.64 4.38 2.34 4.51-2.7 6.91-16.06.4-14.11zm-50.99 3.49c-3.55 1.06-6.53 11.78-2.08 12.43 3.65.53 2.89-3.63 3.33-5.65.3-1.37 1.69-2.47 1.88-3.65.36-2.15-.83-3.82-3.14-3.13zm20 1.56c-1.87-1.56-4.26-.13-4.39 2.08 1.3 2.42.77 9.38 2.75 10.8 1.85 1.33 4.14-.11 4.22-2.26.06-1.66-1.39-9.64-2.57-10.63zm58 10.94c-4.47 1.3 1.22 12.84 5.64 10.66 3.02-1.49-.32-4.45-.93-5.58-1.09-2.04-1.51-6.01-4.72-5.08zm-16 .49c-1.23.19-2.25 1.47-2.33 2.67 0 .89 4.77 7.01 5.7 7.76 2.72 2.17 5.68.07 4.38-2.88-.77-1.74-5.76-7.85-7.76-7.55zm-81.5 10.54c-3.2.66-7.23 5.82-2.88 7.19 2.28.72 3.2-1.99 4.86-2.22 1.32-.18 3.74 1.35 4.56-1.45 1.09-3.71-3.94-4.06-6.55-3.52zm80.52 19.26c1.8-1.81-.62-4.94-1.13-6.88-.46-1.74-.67-6.44-2.08-6.92-1.55-.33-2.77-.21-3.6 1.23-1.85 3.21 2.79 16.61 6.82 12.57zm-53-12.75c-1.16-1.34-4.64-1.04-4.87 1.68-.1 1.2 1.27 10.03 1.74 11.21 1.2 2.98 5.05 2.78 5.23-.28.06-.97-1.68-12.12-2.1-12.6zm63.45 5.98c-2.75.25-2.37 4.22-3.24 6.24-1.03 2.4-5.03 4.56-1.76 7.08 5.92 1.98 10.9-13.85 4.99-13.32z"/><path fill="#000505" d="M129.969.196c.06 1.69-.09 3.4 0 5.09h-6.61c-25.76 0-51.55-.19-77.3 0-2.2.02-4.42-.06-6.61 0l.51-5.09z"/><path fill="#000505" d="M40.969 5.236c2.16-.06 4.34.02 6.5 0 1.52 10.03 4.05 19.99 3.5 30.25-1.2 22.03-12.76 32.09-23.21 49.29-1.88 3.1-4.33 6.93-4.78 10.46 1.81-2.15 5.6-2.94 5.51.75-.09 3.89-6.47 5.04-6.94 7.1.75 11.1 6.95 19.97 16.41 25.41 1.59.92 5.63 3.05 7.28 3.23 1.11.12.55-.1.74-.72.31-1.05.27-3.09 1.19-3.82 5.42-1.8 4.75 2.39 3.8 6.05.57.58 10.64.63 12.24.49 1.76-.14 8.09-1.32 9.42-2.08 2.33-1.33-2.14-4.23.86-6.65 3.43-2.77 4.38 3.89 5.68 3.7 1.85-.28 7.34-5.84 8.81-7.45.4-.44.63-.39 1.5-1.5 1.42-1.8 2.64-3.56 3.59-5.66 1.49-3.33 2.2-12.28 7.4-10.07 4.75 2.02-.3 12.72-2.09 15.89s-4.23 5.74-6.4 8.58c2.68 1.25 8.12 7.47 10.33 8.18.39.13.77.1 1.16.08 1.39-6.54 6.48-1.58 5.06 3.45 7.98 2.7 16.99 3.14 24.93.03.65-.91-4.27-7.65-.13-8.9 3.35-1.01 3.82 3.17 4.68 5.39.95.64 6.15-3.81 6.41-4.83.35-1.37-1.75-2.25-.38-4.34 1.28-1.96 3.5-.87 4.37-1.39.32-.19 2.65-5.92 2.94-6.81 3.17-9.98 2.38-20.48-1.62-30.1-7.86-18.91-26.03-23.18-31.09-45.91-3.12-14.02.24-25.04 4.85-38.1h6.5c.38 7.37-2.73 9.91-4.27 16.48s-1.51 13 .1 19.41l.53.61c2.6 1.43 10.43.62 9.05 5.15-1.56 2.71-4.43 1.1-6.92 1.35-.7.68 4.15 9.08 5.24 10.01 3.13 2.66 12.78.95 13.67 3.84 1.23 3.95-2.54 3.93-5.41 3.65-1.21 1.2 4.61 5.29 5.51 6.23 6 6.33 10.89 17.07 12.34 25.66.44 2.6.27 6.03.75 8.25.52 2.4 5.41 5.2 2.44 7.65-.98.8-2.31.46-2.97 1.53-.21.35-2.13 7.52-2.09 7.93.18 2.06 5.01 1.57 4.53 4.97-.44 3.13-4.77 1.4-6.75.78l-.77 1.24c1.62 1.34 3.63 3.59 1.28 5.29-2.06 1.5-3.73-.89-4.79-.33-.34.18-3.25 3.92-4.24 4.8-9.73 8.78-21.88 11.89-34.78 9.25-1.6-.33-5.09-1.89-6.22-1.78-1.75.18-2.55 3.85-5.77 2.26-2.56-1.46.59-4.16-.45-5.52l-13.87-10.65c-.34-.07-5.07 2.54-5.41 2.94-1.69 1.98.6 7.03-3.09 7.38-2.29.21-3.02-3.07-2.68-4.89-4.19.95-8.43 2.22-12.75 2.49-3.46.22-9.44-.96-11.97-.47-1.3.25-1.77 1.47-3.48 1.46-2.3-.02-1.78-2.11-3.32-3.2-1.66-1.17-6.59-2.76-8.98-4.02-1.74-.92-5.06-3.88-6.71-3.76-.89.07-1.77.88-3.02 1.01-2.22.24-7.39.65-7.66-2.34-.35-3.86 6.34-2.27 6.4-2.92l-4.77-7.73c-1.63-1.83-3.19 3.23-5.01 3.5-3.28.49-3.46-2.7-2.04-5.09 1.83-3.1 5.45-3.74 3.3-8.42-2.58 1.02-7.97-.15-6.9-3.66.93-3.04 5.25-.46 6.2-1.82a41.1 41.1 0 0 1 5.13-19.87c1.34-2.43 5.46-6.88 6.09-8.92.31-1.02-.29-.62-.75-.73-2.11-.5-6.06-.25-5.17-3.65s8.54-.5 11.64-3.4c.93-.87 5.02-8.01 5.87-9.63 1.23-2.35 2.14-4.81 3.35-7.17.17-1.75-3.08-.37-4.07-2.82-1.5-3.73 4.26-3.34 5.8-4.31s1.48-14.31 1.33-16.78c-.43-7.36-2.69-14.15-4-21.26.5-.02 1 .01 1.5 0z"/><path fill="#000505" d="M87.969 121.236c-5.41 1.65-5.46-9.9-3.3-11.54 1.2-.91 3.73-.83 4.44.68.33.7-.13 6.68-.18 8.08-.03.86-1.23 1.45.54 1.28-.87 1.11-1.1 1.06-1.5 1.5m-43.14-46.41c4.22-1.23 3.37 4.23 2.23 6.75-1.3 2.87-9.29 11.06-10.88 5.18-.64-2.35 3.02-3.45 4.29-4.77 1.82-1.88 2.57-6.64 4.36-7.16m65.99.51c6.51-1.95 4.11 11.41-.4 14.11-2.17 1.3-4.77.16-4.38-2.34.25-1.59 2.93-3.01 3.38-6.15.25-1.73-.7-4.98 1.4-5.61zm-42.97 33.53c.42.48 2.15 11.63 2.1 12.6-.18 3.06-4.04 3.26-5.23.28-.47-1.18-1.84-10-1.74-11.21.23-2.72 3.71-3.01 4.87-1.68zm27-32.75c-.85.85-2.59.72-3.58.07-3.02-1.97-3.96-13.37 1.03-14.34 4.78 1.1 1.65 3.97 1.63 6.64-.02 2.35 2.52 6.03.92 7.64zm26 45.5c-4.02 4.04-8.67-9.36-6.82-12.57.83-1.44 2.05-1.56 3.6-1.23 1.41.48 1.62 5.18 2.08 6.92.51 1.93 2.93 5.07 1.13 6.88zm-62.05-52.55c-1.43 1.39-3.62 1.74-4.57-.34-1.01-2.22 1.43-4.26 2.26-6.22s.83-6.69 4.12-6.19c4.59.7.11 10.88-1.81 12.74zm72.5 45.78c5.91-.53.93 15.3-4.99 13.32-3.27-2.52.73-4.68 1.76-7.08.87-2.01.48-5.99 3.24-6.24zm-51.47-34.46c1.18.99 2.63 8.96 2.57 10.63-.07 2.15-2.37 3.59-4.22 2.26-1.98-1.42-1.45-8.38-2.75-10.8.13-2.2 2.52-3.64 4.39-2.08zm42 11.43c2-.3 6.99 5.81 7.76 7.55 1.3 2.95-1.66 5.05-4.38 2.88-.93-.75-5.7-6.87-5.7-7.76.08-1.2 1.09-2.48 2.33-2.67zm-62-12.99c2.31-.69 3.49.97 3.14 3.13-.19 1.17-1.58 2.28-1.88 3.65-.45 2.03.32 6.19-3.33 5.65-4.45-.65-1.47-11.37 2.08-12.43zm58.97-22.01c.97-.34 2.07-.15 2.95.39.38.23 5.38 6.38 5.65 6.87 1.09 1.94-.48 3.88-2.64 3.67-2.93-.29-9.83-9.56-5.96-10.92zm-21.95-4.7c-3.75 3.73-11.39-8.43-6.88-10.63 3.58-1.75 3.6 2.67 4.57 4.44.83 1.5 4.69 3.83 2.31 6.19m-11-3.25c1.18 1.19-.27 8.33-.1 10.4l-1.11 1.4c-5.4 2.37-4.09-10.39-2.65-11.65.96-.84 2.92-1.09 3.86-.15m23.98-9.54c1.69-.25 2.87 1.15 3.11 2.69.16 1.02.66 6.74.53 7.45-.32 1.75-2.08 2.17-3.65 1.68-2.24-.69-3.96-11.24.02-11.82zm-69.5 63.03c2.61-.54 7.63-.19 6.55 3.52-.82 2.8-3.24 1.27-4.56 1.45-1.66.23-2.58 2.93-4.86 2.22-4.36-1.37-.32-6.52 2.88-7.19zm97.5-11.03c3.21-.93 3.62 3.04 4.72 5.08.61 1.13 3.94 4.09.93 5.58-4.42 2.18-10.11-9.36-5.64-10.66zm-78-57.01c4.04-1.08 4.61 7.17 4.12 9.66s-4.1 2.48-4.87.4c-.23-.63-1.2-7.31-1.13-7.86.1-.79 1.14-2.01 1.88-2.2"/></svg>
