<svg xmlns="http://www.w3.org/2000/svg" viewBox="0 0 96 26"><style>@media (prefers-color-scheme:dark){.color{fill:#fff}}</style><path d="m37.922 20 2.173-13.091h1.196l-1.995 12.017h6.239L45.355 20zm9.901 0 1.636-9.818h1.145L48.967 20zm2.62-11.525a.84.84 0 0 1-.606-.243.78.78 0 0 1-.237-.588.8.8 0 0 1 .262-.562.84.84 0 0 1 .601-.243q.358 0 .607.249a.75.75 0 0 1 .237.588.76.76 0 0 1-.262.563.86.86 0 0 1-.601.236M51.977 20l1.637-9.818h1.106l-.256 1.508h.102a3.1 3.1 0 0 1 1.19-1.195q.759-.441 1.725-.441 1.01 0 1.585.48.576.473.767 1.303h.083q.46-.818 1.298-1.297.837-.486 1.911-.486 1.362 0 2.014.863.651.862.377 2.505L64.415 20h-1.138l1.1-6.578q.185-1.163-.3-1.745-.486-.58-1.458-.581-1.125 0-1.86.69-.729.684-.901 1.752L58.778 20h-1.164l1.119-6.68q.159-.998-.288-1.61-.441-.614-1.45-.614-.685 0-1.286.339-.594.332-1.01.926a3.3 3.3 0 0 0-.537 1.35L53.114 20zm15.464 0 1.637-9.818h1.144L68.585 20zm2.621-11.525a.84.84 0 0 1-.607-.243.78.78 0 0 1-.237-.588.8.8 0 0 1 .262-.562.84.84 0 0 1 .601-.243q.358 0 .608.249a.75.75 0 0 1 .236.588.76.76 0 0 1-.262.563.86.86 0 0 1-.6.236m3.687 5.389L72.73 20h-1.137l1.636-9.818h1.106l-.256 1.54h.102q.46-.754 1.272-1.208.819-.46 1.899-.46.984 0 1.662.415.684.41.971 1.209.294.798.103 1.962L79.02 20h-1.138l1.049-6.29q.197-1.202-.352-1.905-.543-.71-1.681-.71-.774 0-1.438.333-.66.332-1.112.959a3.45 3.45 0 0 0-.601 1.476m10.986 6.36q-.888 0-1.566-.346a2.27 2.27 0 0 1-1.01-1.01q-.326-.665-.179-1.61.127-.729.486-1.228.365-.498.92-.818.556-.325 1.279-.511a12 12 0 0 1 1.572-.281q.83-.103 1.42-.18.587-.075.913-.242a.7.7 0 0 0 .39-.537l.038-.23q.166-1.004-.306-1.58-.473-.58-1.586-.58-1.06 0-1.84.472-.774.467-1.151 1.093l-1.01-.39a4 4 0 0 1 1.131-1.285 4.5 4.5 0 0 1 1.439-.696 5.5 5.5 0 0 1 1.514-.218q.564 0 1.145.147a2.7 2.7 0 0 1 1.042.512q.466.358.684 1.003.223.64.064 1.624L89.01 20h-1.138l.263-1.553h-.07q-.27.434-.742.843a3.9 3.9 0 0 1-1.119.672 3.9 3.9 0 0 1-1.47.262m.288-1.042q.907 0 1.642-.403.743-.402 1.215-1.067.48-.672.614-1.477l.236-1.419q-.14.12-.46.217a7 7 0 0 1-.71.173q-.39.07-.786.121l-.69.09a7.3 7.3 0 0 0-1.483.32q-.627.217-1.004.6-.377.378-.473.972-.147.895.39 1.387.543.486 1.509.486M95.348 6.909l-2.174 13.09h-1.137L94.21 6.91zM12.612.278a.86.86 0 0 0-1.267 0 .85.85 0 0 0-.219.495l-.931 10.248a3.45 3.45 0 0 1-2.312 2.943l-5.827 2.028a.6.6 0 0 0-.13.064C.708 16.477 0 16.98 0 17.52c0 1.17 3.333 2.167 7.987 2.537l3.161 5.478a.937.937 0 0 0 1.62 0l3.156-5.471c4.7-.365 8.076-1.366 8.076-2.544 0-.518-.652-1.001-1.781-1.412-3.919-.748-12.74-1.428-16.325.76 1.166-.925 5.046-2.406 12.156-2.218l-1.999-.687a3.45 3.45 0 0 1-2.325-2.96L12.831.775a.85.85 0 0 0-.219-.496" class="color"/></svg>
