<svg xmlns="http://www.w3.org/2000/svg" viewBox="0 0 107 36"><style>@media (prefers-color-scheme:dark){.color{fill:#fff}}</style><path d="M16.796 1.658c-8.215.728-14.66 7.715-14.66 16.228 0 8.998 7.2 16.291 16.08 16.291 4.31 0 8.223-1.718 11.11-4.516L7.36 17.637l11.597-7.21-6.853-4.808z" class="color"/><path d="m15.531 5.352 8.698 5.608-7.38 4.274 16.627 7.795a16.5 16.5 0 0 0 .818-5.143c0-8.257-6.063-15.08-13.925-16.146zm34.983 8.751V4.21h1.925v13.472h-1.925l-5.64-9.545v9.545h-1.925V4.21h1.925zm15.506 3.579h-1.982L62.971 14.7h-5.774l-1.067 2.983h-1.982L59.084 4.21h2zM60.094 6.597l-2.249 6.274h4.478zM71.18 17.682h-1.925V6.04h-4.04V4.21h10.023v1.83H71.18zm7.733 0h-1.925V4.21h1.925zm8.965 0h-2L81.112 4.21h2.077l3.678 11.086L90.565 4.21h2.058zm15.452 0h-8.709V4.21h8.709v1.83h-6.784v3.887h6.574v1.829h-6.574v4.1h6.784zM44.085 31.278h-1.136v-7.944h1.125l2.26 5.492 2.272-5.492h1.113v7.944h-1.136v-5.152l-1.878 4.357h-.73l-1.89-4.357zm13.984 0h-1.17l-.63-1.76h-3.407l-.63 1.76h-1.17l2.913-7.944h1.181zM54.57 24.74l-1.327 3.7h2.643zm10.064.818c0 1.26-.529 1.963-1.71 2.224l1.63 3.496h-1.281l-1.597-3.382h-1.462v3.382h-1.136v-7.944h2.61c2.057 0 2.946.67 2.946 2.224m-2.958-1.146h-1.462v2.406h1.462c1.27 0 1.822-.363 1.822-1.203s-.551-1.203-1.822-1.203m10.187 6.866h-1.418l-2.507-3.768-.72.851v2.917h-1.136v-7.944h1.136v3.54l2.935-3.54h1.338l-2.744 3.336zm6.733 0h-5.139v-7.944h5.14v1.078h-4.004v2.292h3.88v1.078h-3.88V30.2h4.003zm4.564 0h-1.135v-6.866H79.64v-1.078h5.915v1.078H83.16zm5.833.17c-1.72 0-3.048-1.124-3.048-2.746l1.069-.33c.067 1.18.91 1.998 2.035 1.998 1.057 0 1.698-.522 1.698-1.26 0-1.94-4.386-.93-4.386-3.904 0-1.202 1.001-2.042 2.508-2.042 1.653 0 2.755.862 2.755 2.11l-1.034.33c0-.795-.686-1.362-1.72-1.362-.822 0-1.373.442-1.373 1.044 0 1.69 4.386.896 4.386 3.79 0 1.407-1.158 2.372-2.89 2.372" class="color"/></svg>
