<svg xmlns="http://www.w3.org/2000/svg" viewBox="0 0 272 27"><style>@media (prefers-color-scheme:dark){.color{fill:#fff}}</style><path d="M4.57 4.38v6.78h4.95c2.13 0 3.6-1.41 3.6-3.39 0-1.95-1.47-3.39-3.6-3.39zm0 16.62H.85V1.11H10c3.96 0 6.93 2.82 6.93 6.66 0 3.81-2.94 6.63-6.93 6.63H4.57zm21.18-2.79c2.46 0 4.17-1.95 4.17-4.29 0-2.37-1.74-4.2-4.17-4.2s-4.05 1.83-4.05 4.2c0 2.34 1.62 4.29 4.05 4.29M33.37 21h-3.12l-.3-1.77c-.99 1.26-2.49 2.07-4.77 2.07-3.96 0-6.93-3.12-6.93-7.41 0-4.26 2.97-7.26 6.93-7.26 2.28 0 3.78.81 4.77 2.07l.24-1.77h3.18zm3.103-4.8h3.27c.18 1.53 1.47 2.28 2.88 2.28 1.23 0 2.37-.51 2.37-1.59 0-1.17-1.35-1.47-3.27-1.8-2.25-.39-4.98-1.02-4.98-4.02 0-3.06 2.91-4.44 5.7-4.44 2.88 0 5.61 1.56 5.73 4.77h-3.27c-.12-1.26-1.35-1.98-2.64-1.98-1.11 0-2.22.51-2.22 1.44 0 .78.81 1.14 2.73 1.53 2.52.48 5.67.93 5.67 4.2 0 3.21-3.09 4.74-6.06 4.74-3.09 0-5.88-1.71-5.91-5.13M51.556 21V.36h3.51v8.16c.57-.72 1.92-1.89 4.26-1.89 3.63 0 5.67 2.34 5.67 5.61V21h-3.51v-7.89c0-2.04-1.14-3.24-3.03-3.24s-3.39 1.2-3.39 3.24V21zm16.293-7.02c0-4.17 3.18-7.35 7.56-7.35s7.56 3.18 7.56 7.35c0 4.14-3.18 7.32-7.56 7.32s-7.56-3.18-7.56-7.32m7.56 4.14c2.4 0 4.11-1.8 4.11-4.14 0-2.37-1.71-4.17-4.11-4.17s-4.11 1.8-4.11 4.17c0 2.34 1.71 4.14 4.11 4.14m16.155-.57 3.78-10.62h3.75L93.604 21h-4.08l-5.49-14.07h3.75zm23.408-12.51-3.66 8.85h7.35zm-6.3 15.96h-3.96l8.19-19.89h4.17l8.16 19.89h-3.96l-1.62-4.11h-9.39zm28.038-6.15V6.93h3.48v8.31c0 3.57-2.67 6.06-6.6 6.06s-6.6-2.43-6.6-6V6.93h3.51v7.92c0 1.89 1.26 3.27 3.09 3.27 1.86 0 3.12-1.38 3.12-3.27m13.846 3.36c2.4 0 4.14-1.95 4.14-4.29 0-2.37-1.74-4.2-4.14-4.2-2.49 0-4.11 1.83-4.11 4.2 0 2.34 1.62 4.29 4.11 4.29m7.65 2.79h-3.3l-.15-1.77c-.96 1.2-2.55 2.07-4.83 2.07-3.93 0-6.9-3.12-6.9-7.38 0-4.29 2.97-7.29 6.9-7.29 2.31 0 3.78.87 4.77 2.07V.36h3.51zm7.661 0h-3.54V6.93h3.54zm-1.8-16.62c-1.2 0-2.1-.87-2.1-2.07s.9-2.1 2.1-2.1c1.23 0 2.13.9 2.13 2.1s-.9 2.07-2.13 2.07m4.257 5.46V6.93h2.55v-3.9l3.42-.66v4.56h4.35v2.91h-4.32v5.91c0 1.86 1.2 2.43 2.88 2.43.36 0 .78-.03 1.08-.12v3.06c-.51.15-1.26.21-1.83.21-3.36 0-5.61-1.68-5.61-5.4V9.84zm28.578 3.51v-2.91h10.41V21h-2.7l-.21-2.79c-1.62 1.83-3.93 3.09-7.05 3.09-5.97 0-10.32-4.32-10.32-10.26 0-5.91 4.38-10.23 10.29-10.23 4.95 0 9.06 2.73 9.93 7.17h-3.9c-.78-2.31-3.12-3.69-5.85-3.69-3.78 0-6.63 2.73-6.63 6.75 0 4.65 3.27 6.78 6.6 6.78 2.85.03 5.73-1.5 6.39-4.47zM214.821 21h-3.51V6.93h3.09l.3 2.52c.72-1.77 2.31-2.82 4.47-2.82.39 0 .78.06.93.12v3.18c-.12-.03-.48-.09-.72-.09-2.73 0-4.56 1.83-4.56 4.65zm6.485-7.02c0-4.17 3.18-7.35 7.56-7.35s7.56 3.18 7.56 7.35c0 4.14-3.18 7.32-7.56 7.32s-7.56-3.18-7.56-7.32m7.56 4.14c2.4 0 4.11-1.8 4.11-4.14 0-2.37-1.71-4.17-4.11-4.17s-4.11 1.8-4.11 4.17c0 2.34 1.71 4.14 4.11 4.14m20.11-3.27V6.93h3.48v8.31c0 3.57-2.67 6.06-6.6 6.06s-6.6-2.43-6.6-6V6.93h3.51v7.92c0 1.89 1.26 3.27 3.09 3.27 1.86 0 3.12-1.38 3.12-3.27m14.985 3.36c2.46 0 4.08-1.83 4.08-4.2 0-2.34-1.62-4.29-4.08-4.29-2.43 0-4.17 1.95-4.17 4.29 0 2.37 1.74 4.2 4.17 4.2m.6 3.09c-2.31 0-3.78-.81-4.74-2.01v7.56h-3.51V6.93h3.12l.24 1.89c.9-1.32 2.43-2.19 4.8-2.19 4.05 0 6.99 3.12 6.99 7.38 0 4.29-2.94 7.29-6.9 7.29" class="color"/></svg>
