<svg xmlns="http://www.w3.org/2000/svg" viewBox="0 0 134 30"><style>@media (prefers-color-scheme:dark){.color{fill:#fff}}</style><path fill-opacity=".5" d="M12.198 23.54c6.363 0 11.521-5.158 11.521-11.52 0-6.364-5.158-11.522-11.521-11.522S.677 5.656.677 12.019 5.835 23.54 12.197 23.54" class="color"/><path d="M7.015 29.3a6.338 6.338 0 1 0 0-12.677 6.338 6.338 0 0 0 0 12.676" class="color"/><mask id="a" width="2" height="18" x="6" y="1" maskUnits="userSpaceOnUse" style="mask-type:alpha"><path d="M6.317 18.138V1.15H7.73v16.987z" class="color"/></mask><g mask="url(#a)"><path d="M23.719 12.02c0 6.362-5.158 11.52-11.521 11.52S.677 18.382.677 12.02C.677 5.655 5.835.497 12.197.497c6.364 0 11.522 5.158 11.522 11.521" class="color"/></g><path d="M39.27 13.397h-2.86v4.627h-2.074V6.218h5.003c1.405 0 3.393 1.165 3.393 3.495 0 3.119-2.262 3.684-3.461 3.684m-2.86-1.748h2.878c.463 0 1.405-.394 1.405-1.936 0-1.08-.771-1.73-1.354-1.73h-2.93zm17.893 1.166v2.724c0 .394.137.737.806.737h4.643v1.748h-4.746c-1.902-.052-2.742-.634-2.776-2.4V6.219h7.522v1.748h-5.449v3.1h5.072v1.749zm17.445-3.376v8.585h-2.073V6.218h2.056c1.577 1.987 3.684 5.14 5.055 8.053V6.218h2.073v11.806h-2.073c-1.37-2.742-2.896-5.518-5.038-8.585m21.657 8.585h-4.079V6.218h4.079c2.861 0 5.517 2.005 5.517 5.928 0 3.976-2.656 5.878-5.517 5.878M91.4 16.276h1.285c2.673 0 4.078-1.405 4.078-4.13 0-2.69-1.285-4.18-4.078-4.18H91.4zm19.383-10.058v9.167c0 .48.172.89.977.89h4.609v1.749h-4.883c-1.902-.052-2.742-.634-2.776-2.4V6.219zm16.891 6.597v2.724c0 .394.137.737.806.737h4.643v1.748h-4.746c-1.902-.052-2.742-.634-2.776-2.4V6.219h7.522v1.748h-5.449v3.1h5.072v1.749z" class="color"/></svg>
