<svg xmlns="http://www.w3.org/2000/svg" viewBox="0 0 153 31"><style>@media (prefers-color-scheme:dark){.color{fill:#fff}}</style><path d="M72.162 6.292h18.179c3.437.282 6.294 1.387 5.942 5.59-.165 1.928-1.097 2.513-2.546 3.293-.104.065-.187-.065-.145.217 1.2.282 2.257 1.387 2.67 2.557.083.216.332 1.018.332 1.17v5.265h-7.04v-4.832c0-.238-.414-.823-.621-.975s-.973-.39-1.18-.39h-8.53v6.175h-7.04V6.292zm7.04 7.042h9.358c.435 0 .808-1.04.352-1.452-.041-.043-.538-.282-.559-.282h-9.172v1.734zM53.838 18.75v5.634h-7.04V6.292h17.537c4.39.303 7.288 2.253 6.75 7.28-.414 3.857-3.996 4.983-7.164 5.178s-6.77-.151-10.083 0m0-5.308h9.379c.87 0 .87-1.733 0-1.733h-9.38zm92.758-7.15-8.593 8.818 9.007 9.274h-8.634l-4.886-5.2-4.866 5.2h-8.323l8.903-9.274-8.489-8.818h8.737l4.369 4.658 4.431-4.658zM24.127 9.325v12.35h5.32l.146.152v6.5l-.145.173h-6.253s-.104-.238-.104-.26V22h-10.56v6.24s-.144.173-.103.26H6.155l-.145-.173v-6.5l.145-.152h5.135v-6.5h5.838l.145-.173v-6.5l.145-.152h5.653V2.76s.144-.173.103-.26h6.253l.145.152v6.5l-.145.151h-5.321zm94.724-3.033c-.145 3.315.186 6.825 0 10.14-.186 3.142-1.449 5.72-4.203 7.085-4.307 2.123-13.313 1.863-15.818-3.12-.622-1.213-.766-2.448-.87-3.792h7.143c-.103 3.099 5.176 3.337 6.336 1.279.103-.195.393-1.019.393-1.214V6.292h7.04zM12.428 2.5v6.825H6.155l-.145-.173v-6.5l.145-.152z" class="color"/></svg>
