<svg xmlns="http://www.w3.org/2000/svg" viewBox="0 0 96 42"><style>@media (prefers-color-scheme:dark){.color{fill:#fff}}</style><path d="M49.395 11.937c-1.457 0-2.571-.533-3.136-.962l.015-1.599h.044a4.7 4.7 0 0 0 2.899 1.022c.95 0 1.754-.34 1.754-1.096 0-1.776-4.608-1.48-4.608-4.573 0-1.717 1.397-2.679 3.196-2.679 1.144 0 2.14.4 2.645.71l.015 1.584h-.03a4.66 4.66 0 0 0-2.467-.755c-.862 0-1.59.34-1.59 1.036 0 1.717 4.607 1.525 4.607 4.648 0 1.731-1.382 2.664-3.344 2.664m11.067-3.242h-4.325c-.401 0-.758.045-.758.46 0 .65.788 1.317 2.08 1.317 1.323 0 2.32-.519 2.69-.918h.03l-.014 1.42c-.446.386-1.472.948-2.81.948-2.259 0-3.79-1.48-3.79-3.73 0-2.087 1.531-3.759 3.672-3.759 1.739 0 2.972 1.095 3.225 2.694zm-5.217-.843c.223-.178.565-.31 1.115-.31h2.422c0-.948-.654-1.659-1.694-1.659-1.174 0-1.754.83-1.843 1.969m9.634 4.085c-2.14 0-3.7-1.599-3.7-3.76 0-2.072 1.545-3.73 3.715-3.73 1.263 0 2.036.43 2.482.74v1.496h-.03a3.74 3.74 0 0 0-2.244-.74c-1.249 0-2.185.725-2.185 2.234 0 1.466.936 2.265 2.185 2.265 1.04 0 1.813-.415 2.289-.8h.03v1.51c-.431.34-1.16.785-2.542.785m8.427-3.626V4.67h1.709v7.03h-1.323l-.148-1.125c-.387.651-1.13 1.303-2.26 1.303-1.724 0-2.66-1.229-2.66-3.079V4.67h1.71v3.745c0 1.525.594 2.028 1.411 2.028.803 0 1.56-.637 1.56-2.131m6.703-3.804c.356 0 .743.118.921.192v1.466c-.223-.074-.654-.208-1.07-.208-.743 0-1.694.533-1.694 2.398V11.7h-1.71V4.67h1.308l.179 1.287c.371-.828 1.01-1.45 2.066-1.45m7.915 4.188h-4.325c-.401 0-.758.045-.758.46 0 .65.788 1.317 2.08 1.317 1.323 0 2.32-.519 2.69-.918h.03l-.014 1.42c-.446.386-1.472.948-2.81.948-2.258 0-3.79-1.48-3.79-3.73 0-2.087 1.531-3.759 3.672-3.759 1.739 0 2.972 1.095 3.225 2.694zm-5.217-.843c.223-.178.565-.31 1.115-.31h2.422c0-.948-.654-1.659-1.694-1.659-1.174 0-1.754.83-1.843 1.969M49.395 25.937c-1.457 0-2.571-.533-3.136-.962l.015-1.599h.044a4.7 4.7 0 0 0 2.899 1.021c.95 0 1.754-.34 1.754-1.095 0-1.776-4.608-1.48-4.608-4.573 0-1.717 1.397-2.679 3.196-2.679 1.144 0 2.14.4 2.645.71l.015 1.584h-.03a4.66 4.66 0 0 0-2.467-.755c-.862 0-1.59.34-1.59 1.037 0 1.716 4.607 1.524 4.607 4.647 0 1.731-1.382 2.664-3.344 2.664m8.808-7.267v1.376h-2.051v2.857c0 .947.119 1.524.906 1.524.372 0 .788-.148.996-.252h.03v1.258c-.238.193-.877.445-1.62.445-2.021 0-2.021-1.806-2.021-2.25v-3.582h-1.204V18.67h1.204v-1.288l1.679-1.154h.03v2.442zm4.057-.222c1.472 0 3.047.622 3.047 2.486V25.7h-1.323l-.148-.992c-.387.578-1.1 1.214-2.334 1.214-1.308 0-2.6-.77-2.6-2.22 0-1.628 1.515-2.146 3.15-2.146 1.055 0 1.56-.06 1.56-.696 0-.562-.534-.932-1.515-.932-1.219 0-2.2.518-2.69.962h-.03l.044-1.465c.595-.46 1.754-.977 2.84-.977m-.371 6.186c1.055 0 1.843-.725 1.843-1.702v-.68c-.342.4-1.011.488-1.754.488-.833 0-1.412.252-1.412.932 0 .637.654.962 1.323.962m4.777 1.066v-9.472h1.71V25.7zm6.436-7-2.69 3.034 2.972 3.936v.03h-2.08l-2.928-3.966 2.794-3.064h1.932zm1.822-1.258c-.654 0-1.1-.445-1.1-.992 0-.562.446-.992 1.1-.992.624 0 1.084.43 1.084.992 0 .547-.46.992-1.084.992m.847 8.258h-1.71v-7.03h1.71zm5.193-7.208c1.769 0 2.735 1.229 2.735 3.079V25.7h-1.71v-3.744c0-1.525-.638-2.028-1.486-2.028-.817 0-1.575.621-1.575 2.131v3.64h-1.71v-7.03h1.309l.163 1.126a2.57 2.57 0 0 1 2.274-1.303m9.466 1.317.163-1.14h1.323v5.95c0 2.739-1.531 3.893-3.612 3.893-1.278 0-2.467-.37-3.18-.903V26.1h.03c.713.533 1.872.948 3.002.948 1.248 0 2.066-.74 2.066-2.072v-.489c-.461.607-1.22 1.095-2.29 1.095-1.798 0-3.254-1.346-3.254-3.552 0-2.116 1.5-3.552 3.359-3.552 1.159 0 1.991.593 2.393 1.332m-2.037 4.337c1.279 0 1.903-1.05 1.903-2.131 0-1.036-.64-2.087-1.917-2.087-1.383 0-1.962 1.036-1.962 2.087 0 1.08.624 2.13 1.976 2.13m-38.106 5.993h.342l4.488 9.531v.03H53.14l-.921-2.087h-3.552L47.76 39.7h-1.99v-.03zm.178 2.916h-.015c-.401.991-.892 2.175-1.323 3.152h2.616a94 94 0 0 1-1.278-3.152m7.04 6.645h-1.71v-9.472h1.71zm3.2 0h-1.71v-9.472h1.71zm2.339-8.259c-.654 0-1.1-.444-1.1-.991 0-.562.445-.992 1.1-.992.624 0 1.085.43 1.085.992 0 .547-.461.992-1.086.992m.847 8.259h-1.71v-7.03h1.71zm4.51-7.252c1.47 0 3.046.621 3.046 2.486V39.7h-1.323l-.148-.992c-.387.578-1.1 1.214-2.334 1.214-1.308 0-2.6-.77-2.6-2.22 0-1.628 1.515-2.146 3.15-2.146 1.055 0 1.56-.06 1.56-.696 0-.562-.534-.932-1.515-.932-1.219 0-2.2.518-2.69.962h-.03l.044-1.465c.595-.46 1.754-.977 2.84-.977m-.372 6.186c1.055 0 1.843-.725 1.843-1.702v-.68c-.342.4-1.011.488-1.754.488-.832 0-1.412.252-1.412.932 0 .637.654.962 1.323.962m8.508-6.142c1.769 0 2.735 1.229 2.735 3.079V39.7h-1.71v-3.745c0-1.524-.638-2.027-1.485-2.027-.818 0-1.576.622-1.576 2.131v3.64h-1.71v-7.03H74.1l.163 1.126a2.57 2.57 0 0 1 2.274-1.303m7.415 7.445c-2.14 0-3.701-1.599-3.701-3.76 0-2.072 1.546-3.73 3.716-3.73 1.263 0 2.036.43 2.482.74v1.496h-.03a3.74 3.74 0 0 0-2.244-.74c-1.249 0-2.185.725-2.185 2.235 0 1.465.936 2.264 2.185 2.264 1.04 0 1.813-.414 2.288-.8h.03v1.51c-.43.34-1.16.785-2.541.785m10.359-3.241h-4.325c-.402 0-.758.044-.758.458 0 .651.788 1.317 2.08 1.317 1.323 0 2.32-.517 2.69-.917h.03l-.015 1.42c-.445.386-1.47.948-2.809.948-2.259 0-3.79-1.48-3.79-3.73 0-2.087 1.531-3.759 3.672-3.759 1.739 0 2.972 1.095 3.225 2.694zm-5.217-.844c.223-.178.565-.31 1.115-.31h2.422c0-.948-.654-1.659-1.694-1.659-1.174 0-1.754.83-1.843 1.969M37.114 32.7H5.763L.876 37.384V40.5h36.353zM6.423 1.5H37.23v6.3L6.244 21.9H.876V1.5zM.876 26.265V32.7h22.495l13.858-8.1v-2.7H5.286z" class="color"/></svg>
