<svg xmlns="http://www.w3.org/2000/svg" viewBox="0 0 255 50"><style>@media (prefers-color-scheme:dark){.color{fill:#fff}}</style><path fill="#25f2d0" d="M23.551 50v-3.188c0-3.008 1.49-5.813 3.955-7.453l3.205-2.135L19.626 15.55 8.541 37.224l3.21 2.135c2.465 1.64 3.95 4.44 3.955 7.443v3.193L.376 39.753 19.631 0l9.628 19.876 9.627 19.877L23.556 50z"/><path d="M72.791 17.554q-.196.345-.415.495a.9.9 0 0 1-.545.155c-.215 0-.475-.085-.74-.25a22 22 0 0 0-.955-.56c-.37-.206-.8-.396-1.295-.56-.495-.166-1.08-.256-1.75-.256q-.914.001-1.595.22-.684.219-1.15.61c-.31.26-.54.576-.695.936-.15.366-.23.766-.23 1.201q0 .832.465 1.386.465.555 1.23.946.764.392 1.745.7.976.309 2.005.661t2.005.816a6.9 6.9 0 0 1 1.745 1.176c.51.475.92 1.05 1.23 1.736q.465 1.028.465 2.497.001 1.598-.545 2.993a6.9 6.9 0 0 1-1.595 2.432q-1.05 1.037-2.565 1.631c-1.01.395-2.17.596-3.47.596a11.4 11.4 0 0 1-4.31-.851c-.67-.27-1.295-.596-1.885-.981a9.2 9.2 0 0 1-1.565-1.271l1.29-2.102q.164-.226.425-.385.262-.156.555-.155.406-.001.88.335.472.336 1.125.74c.435.27.945.521 1.525.741q.871.337 2.095.336 1.874 0 2.9-.891 1.026-.885 1.025-2.552 0-.93-.465-1.516-.465-.587-1.23-.986a9.2 9.2 0 0 0-1.745-.677q-1-.283-1.99-.605-1.018-.33-1.99-.78a6.5 6.5 0 0 1-1.745-1.192q-.765-.733-1.23-1.836t-.465-2.718q-.001-1.289.515-2.512a6.6 6.6 0 0 1 1.49-2.171q.975-.945 2.415-1.517c.955-.38 2.055-.57 3.29-.57 1.39 0 2.675.215 3.845.65q1.763.655 3 1.827l-1.09 2.072zm19.511-4.294q2.364 0 4.09.555c1.15.37 2.105.886 2.85 1.552a6.16 6.16 0 0 1 1.67 2.381q.546 1.389.545 3.033c0 1.096-.19 2.187-.57 3.142a6.5 6.5 0 0 1-1.71 2.457q-1.141 1.027-2.86 1.597t-4.015.57h-3.276v8.302h-4.385v-23.59h7.66zm0 11.86q1.207 0 2.1-.3.899-.302 1.49-.867.591-.561.89-1.37a5.3 5.3 0 0 0 .295-1.802c0-.66-.1-1.201-.295-1.711a3.4 3.4 0 0 0-.88-1.307q-.585-.54-1.485-.825-.899-.285-2.12-.285h-3.275v8.466h3.28zm23.434-8.367v6.54h8.246v3.378h-8.246v6.67h10.465v3.508h-14.865v-23.59h14.865v3.494zm41.057 20.097h-3.39q-.57 0-.93-.285a1.7 1.7 0 0 1-.535-.711l-1.76-4.814h-9.765l-1.76 4.814q-.129.376-.505.685-.375.31-.93.31h-3.42l9.275-23.583h4.465zm-7.74-8.908-2.87-7.846c-.14-.35-.29-.76-.44-1.24a42 42 0 0 1-.455-1.552q-.209.834-.44 1.556c-.15.486-.3.906-.44 1.266l-2.85 7.811h7.495zm35.098 8.907h-3.96q-1.126-.001-1.63-.88l-4.955-7.552q-.279-.426-.61-.606t-.985-.18h-1.875v9.218h-4.385v-23.59h7.19c1.595 0 2.97.166 4.115.496q1.718.495 2.82 1.396c.735.6 1.275 1.311 1.62 2.147q.519 1.245.52 2.747a7 7 0 0 1-.35 2.252 6.6 6.6 0 0 1-1.01 1.927 6.9 6.9 0 0 1-1.63 1.516 8.2 8.2 0 0 1-2.21 1.026 4.1 4.1 0 0 1 1.435 1.371zm-11.28-12.365q1.237-.001 2.16-.31.923-.308 1.515-.856a3.46 3.46 0 0 0 .89-1.296q.294-.752.295-1.646-.001-1.795-1.18-2.758c-.79-.64-1.99-.96-3.61-.96h-2.805v7.83h2.74zm28.474-11.224q2.317-.001 3.96.44c1.095.295 1.995.71 2.695 1.256q1.051.817 1.54 1.972t.49 2.612q.001.833-.245 1.591c-.165.506-.415.98-.76 1.421-.345.44-.775.841-1.305 1.201a8 8 0 0 1-1.885.916c3.235.73 4.855 2.477 4.855 5.254q0 1.503-.57 2.773a6.1 6.1 0 0 1-1.66 2.191q-1.094.924-2.69 1.441c-1.065.35-2.28.52-3.65.52h-8.9V13.26zm-3.735 3.393v6.82h3.49c1.5 0 2.63-.27 3.4-.816.765-.545 1.15-1.406 1.15-2.592s-.35-2.101-1.045-2.627q-1.041-.78-3.26-.78h-3.735zm4.435 16.768q1.222-.001 2.055-.295c.555-.195.995-.456 1.33-.78.328-.318.575-.71.72-1.142q.219-.652.22-1.386c0-.49-.08-.97-.245-1.376a2.64 2.64 0 0 0-.765-1.046c-.35-.29-.795-.51-1.345-.66s-1.21-.23-1.98-.23h-4.415v6.915h4.435zm23.575 3.428h-4.4v-23.59h4.4zm28.242-19.98h-7.105v19.98h-4.385V16.87h-7.105v-3.603h18.595v3.603z" class="color"/></svg>
