<svg xmlns="http://www.w3.org/2000/svg" viewBox="0 0 101 29"><style>@media (prefers-color-scheme:dark){.color{fill:#fff}}</style><path d="M22.363.5c6.27 0 10.184 6.769 7.038 12.174l-6.86 11.786c-3.135 5.387-10.941 5.387-14.076 0l-6.86-11.786C-1.54 7.269 2.373.5 8.644.5zm-.447 1.987c-3.547 0-6.423 2.865-6.423 6.4 0 3.534 2.876 6.4 6.423 6.4s6.424-2.866 6.424-6.4-2.876-6.4-6.424-6.4m69.652 23.846c-1.811 0-3.26-.494-4.314-1.515-1.087-.988-1.613-2.24-1.613-3.787 0-1.58.592-2.865 1.745-3.82 1.152-.954 2.865-1.448 5.202-1.448h3.952v-1.021c0-.856-.264-1.548-.823-2.108-.56-.526-1.416-.79-2.536-.79-.988 0-1.745.23-2.305.725-.56.494-.856 1.086-.889 1.81h-3.556c0-1.646.626-2.996 1.844-4.05s2.865-1.58 4.972-1.58q3.26 0 5.137 1.68c1.251 1.119 1.877 2.535 1.877 4.28v11.327h-3.293l-.253-1.927a.094.094 0 0 0-.17-.04c-1.056 1.52-2.725 2.264-4.977 2.264m.856-2.997c1.218 0 2.239-.362 2.996-1.086s1.12-1.614 1.12-2.635v-1.152h-3.787c-2.239 0-3.359.823-3.359 2.436 0 .725.264 1.318.79 1.746.495.46 1.252.691 2.24.691M75.5 26.332c-2.174 0-3.886-.79-5.137-2.403-1.284-1.614-1.91-3.754-1.943-6.421.033-2.602.659-4.742 1.91-6.355 1.218-1.614 2.963-2.404 5.17-2.404 2.187 0 3.825.777 4.847 2.3a.086.086 0 0 0 .157-.047v-8.71h3.754v23.744h-3.325l-.412-1.964a.1.1 0 0 0-.096-.078.1.1 0 0 0-.082.044c-1.022 1.52-2.658 2.294-4.844 2.294m.921-3.325c1.416 0 2.47-.527 3.161-1.548.692-1.02 1.054-2.338 1.054-3.951 0-1.614-.33-2.898-1.02-3.919-.692-1.02-1.779-1.514-3.195-1.514-1.448 0-2.502.493-3.16 1.514-.692 1.021-1.021 2.305-1.021 3.919s.329 2.93 1.02 3.951c.659 1.02 1.713 1.548 3.161 1.548m-16.882 3.326c-2.502 0-4.478-.824-5.894-2.47s-2.14-3.754-2.14-6.322q0-3.853 2.074-6.322c1.35-1.647 3.326-2.47 5.894-2.47 2.404 0 4.314.757 5.664 2.305s2.009 3.556 2.009 5.96v1.58H55.389c0 1.416.363 2.503 1.087 3.326.691.823 1.712 1.251 3.062 1.251 2.042 0 3.293-.757 3.721-2.305h3.655c-.23 1.581-1.02 2.898-2.37 3.919s-3.03 1.547-5.006 1.547m-4.116-10.406h7.87c-.033-1.185-.362-2.14-.988-2.897-.658-.725-1.613-1.087-2.832-1.087q-1.926 0-2.963 1.087c-.691.757-1.054 1.712-1.087 2.897M43.308 26.26a3.07 3.07 0 0 1-2.899-2.049L32.77 2.621v-.329h4.248l6.236 18.841a.091.091 0 0 0 .173 0L49.53 2.292h4.313v.33l-7.638 21.59a3.075 3.075 0 0 1-2.899 2.048" class="color"/></svg>
