<svg xmlns="http://www.w3.org/2000/svg" viewBox="0 0 105 32" xmlns:xlink="http://www.w3.org/1999/xlink"><style>@media (prefers-color-scheme:dark){.color{fill:#fff}}</style><path d="M51.548 23.2a.205.205 0 0 0-.2-.156h-7.74l8.26-13.436a.208.208 0 0 0-.176-.316H39.084a.206.206 0 0 0-.2.256l.588 2.348a.205.205 0 0 0 .2.156h7.236L38.64 25.488a.208.208 0 0 0 .176.316H51.94a.206.206 0 0 0 .2-.256l-.588-2.348zm7.096-9.304c-3.392 0-5.756 2.504-5.756 6.128s2.408 6.084 5.848 6.084c2.912 0 4.976-1.416 5.556-3.788a.208.208 0 0 0-.2-.26h-2.24a.21.21 0 0 0-.196.14c-.372 1.012-1.38 1.568-2.876 1.568-1.896 0-2.972-1.028-3.18-3.064l8.496-.024a.206.206 0 0 0 .204-.208v-.66c0-3.604-2.2-5.92-5.66-5.92zm-2.972 4.984c.28-1.732 1.312-2.644 2.996-2.644s2.808 1.052 2.808 2.644zm17.076-4.984c-1.568 0-2.972.68-3.696 1.848l-.208-1.324a.21.21 0 0 0-.204-.176h-2.26a.21.21 0 0 0-.208.208v11.144a.21.21 0 0 0 .208.208h2.44a.21.21 0 0 0 .208-.208V19.58c0-1.872 1.076-3.088 2.832-3.088 1.472 0 2.432.936 2.432 2.876v6.228a.21.21 0 0 0 .208.208h2.44a.21.21 0 0 0 .208-.208v-6.904c0-2.996-1.496-4.796-4.4-4.796m27.384 0c-1.66 0-3.016.724-3.744 1.848V9.5a.21.21 0 0 0-.208-.208h-2.464a.21.21 0 0 0-.208.208v16.096a.21.21 0 0 0 .208.208h2.44a.21.21 0 0 0 .208-.208v-6.112c0-1.732 1.052-2.996 2.856-2.996 1.452 0 2.408.936 2.408 2.876v6.228a.21.21 0 0 0 .208.208h2.44a.21.21 0 0 0 .208-.208v-6.904c0-2.996-1.496-4.796-4.352-4.796zm-9.068.352h-2.24v-3.332a.21.21 0 0 0-.208-.208h-2.44a.21.21 0 0 0-.208.208v3.332h-1.796a.21.21 0 0 0-.208.208v1.972a.21.21 0 0 0 .208.208h1.796v6.316c0 2.216 1.276 2.852 2.852 2.852h2.24a.21.21 0 0 0 .208-.208v-2.348a.21.21 0 0 0-.208-.208h-1.824a.41.41 0 0 1-.412-.412v-5.996h2.24a.21.21 0 0 0 .208-.208v-1.972a.21.21 0 0 0-.208-.208zm-10.296-5.26c-.984 0-1.756.748-1.756 1.708s.772 1.732 1.756 1.732 1.708-.772 1.708-1.732-.772-1.708-1.708-1.708m1.22 5.26h-2.44a.21.21 0 0 0-.208.208V25.6a.21.21 0 0 0 .208.208h2.44a.21.21 0 0 0 .208-.208V14.456a.21.21 0 0 0-.208-.208m-50.112 17.36a.82.82 0 0 0 .036-.804l-7.588-15.176L16.74.456a.825.825 0 0 0-1.476 0l-5.06 10.116-5.06 10.116z" class="color"/><path fill="url(#a)" d="M31.876 31.608a.82.82 0 0 0 .036-.804l-7.588-15.176L16.74.456a.825.825 0 0 0-1.476 0l-5.06 10.116-5.06 10.116z"/><path fill="#2e3d56" d="M.088 30.804a.82.82 0 0 0 .036.804.82.82 0 0 0 .704.392h30.348c.308 0 .56-.16.704-.392L5.148 20.688z"/><defs><linearGradient id="a" x1="15.263" x2="5.144" y1=".462" y2="20.685" gradientUnits="userSpaceOnUse"><stop offset=".125" stop-color="#2e3d56"/><stop offset=".505" stop-color="#566481" stop-opacity=".75"/><stop offset=".75" stop-color="#8496b3" stop-opacity=".5"/><stop offset="1" stop-color="#ffecde" stop-opacity=".5"/></linearGradient></defs></svg>
