<svg xmlns="http://www.w3.org/2000/svg" fill="none" viewBox="0 0 1440 745" xmlns:xlink="http://www.w3.org/1999/xlink"><circle cx="719.723" cy="124.723" r="596.723" fill="url(#a)" fill-opacity=".3" filter="url(#b)" style="mix-blend-mode:plus-lighter"/><path fill="#04171bff" d="M720.033 648.446c68.473.019 124.67 37.7 158.941 87.328-6.995 3.663-22.415 8.941-22.415 8.941-30.158-43.291-76.68-74.551-136.577-74.551v-.02c-60.019.017-112.036 31.402-142.149 74.856-6.216-1.581-13.791-4.555-19.761-6.9a722 722 0 0 0-3.133-1.224c34.124-50.359 96.008-88.48 165.094-88.48zm715.537 21.698c-60.04 0-112.08 31.39-142.2 74.856-6.22-1.581-13.8-4.555-19.77-6.9-1.1-.434-2.15-.846-3.13-1.224 34.13-50.359 96.01-88.48 165.1-88.48zM4.45 648.446c68.495 0 124.711 37.687 158.99 87.328-6.972 3.652-22.322 8.909-22.415 8.941-30.158-43.291-76.68-74.551-136.576-74.551z"/><path fill="#04171bff" d="M4.45 581.473c95.515 0 174.714 53.387 222.515 128.372-9.727 5.518-29.169 14.913-29.268 14.961C155.643 659.415 87.972 614.287 4.449 614.287zm1431.06 32.796c-83.7.02-153.4 44.18-195.4 109.821 0 0-22.31-10.192-29.55-15.061 47.58-76.069 128.61-127.612 224.95-127.612z"/><path fill="#04171bff" d="M1435.51 543.769c-112.3.001-206.52 57.214-256.75 149.316-.08-.044-24.63-13.044-49.11-31.673-24.47-18.624-45.82-38.178-45.91-38.256 72.49-121.037 200.42-193.982 351.77-193.982zM4.46 429.189c141.881 0 274.724 83.393 348.987 193.967 0 0-18.313 15.155-41.43 33.648-23.082 18.465-53.611 36.215-53.701 36.267C208.868 598.455 118.612 543.813 4.46 543.806zm357.739 37.652c40.865 0 68.957 10.838 90.915 25.685l-24.817 20.455c-20.882-13.052-39.832-17.591-66.087-17.591-26.254 0-49.394 3.966-67.511 17.591-8.647-9.864-22.391-20.455-22.391-20.455 28.018-19.786 50.157-25.685 89.891-25.685m715.531 0c40.87 0 68.96 10.838 90.92 25.685l-24.82 20.455c-20.88-13.052-39.83-17.591-66.09-17.591-26.25 0-49.39 3.967-67.51 17.591-8.64-9.851-22.355-20.429-22.388-20.455 28.018-19.786 50.158-25.685 89.888-25.685"/><path fill="#04171bff" d="M362.199 408.439c66.098 0 97.047 14.133 146.324 40.578-16.01 9.044-22.433 14.791-30.557 21.799-32.767-16.384-79.829-28.991-115.756-28.991-44.955 0-80.273 12.497-116.107 34.045-.07-.051-15.889-11.751-30.683-18.799 39.914-31.032 79.28-48.632 146.779-48.632m715.531 0c66.1.001 97.05 14.133 146.33 40.578-16.01 9.044-22.44 14.791-30.56 21.799-32.77-16.384-79.83-28.991-115.76-28.991-44.95 0-80.269 12.497-116.104 34.045-.046-.034-15.876-11.746-30.682-18.799 39.913-31.032 79.276-48.632 146.776-48.632"/><path fill="#04171bff" d="M363.981 250.711c126.876 0 240.275 58.484 315.382 150.303 0 0-37.451 4.959-69.05 12.581-31.551 7.61-62.893 21.371-62.987 21.412-50.14-40.982-115.686-65.434-185.116-65.434-69.429 0-139.644 25.797-189.784 66.78-.118-.052-31.446-13.803-62.986-21.412-31.599-7.623-69.051-12.581-69.051-12.581 75.107-91.819 196.716-151.649 323.592-151.649m715.529 0c126.88 0 240.28 58.484 315.39 150.303 0 0-37.46 4.959-69.05 12.581-31.54 7.607-62.87 21.358-62.99 21.412-50.14-40.982-115.69-65.434-185.12-65.434s-139.64 25.797-189.78 66.78c-.084-.037-31.43-13.799-62.986-21.412-31.599-7.623-69.051-12.581-69.051-12.581 75.107-91.819 196.715-151.649 323.587-151.649M4.45 297.462c33.424 0 58.619 9.974 86.77 24.617l-17.34 15.783c-23.256-11.129-41.778-18.647-69.43-18.647zm1431.06 21.708c-26.22 0-48.71 7.053-71.43 17.417l-19.12-15.613c28.39-14.743 57.34-23.553 90.55-23.553zM4.45 233.319c55.084 0 100.571 18.628 143.669 47.68l-28.267 20.232c-35.615-21.396-71.028-35.073-115.403-35.073zm715.532 0c55.086 0 100.572 18.628 143.671 47.68l-28.267 20.232c-35.615-21.396-71.028-35.073-115.404-35.073v-.032c-45.126.002-83.277 12.834-119.2 34.947l-30.161-19.483c43.634-30.359 92.497-48.316 149.361-48.316zm715.538 32.807c-45.13.002-83.28 12.834-119.2 34.947l-30.17-19.483c43.64-30.359 92.5-48.316 149.37-48.316zM4.45 76.082c131.215 0 242.43 59.763 318.476 154.839-.097.007-39.853 2.97-68.906 9.166-29.052 6.196-69.711 23.424-69.815 23.468-51.151-42.081-108.35-68.678-179.756-68.678z"/><path fill="#04171bff" d="M719.982 76.082c131.216 0 242.432 59.763 318.478 154.839 0 0-39.817 2.963-68.906 9.166-29.039 6.193-69.674 23.408-69.815 23.468-51.151-42.081-108.35-68.678-179.757-68.678v-.017c-71.403.002-134.887 25.268-186.037 67.348 0 0-40.726-17.265-69.815-23.468-29.045-6.193-66.9-9.157-67.014-9.166C473.16 134.5 588.769 76.084 719.982 76.082M1435.52 194.86c-71.4 0-134.89 25.267-186.04 67.348 0 0-40.73-17.265-69.82-23.468-29.04-6.191-66.87-9.155-67.01-9.166 76.04-95.076 191.66-153.491 322.87-153.491zM719.979 297.421c33.425 0 58.623 10.015 86.776 24.658l-17.342 15.783c-23.256-11.129-41.785-18.692-69.436-18.692-26.22 0-48.709 7.053-71.43 17.417l-19.123-15.613c28.394-14.743 57.344-23.553 90.555-23.553m-.002 283.996c95.515 0 174.721 53.443 222.522 128.428-9.723 5.515-29.15 14.904-29.268 14.961-42.054-65.391-109.731-110.537-193.254-110.537-83.7.02-153.402 44.18-195.396 109.821-.024-.011-22.312-10.194-29.556-15.061 47.583-76.069 128.613-127.612 224.952-127.612"/><path fill="#04171bff" d="M719.977 543.769c-112.296.001-206.522 57.214-256.751 149.316-.105-.055-24.641-13.052-49.111-31.673-24.484-18.632-45.842-38.195-45.908-38.256 72.495-121.037 200.437-193.966 351.787-193.967 141.881.001 274.723 83.393 348.986 193.967 0 0-18.31 15.155-41.43 33.648s-53.7 36.267-53.7 36.267c-49.448-94.616-139.722-149.295-253.873-149.302"/><defs><radialGradient id="a" cx="0" cy="0" r="1" gradientTransform="rotate(90 297.5 422.223)scale(596.723)" gradientUnits="userSpaceOnUse"><stop stop-color="#00b2bf"/><stop offset="1" stop-color="#071c8d" stop-opacity="0"/></radialGradient><filter id="b" width="1201.45" height="1201.45" x="119" y="-476" color-interpolation-filters="sRGB" filterUnits="userSpaceOnUse"><feFlood flood-opacity="0" result="BackgroundImageFix"/><feBlend in="SourceGraphic" in2="BackgroundImageFix" result="shape"/><feGaussianBlur result="effect1" stdDeviation="2"/></filter></defs></svg>
