<svg xmlns="http://www.w3.org/2000/svg" viewBox="0 0 128 128"><path fill="#76eacf" d="M46.265 76.127c-18.78 3.663-34.895-7.81-41.02-22.407C-.883 39.122 2.438 25 13.747 14.024 26.16 1.978 61.953 5.555 71.492 24.584c9.54 19.03 5.348 45.578-25.228 51.543m35.822-57.87c-3.604.703-6.696-1.499-7.872-4.3-1.176-2.802-.538-5.512 1.632-7.618 2.382-2.312 9.251-1.625 11.082 2.026 1.83 3.652 1.026 8.747-4.842 9.892"/><path fill="#76eacf" d="M127.086 82.647c2.922 28.504-29.515 26.183-62.06 37.439S2.24 115.838.182 95.757c-3.27-31.914 38.215-37.25 67.356-36.353 29.426.907 56.627-5.261 59.548 23.243"/></svg>
