<svg xmlns="http://www.w3.org/2000/svg" viewBox="0 0 128 128"><rect width="128" height="128" fill="#072723" rx="32" ry="32"/><path fill="#97fce4" d="M106.859 63.8a45.8 45.8 0 0 1-4.142 19.518c-3.993 8.847-13.562 16.077-22.302 8.381-7.127-6.277-8.448-19.015-19.124-20.88-14.13-1.714-14.469 14.68-23.705 16.533C27.3 89.442 23.89 72.131 24.038 64.266c.154-7.864 2.243-18.913 11.182-18.913 10.292 0 10.983 15.585 24.044 14.746 12.928-.886 13.158-17.101 21.606-24.044 7.291-6 15.867-1.602 20.163 5.617 3.978 6.681 5.729 14.52 5.816 22.128z"/></svg>
