<svg xmlns="http://www.w3.org/2000/svg" viewBox="0 0 1742 365"><path fill="#fcfcfc" fill-rule="evenodd" d="M182.103 364.397c100.515 0 182-81.484 182-182 0-100.515-81.485-182-182-182-100.516 0-182 81.485-182 182 0 100.516 81.484 182 182 182M288.656 178.68c-24.874-31.099-63.968-50.206-106.887-50.206-42.92 0-81.395 19.107-106.27 50.206 0 0 12.406.969 21.92 2.998s22.836 7.676 22.836 7.676c16.731-13.764 38.157-22.029 61.514-22.029 23.356 0 44.782 8.265 61.513 22.029 0 0 13.321-5.647 22.836-7.676s22.538-2.998 22.538-2.998M66.549 109.824c24.074 0 43.94 7.313 61.62 20.479 16.923-6.937 28.463-8.579 46.27-8.934-24.821-32.169-64.116-52.016-107.89-52.016-5.005 0-8.851.327-13.715.855 0 0-8.605 9.622-15.591 21.401S22.97 120.737 22.97 120.737c12.985-6.463 28.089-10.913 43.578-10.913M208.39 92.457c-8.08-3.49-16.986-5.497-26.186-5.497-9.095 0-17.985 2.02-26.088 5.508l6.484 5.303c6.165-2.265 12.848-3.697 19.604-3.697 7.195 0 13.943 1.286 20.231 3.645zm-25.95-26.67c16.636 0 33.548 5.684 46.954 13.905l-10.54 5.967a77 77 0 0 0-36.414-9.126c-13.183 0-26.058 3.694-36.935 9.562l-10.635-6.077c13.517-8.436 30.559-14.23 47.57-14.23m105.279-1.319C262.846 33.37 224.579 13.45 181.66 13.45S100.473 33.37 75.6 64.47c0 0 12.196.156 21.71 2.185s22.836 7.676 22.836 7.676c16.731-13.764 38.157-22.029 61.514-22.029 23.356 0 44.782 8.265 61.513 22.03 0 0 13.321-5.648 22.836-7.677s21.711-2.185 21.711-2.185m10.239 45.356c-24.074 0-43.939 7.313-61.62 20.479-16.923-6.937-28.463-8.579-46.27-8.934 24.822-32.169 64.116-52.016 107.89-52.016 5.005 0 8.852.327 13.716.855 0 0 8.605 9.622 15.59 21.401 6.986 11.78 14.272 29.128 14.272 29.128-12.985-6.463-28.089-10.913-43.578-10.913m45.526 26.234c-13.406-8.221-29.59-13.327-46.226-13.327-17.011 0-33.805 5.692-47.323 14.128l10.685 5.835c10.877-5.868 23.455-9.218 36.638-9.218 13.134 0 25.041 2.892 35.914 8.707zm-45.162 7.829c9.2 0 17.482 1.96 25.562 5.45l-6.225 5.178c-6.288-2.359-12.142-3.514-19.337-3.514-6.757 0-13.906 1.242-20.071 3.507l-6.533-4.938c8.103-3.488 17.509-5.683 26.604-5.683m32.401 36.103c-14.466-2.271-26.067-1.81-26.067-1.81a134.6 134.6 0 0 1 42.651-35.128s2.707 6.821 4.435 20.657.847 21.972.847 21.972-7.4-3.419-21.866-5.691m21.387 13.946c-16.366-7.223-33.722-8.342-52.712-8.342-41.5 0-78.592 19.129-103.159 49.163 0 0 12.25 1.621 22.586 4.115 10.336 2.493 20.602 7.003 20.602 7.003 16.401-13.405 37.261-21.43 59.971-21.43 16.3 0 31.994 2.287 45.424 9.577 0 0 2.781-9.963 4.656-19.03s2.632-21.056 2.632-21.056m-139.245 14.56c-9.209-4.79-19.728-7.624-30.661-7.624-10.863 0-21.432 2.881-30.72 7.704l6.255 5.106c7.432-3.39 15.888-5.697 24.465-5.697 9.045 0 17.381 2.033 24.988 5.673zm-80.617-12.803c14.272-9.93 31.593-15.804 50.193-15.804 18.018 0 34.941 5.668 49.038 15.17l-9.246 6.618c-11.649-6.999-25.277-11.043-39.792-11.043-14.762 0-28.576 4.198-40.327 11.431zM94.553 149.59c-8.079-3.49-17.277-5.701-26.477-5.701-9.095 0-17.985 2.02-26.088 5.509l6.484 5.302c6.165-2.265 12.848-3.697 19.604-3.697 7.196 0 13.185 1.231 19.473 3.59zm-26.977-26.857c-16.636 0-32.82 5.106-46.226 13.327l10.313 6.125c10.872-5.815 22.78-8.707 35.913-8.707 13.184 0 25.761 3.35 36.639 9.218l10.684-5.835c-13.517-8.436-30.312-14.128-47.323-14.128m-34.25 57.259c14.466-2.271 26.068-1.81 26.068-1.81a134.6 134.6 0 0 0-42.651-35.128s-2.708 6.821-4.435 20.657c-1.728 13.837-.848 21.972-.848 21.972s7.4-3.419 21.867-5.691m-21.001 15.325c16.366-7.223 33.345-9.721 52.335-9.721 41.5 0 78.592 19.129 103.158 49.163 0 0-12.25 1.621-22.585 4.115-10.336 2.493-20.603 7.003-20.603 7.003-16.4-13.405-37.26-21.43-59.97-21.43-16.3 0-31.015 2.464-44.445 9.755 0 0-2.761-8.768-4.636-17.835s-3.254-21.05-3.254-21.05m12.239 49.932c11.276-5.189 23.797-8.129 36.896-8.129 18.614 0 35.947 5.774 50.225 15.533 0 0-1.579.642-4.917 2.729s-5.119 3.42-5.119 3.42a77.8 77.8 0 0 0-40.19-11.136c-11.75 0-32.93 7.237-32.93 7.237s-1.415-2.749-2.597-5.817-1.368-3.837-1.368-3.837m36.04 12.865c10.934 0 22.212 3.118 31.42 7.907l-6.324 5.06c-7.607-3.64-16.05-5.853-25.095-5.853-7.885 0-15.669 1.95-22.648 4.899l-4.19-6.177c8.303-3.689 17.461-5.836 26.838-5.836M267.5 330.127c-16.175-30.95-48.497-48.697-85.838-48.697-36.731 0-68.109 18.736-84.538 48.862 0 0-8.043-4.256-16.064-10.36-8.02-6.104-15.016-12.513-15.016-12.513 23.712-39.59 66.113-64.84 115.618-64.84 50.128 0 93.202 23.308 116.711 63.727 0 0-5.722 5.629-13.283 11.678s-17.59 12.143-17.59 12.143m36.218-93.007c13.099 0 25.619 2.94 36.895 8.129 0 0-.187.769-1.368 3.837s-2.597 5.817-2.597 5.817-21.179-7.237-32.93-7.237a77.8 77.8 0 0 0-40.19 11.136s-1.78-1.332-5.119-3.42-4.917-2.729-4.917-2.729c14.278-9.759 31.612-15.533 50.226-15.533m-30.734 28.901c9.208-4.789 20.486-7.907 31.419-7.907 9.377 0 18.535 2.147 26.838 5.836l-4.19 6.177c-6.979-2.949-14.763-4.899-22.648-4.899-9.044 0-17.488 2.213-25.095 5.853zm-90.777 49.651c22.404 0 43.071 11.904 54.283 28.142-2.288 1.197-7.332 2.924-7.332 2.924-9.864-14.16-27.36-23.952-46.951-23.952-19.639 0-37.744 10.268-47.596 24.485-2.033-.517-4.511-1.49-6.464-2.257l-1.024-.401c11.161-16.471 32.486-28.941 55.084-28.941m75.063 19.661c-15.635-24.526-43.585-41.567-74.827-41.567-31.511 0-59.352 16.859-74.916 41.741 2.37 1.592 9.667 4.926 9.667 4.926 13.739-21.475 37.863-35.921 65.249-35.921 27.32 0 51.498 14.326 65.254 35.715 0 0 6.383-3.084 9.573-4.894"/><path fill="#fcfcfc" d="M429.615 82.898h31.568c1.42 0 2.577 1.294 2.577 2.89v163.396c0 1.585-1.157 2.892-2.577 2.892h-31.568c-1.42 0-2.577-1.295-2.577-2.892V85.789c0-1.597 1.157-2.892 2.577-2.892m60.475 66.526h53.377l49.094-65.498c.513-.678 1.169-1.029 1.968-1.029h40.635c1.038 0 1.897.617 2.339 1.67a3.09 3.09 0 0 1-.358 3.073l-58.173 77.596 32.701 43.263c3.997 4.924 9.223 7.464 15.164 7.464h8.339c1.42 0 2.577 1.295 2.577 2.88v30.329c0 1.585-1.157 2.892-2.577 2.892H613.94c-11.513 0-21.463-5.093-28.872-14.978l-21.82-29.107-.084-.085a5 5 0 0 1-.405-.436l-11.43-15.243-.119-.097a2.3 2.3 0 0 1-.358-.326c-3.889-4.174-8.745-6.255-14.126-6.255h-46.648c-1.419 0-2.577-1.295-2.577-2.879v-30.33c0-1.585 1.158-2.879 2.577-2.879zm182.244-66.525h31.556c1.419 0 2.577 1.294 2.577 2.89v163.396c0 1.585-1.158 2.88-2.577 2.88h-31.556c-1.42 0-2.577-1.295-2.577-2.88V85.789c0-1.585 1.157-2.892 2.577-2.892m68.734.001h44.035c11.572 0 21.522 5.19 28.967 15.122l6.824 9.11s.072.084.096.133l70.496 94.038 3.997 5.347c2.124 2.831 4.999 4.343 8.304 4.343h5.345V85.789c0-1.585 1.157-2.892 2.577-2.892h31.556c1.419 0 2.576 1.295 2.576 2.892v163.395c0 1.585-1.157 2.88-2.576 2.88h-44.036c-11.572 0-21.522-5.19-28.967-15.123l-6.824-9.097s-.072-.085-.095-.133l-70.497-94.05-3.997-5.336c-2.124-2.843-4.999-4.343-8.316-4.343h-5.344v125.19c0 1.585-1.158 2.88-2.577 2.88h-31.568c-1.42 0-2.577-1.295-2.577-2.88V85.789c0-1.585 1.157-2.892 2.577-2.892zm289.502 133.065h151.81c1.42 0 2.57 1.295 2.57 2.88v30.329c0 1.585-1.15 2.88-2.57 2.88h-158.69c-25.221 0-45.848-23.083-45.848-51.32v-66.539c0-28.213 20.627-51.296 45.848-51.296h158.69c1.42 0 2.57 1.295 2.57 2.892v30.33c0 1.596-1.15 2.891-2.57 2.891h-151.81c-8.8 0-16.02 8.081-16.02 17.929v61.107c0 9.848 7.22 17.929 16.02 17.929zm10.32-66.527c-1.42 0-2.57 1.295-2.57 2.892v30.33c0 1.584 1.15 2.879 2.57 2.879h141.49c1.42 0 2.57-1.295 2.57-2.879v-30.33c0-1.585-1.15-2.892-2.57-2.892zm260.66-30.438h-82.02c-1.42 0-2.58-1.295-2.58-2.879v-30.33c0-1.585 1.16-2.892 2.58-2.892h205.62c1.42 0 2.58 1.295 2.58 2.892v30.33c0 1.584-1.16 2.879-2.58 2.879h-84.44v130.186c0 1.585-1.16 2.88-2.58 2.88h-31.57c-1.42 0-2.57-1.295-2.57-2.88V118.998zm160.76-36.1h31.55c1.42 0 2.58 1.294 2.58 2.89v163.396c0 1.585-1.16 2.88-2.58 2.88h-31.55c-1.42 0-2.58-1.295-2.58-2.88V85.789c0-1.585 1.16-2.892 2.58-2.892m111.97.001h123.94c25.22 0 45.85 23.082 45.85 51.307v58.3c0 1.585-1.16 2.88-2.58 2.88h-31.55c-1.42 0-2.58-1.295-2.58-2.88v-55.59c0-9.848-7.22-17.929-16.02-17.929h-110.17c-8.8 0-16.02 8.069-16.02 17.929v61.107c0 9.848 7.22 17.929 16.02 17.929h117.06c13.77 0 26.7 6.945 35.42 18.837 6.74 9.182 10.42 20.591 10.42 32.483v11.735c0 1.585-1.16 2.879-2.58 2.879h-31.55c-1.42 0-2.58-1.294-2.58-2.879v-9.194c-.08-9.788-7.27-17.748-16.01-17.748h-117.06c-25.22 0-45.85-23.083-45.85-51.32v-66.539c0-28.225 20.61-51.308 45.84-51.308"/></svg>
