<svg xmlns="http://www.w3.org/2000/svg" viewBox="0 0 128 128"><circle cx="64" cy="64" r="64" fill="#1b3b36"/><path fill="#fefefe" d="M62.178 18.861c1.187.709 1.865 1.825 2.525 3.005l.223.397c.907 1.716 1.513 3.575 2.154 5.402l.168.478q.16.455.316.91c.534 1.753.534 1.753 1.639 3.13.58.272 1.023.314 1.66.336 1.115.055 2.136.308 3.207.608 2.037.634 2.037.634 4.068.296.52-.382.874-.896 1.254-1.41.647-.846 1.396-1.59 2.15-2.339l.193-.192c.67-.667 1.35-1.318 2.067-1.934.262-.228.5-.474.737-.727 1.495-1.51 3.413-3.135 5.619-3.22.932.028 1.555.29 2.198.966 1.326 1.711 1.306 4.305 1.454 6.378l.07.931.045.593c.035.47.075.94.132 1.408.278 2.363.2 4.795.207 7.17l.004.911a63 63 0 0 1-.252 6.037 61 61 0 0 0-.074.935c-.3 3.94-1.949 7.949-4.56 10.914l-.278.326c-2.092 2.397-4.605 3.97-7.421 5.376a73 73 0 0 0-1.676.86l-.341.182c-.275.141-.275.141-.385.417-.054.696.08 1.195.375 1.814l.12.265q.267.586.545 1.167c.73 1.533 1.283 3.021 1.645 4.682l.072.304c.181.813.224 1.59.216 2.421l-.003.393c-.05 3.447-1.279 6.458-3.522 9.054-.51.592-.982 1.2-1.422 1.846l-.156.222c-.758 1.14-1.022 2.374-1.163 3.718l-.049.404c-.101.901-.202 1.832-.11 2.737l.255.256c.612-.017.983-.363 1.406-.767.215-.264.418-.525.616-.8a15.6 15.6 0 0 1 1.814-2.014q.475-.467.933-.95c3.125-3.264 7.774-6.06 12.374-6.225q.63-.01 1.262-.01l.428-.004c3.143-.006 6.091 1.25 8.404 3.353l.253.226c1.898 1.79 3.127 4.606 3.225 7.198.056 3.122-.755 6.044-2.839 8.432l-.201.238c-1.732 1.898-4.339 2.707-6.829 2.863-1.122.045-2.276.029-3.168-.735-.717-.721-.883-1.452-1.063-2.43-.396-1.904-.87-3.588-2.038-5.178l-.186-.263c-.635-.818-1.515-1.25-2.499-1.528-2.987-.332-5.467 1.415-7.839 2.996-1.424.948-2.901 1.75-4.437 2.503l-.536.272c-4.877 2.431-10.307 3.881-15.638 4.885q-.704.136-1.406.281c-3.009.601-5.97.751-9.033.756l-.466.002c-6.192.02-12.749-1.264-17.804-5.045l-.228-.167c-1.952-1.442-3.396-3.072-4.759-5.076l-.187-.272c-1.41-2.061-2.617-4.254-3.393-6.633l-.096-.29c-.256-.814-.42-1.627-.56-2.468l-.065-.378c-.457-2.688-.584-5.585.081-8.245l.117-.475q.269-1.104.55-2.205l.068-.264.186-.72c.194-.812.252-1.574.262-2.405l.012-.718.017-1.119c.027-1.858.111-3.668.563-5.48l.068-.277q.1-.395.203-.786l.102-.393c1.25-4.224 4.555-7.9 8.366-9.993a19 19 0 0 1 3.808-1.506l.275-.076c2.386-.634 5.01-.72 7.414-.14.495.118.885.154 1.39.088.37-.278.497-.43.58-.89l-.005-.437.004-.427c-.034-.482-.176-.907-.323-1.366-.315-1.065-.34-2.074-.328-3.178l.002-.304c.052-6.5 3.252-12.387 6.503-17.842q.313-.526.622-1.054.51-.87 1.026-1.735l.49-.826c1.064-1.796 2.132-3.563 3.449-5.188l.239-.31c1.16-1.434 3.012-2.776 4.908-1.928"/><path fill="#10b981" d="M44.883 57.031q1.152-.02 2.304-.028l.78-.01c2.426-.042 4.751.21 7.05 1.029l.386.134c2.865 1.014 5.554 2.42 7.894 4.374l.406.328c3.331 2.72 7.09 6.96 7.575 11.41.04 1.044-.068 1.856-.693 2.711-.72.77-1.583 1.14-2.628 1.191-.939.02-1.81-.01-2.726-.232-1.374-.325-2.807-.35-4.212-.368l-.434-.01c-1.833-.004-3.215.655-4.545 1.888-1.144 1.209-1.781 2.742-1.764 4.402.073 1.58.657 2.998 1.604 4.254l.198.273c1.533 1.936 4.085 2.838 6.451 3.18.608.027 1.215.024 1.823.023h.26c1.21 0 2.394-.061 3.594-.221 1.537-.194 1.537-.194 2.124.197.201 2.425-1.485 5.092-2.941 6.906l-.261.338a20.5 20.5 0 0 1-6.005 5.16l-.423.25c-6.114 3.517-14.33 3.745-21.06 2.052a35 35 0 0 1-3.069-1.023l-.263-.101c-1.583-.63-2.9-1.783-4.212-2.84l-.264-.213c-4.104-3.338-6.988-7.508-8.176-12.702l-.063-.27c-.927-4.135-.218-8.52.958-12.518l.096-.332c.973-3.355 2.718-7.826 5.866-9.715 2.319-1.204 5.004-.402 7.42.116 1.78.353 3.74.49 5.416-.298l.364-.165c1.613-.797 2.539-2.042 3.2-3.696.375-1.25.205-2.532-.367-3.684-.439-.74-.95-1.192-1.663-1.662z"/><path fill="#1b3b36" d="M81.966 43.83c1.658 1.02 2.57 2.627 3.018 4.477.093.514.089 1.026.083 1.547l-.003.344c-.012.77-.062 1.489-.285 2.23l-.1.358c-.485 1.608-1.26 2.938-2.457 4.117l-.227.227c-1.105 1.023-2.476 1.5-3.962 1.465-1.258-.09-1.992-.652-2.844-1.564-1.484-1.792-1.536-3.92-1.407-6.138.21-1.83 1.199-3.757 2.43-5.115l.214-.24c1.364-1.45 3.556-2.588 5.54-1.707"/><path fill="#1c3c37" d="M61.93 41.606c1.23.865 1.83 2.13 2.262 3.533l.116.343c.682 2.18.088 4.55-.883 6.562a10 10 0 0 1-1.023 1.407l-.248.29c-.929 1.008-2.11 1.547-3.465 1.66-1.258.046-2.17-.196-3.153-.991-1.38-1.327-2.083-3.28-2.148-5.173-.01-2.407.788-4.582 2.364-6.4.792-.793 1.61-1.34 2.686-1.662l.246-.074c1.137-.232 2.253-.085 3.246.505"/></svg>
