<svg xmlns="http://www.w3.org/2000/svg" viewBox="0 0 128 128"><circle cx="64" cy="64" r="64" fill="#9cb0b7"/><mask id="a" width="128" height="128" x="0" y="0" maskUnits="userSpaceOnUse" style="mask-type:alpha"><path fill="#fff" d="M63.824 128c35.248 0 63.823-28.654 63.823-64S99.072 0 63.824 0C28.574 0 0 28.654 0 64s28.575 64 63.824 64"/></mask><path fill="#fff" d="M35.112 159.994c19.391 0 35.111-15.763 35.111-35.208s-15.72-35.209-35.111-35.209C15.72 89.577 0 105.341 0 124.786s15.72 35.208 35.112 35.208" mask="url(#a)"/><mask id="b" width="9" height="95" x="31" y="3" maskUnits="userSpaceOnUse" style="mask-type:alpha"><path fill="#fff" d="M31.25 97.988V3.628h7.827v94.36z"/></mask><path fill="#fff" d="M127.647 64c0 35.346-28.575 64-63.823 64C28.574 128 0 99.346 0 64S28.575 0 63.824 0s63.823 28.654 63.823 64" mask="url(#b)"/></svg>
