<svg xmlns="http://www.w3.org/2000/svg" viewBox="0 0 128 128" xmlns:xlink="http://www.w3.org/1999/xlink"><circle cx="64" cy="64" r="64" fill="#111112"/><path fill="url(#a)" d="m73.328 29.54-4.57 20.999h-5.772L62 46.007l-.728-3.398-2.95-13.54a102.5 102.5 0 0 1 15.006.471"/><path fill="url(#b)" d="m58.822 50.539-7.494-20.694a49.7 49.7 0 0 0-9.964 2.588l8.34 13.574 2.773 4.532z"/><path fill="url(#c)" d="m102.525 55.07 3.3 9.063H82.912l.744-9.063z"/><path fill="url(#d)" d="M110.864 77.728H81.775l.747-9.063h25.03z"/><path fill="url(#e)" d="M103.921 91.673H80.545l1.019-9.12h31.38z"/><path fill="url(#f)" d="M51.302 91.673H27.926l-9.023-9.12h31.38z"/><path fill="url(#g)" d="m48.932 64.133-.743-9.063H29.265l-3.284 9.063z"/><path fill="url(#h)" d="M50.069 77.728h-29.1l3.296-9.063h25.058z"/><path fill="url(#i)" d="m88.467 35.812 1.968-3.173s-4.078-1.102-10.259-2.1l-7.254 20h6.344l2.828-4.532 2.13-3.398z"/><path fill="url(#j)" d="M93.968 35.811 83.845 50.54h16.622l-5.54-14.728z"/><path fill="url(#k)" d="M47.899 50.539 37.775 35.81h-.958l-5.54 14.728z"/><defs><linearGradient id="a" x1="65.923" x2="65.923" y1="28.979" y2="91.673" gradientUnits="userSpaceOnUse"><stop stop-color="#a5fcfd"/><stop offset="1" stop-color="#d1f6f7"/></linearGradient><linearGradient id="b" x1="65.923" x2="65.923" y1="28.979" y2="91.673" gradientUnits="userSpaceOnUse"><stop stop-color="#a5fcfd"/><stop offset="1" stop-color="#d1f6f7"/></linearGradient><linearGradient id="c" x1="65.923" x2="65.923" y1="28.979" y2="91.673" gradientUnits="userSpaceOnUse"><stop stop-color="#a5fcfd"/><stop offset="1" stop-color="#d1f6f7"/></linearGradient><linearGradient id="d" x1="65.923" x2="65.923" y1="28.979" y2="91.673" gradientUnits="userSpaceOnUse"><stop stop-color="#a5fcfd"/><stop offset="1" stop-color="#d1f6f7"/></linearGradient><linearGradient id="e" x1="65.923" x2="65.923" y1="28.979" y2="91.673" gradientUnits="userSpaceOnUse"><stop stop-color="#a5fcfd"/><stop offset="1" stop-color="#d1f6f7"/></linearGradient><linearGradient id="f" x1="65.923" x2="65.923" y1="28.979" y2="91.673" gradientUnits="userSpaceOnUse"><stop stop-color="#a5fcfd"/><stop offset="1" stop-color="#d1f6f7"/></linearGradient><linearGradient id="g" x1="65.923" x2="65.923" y1="28.979" y2="91.673" gradientUnits="userSpaceOnUse"><stop stop-color="#a5fcfd"/><stop offset="1" stop-color="#d1f6f7"/></linearGradient><linearGradient id="h" x1="65.923" x2="65.923" y1="28.979" y2="91.673" gradientUnits="userSpaceOnUse"><stop stop-color="#a5fcfd"/><stop offset="1" stop-color="#d1f6f7"/></linearGradient><linearGradient id="i" x1="65.923" x2="65.923" y1="28.979" y2="91.673" gradientUnits="userSpaceOnUse"><stop stop-color="#a5fcfd"/><stop offset="1" stop-color="#d1f6f7"/></linearGradient><linearGradient id="j" x1="65.923" x2="65.923" y1="28.979" y2="91.673" gradientUnits="userSpaceOnUse"><stop stop-color="#a5fcfd"/><stop offset="1" stop-color="#d1f6f7"/></linearGradient><linearGradient id="k" x1="65.923" x2="65.923" y1="28.979" y2="91.673" gradientUnits="userSpaceOnUse"><stop stop-color="#a5fcfd"/><stop offset="1" stop-color="#d1f6f7"/></linearGradient></defs></svg>
